<svg width="200" height="200" viewBox="0 0 200 200" fill="none" xmlns="http://www.w3.org/2000/svg">
<path d="M51.1976 112.5C56.7916 134.065 76.5201 150 100 150C123.48 150 143.208 134.065 148.802 112.5H200C193.801 161.829 151.394 200 100 200C48.6065 200 6.19936 161.829 0 112.5H51.1976ZM100 75C113.915 75 125.195 86.1929 125.195 100C125.195 113.807 113.915 125 100 125C86.085 125 74.8047 113.807 74.8047 100C74.8047 86.1929 86.085 75 100 75ZM100 0C151.394 0 193.801 38.1712 200 87.5H148.802C143.208 65.9347 123.48 50 100 50C76.5201 50 56.7916 65.9347 51.1976 87.5H0C6.19936 38.1712 48.6065 0 100 0Z" fill="black"/>
</svg>
