<svg width="185" height="129" viewBox="0 0 185 129" fill="none" xmlns="http://www.w3.org/2000/svg">
<g filter="url(#filter0_d_27_15)">
<path d="M56.2481 54.712L66.0524 66.0644C66.0652 66.0533 66.078 66.0422 66.0907 66.0311L56.2481 54.712ZM56.1201 39.608L46.006 50.6853C46.1731 50.8378 46.3435 50.9865 46.5173 51.1313L56.1201 39.608ZM43.9601 37.048V52.048C44.4134 52.048 44.8666 52.0275 45.3181 51.9864L43.9601 37.048ZM41.2721 37.304L38.5888 22.546C31.4564 23.8428 26.2721 30.0547 26.2721 37.304H41.2721ZM41.2721 57.144H26.2721C26.2721 65.4283 32.9878 72.144 41.2721 72.144V57.144ZM41.4001 98.232L45.3468 112.703C51.8727 110.924 56.4001 104.996 56.4001 98.232H41.4001ZM36.9201 99L35.0595 84.1159C35.033 84.1192 35.0065 84.1226 34.98 84.126L36.9201 99ZM25.7841 98.872L29.038 84.2292C28.8233 84.1815 28.6075 84.1385 28.3908 84.1003L25.7841 98.872ZM22.0721 97.336L13.0721 109.336L13.0721 109.336L22.0721 97.336ZM19.7681 94.136L5.72312 99.4029H5.72312L19.7681 94.136ZM20.4081 24.376L31.0146 34.9826L31.0147 34.9826L20.4081 24.376ZM24.5041 21.944L29.4593 36.1019C29.4717 36.0976 29.484 36.0932 29.4964 36.0889L24.5041 21.944ZM34.3601 19.768L36.0926 34.6676C36.1907 34.6562 36.2888 34.6438 36.3867 34.6305L34.3601 19.768ZM72.6321 26.552L63.2033 38.2181L72.6321 26.552ZM79.9281 58.424L66.0009 52.8531C65.9761 52.915 65.9518 52.9771 65.9279 53.0393L79.9281 58.424ZM74.0401 67.128L84.2748 78.0938C84.279 78.0899 84.2832 78.086 84.2874 78.0821L74.0401 67.128ZM64.1841 72.76L68.8344 87.021C68.8957 87.001 68.9569 86.9806 69.018 86.9598L64.1841 72.76ZM41.4001 74.68V59.68C33.1158 59.68 26.4001 66.3957 26.4001 74.68H41.4001ZM48.0561 57.144V72.144C53.6678 72.144 60.4589 70.8951 66.0524 66.0644L56.2481 54.712L46.4438 43.3597C47.3367 42.5885 48.1508 42.2668 48.5231 42.1563C48.8469 42.0602 48.7576 42.144 48.0561 42.144V57.144ZM56.2481 54.712L66.0907 66.0311C72.2797 60.6494 74.1921 53.3457 74.1921 47.032H59.1921H44.1921C44.1921 47.3365 44.1446 46.9394 44.4499 46.143C44.7896 45.2567 45.4316 44.2397 46.4054 43.3929L56.2481 54.712ZM59.1921 47.032H74.1921C74.1921 40.3956 71.9278 33.2555 65.7228 28.0847L56.1201 39.608L46.5173 51.1313C45.6652 50.4213 44.9766 49.4769 44.5638 48.4793C44.1827 47.5582 44.1921 46.974 44.1921 47.032H59.1921ZM56.1201 39.608L66.2341 28.5307C60.4936 23.2895 53.3514 21.92 47.4161 21.92V36.92V51.92C48.213 51.92 48.3497 52.0179 48.046 51.9241C47.6852 51.8127 46.8755 51.4792 46.006 50.6853L56.1201 39.608ZM47.4161 36.92V21.92C45.779 21.92 44.1427 21.9696 42.602 22.1096L43.9601 37.048L45.3181 51.9864C45.6547 51.9558 46.3225 51.92 47.4161 51.92V36.92ZM43.9601 37.048V22.048C42.1088 22.048 40.3108 22.2329 38.5888 22.546L41.2721 37.304L43.9553 52.0621C44.0317 52.0482 44.0691 52.0445 44.0702 52.0444C44.0711 52.0444 44.0332 52.048 43.9601 52.048V37.048ZM41.2721 37.304H26.2721V57.144H41.2721H56.2721V37.304H41.2721ZM41.2721 57.144V72.144H48.0561V57.144V42.144H41.2721V57.144ZM41.4001 98.232L37.4533 83.7606C37.6305 83.7122 37.5429 83.7457 37.0416 83.8317C36.5822 83.9104 35.9326 84.0067 35.0595 84.1159L36.9201 99L38.7806 113.884C40.9339 113.615 43.3183 113.257 45.3468 112.703L41.4001 98.232ZM36.9201 99L34.98 84.126C33.6551 84.2988 32.3405 84.384 31.0321 84.384V99.384V114.384C33.6489 114.384 36.2596 114.213 38.8601 113.874L36.9201 99ZM31.0321 99.384V84.384C29.9074 84.384 29.2814 84.2833 29.038 84.2292L25.7841 98.872L22.5301 113.515C25.3587 114.143 28.2314 114.384 31.0321 114.384V99.384ZM25.7841 98.872L28.3908 84.1003C28.9083 84.1916 29.9463 84.4917 31.0721 85.336L22.0721 97.336L13.0721 109.336C16.2458 111.716 19.7585 113.04 23.1773 113.644L25.7841 98.872ZM22.0721 97.336L31.0721 85.336C32.6441 86.5151 33.4637 87.9377 33.813 88.8692L19.7681 94.136L5.72312 99.4029C7.09641 103.065 9.45197 106.621 13.0721 109.336L22.0721 97.336ZM19.7681 94.136L33.813 88.8692C33.9183 89.1499 33.9768 89.3624 34.0071 89.4867C34.0374 89.6115 34.0445 89.6691 34.0413 89.6467C34.0382 89.6249 34.0274 89.5416 34.0176 89.3885C34.0079 89.236 34.0001 89.0283 34.0001 88.76H19.0001H4.00005C4.00005 91.9368 4.33972 95.7138 5.72312 99.4029L19.7681 94.136ZM19.0001 88.76H34.0001V28.472H19.0001H4.00005V88.76H19.0001ZM19.0001 28.472H34.0001C34.0001 29.2264 33.7613 32.236 31.0146 34.9826L20.4081 24.376L9.80146 13.7694C5.17745 18.3934 4.00005 24.1336 4.00005 28.472H19.0001ZM20.4081 24.376L31.0147 34.9826C30.0998 35.8974 29.3639 36.1353 29.4593 36.1019L24.5041 21.944L19.5488 7.78613C16.2309 8.9474 12.7643 10.8066 9.80144 13.7694L20.4081 24.376ZM24.5041 21.944L29.4964 36.0889C31.1573 35.5027 33.3207 34.9899 36.0926 34.6676L34.3601 19.768L32.6275 4.8684C28.0607 5.39942 23.6535 6.33738 19.5117 7.79916L24.5041 21.944ZM34.3601 19.768L36.3867 34.6305C39.476 34.2092 42.5535 34 45.6241 34V19V4.00002C41.1852 4.00002 36.7535 4.30282 32.3334 4.90556L34.3601 19.768ZM45.6241 19V34C55.5284 34 60.6456 36.151 63.2033 38.2181L72.6321 26.552L82.0608 14.8859C72.1598 6.88371 59.2717 4.00002 45.6241 4.00002V19ZM72.6321 26.552L63.2033 38.2181C65.6131 40.1658 66.9761 42.5491 66.9761 47.032H81.9761H96.9761C96.9761 34.2776 92.1097 23.0076 82.0608 14.8859L72.6321 26.552ZM81.9761 47.032H66.9761C66.9761 49.5653 66.5669 51.4382 66.0009 52.8531L79.9281 58.424L93.8552 63.9949C96.0199 58.5832 96.9761 52.8614 96.9761 47.032H81.9761ZM79.9281 58.424L65.9279 53.0393C65.4751 54.2165 64.8095 55.2227 63.7927 56.174L74.0401 67.128L84.2874 78.0821C88.5613 74.084 91.821 69.2875 93.9282 63.8087L79.9281 58.424ZM74.0401 67.128L63.8053 56.1622C63.0868 56.8328 61.7653 57.7381 59.3501 58.5603L64.1841 72.76L69.018 86.9598C74.6241 85.0513 79.8733 82.2019 84.2748 78.0938L74.0401 67.128ZM64.1841 72.76L59.5337 58.4991C57.4425 59.181 54.5066 59.68 50.4881 59.68V74.68V89.68C56.8802 89.68 63.075 88.899 68.8344 87.021L64.1841 72.76ZM50.4881 74.68V59.68H41.4001V74.68V89.68H50.4881V74.68ZM41.4001 74.68H26.4001V98.232H41.4001H56.4001V74.68H41.4001ZM115.647 82.104H100.647C100.647 89.3533 105.831 95.5653 112.964 96.8621L115.647 82.104ZM119.103 82.616L117.243 97.5002C117.55 97.5386 117.858 97.5675 118.167 97.5868L119.103 82.616ZM130.879 81.464L125.989 67.2834C125.937 67.3013 125.886 67.3195 125.834 67.3379L130.879 81.464ZM137.151 77.496L126.544 66.8894C126.458 66.9756 126.373 67.0629 126.289 67.1512L137.151 77.496ZM141.247 70.584L127.102 65.5917C127.073 65.6744 127.045 65.7574 127.017 65.8406L141.247 70.584ZM137.407 42.936L126.33 53.0501C126.367 53.0905 126.404 53.1308 126.441 53.1708L137.407 42.936ZM119.359 37.176L118.361 22.2092C118.338 22.2108 118.314 22.2124 118.29 22.2141L119.359 37.176ZM115.647 37.56L113.665 22.6916C106.213 23.6852 100.647 30.042 100.647 37.56H115.647ZM117.823 100.664L117.142 115.649V115.649L117.823 100.664ZM111.935 100.152L109.995 115.026C110.021 115.029 110.048 115.033 110.075 115.036L111.935 100.152ZM105.919 99.128L108.978 84.4433C108.816 84.4095 108.653 84.3783 108.489 84.3498L105.919 99.128ZM100.415 97.592L105.986 83.6649C105.913 83.6356 105.839 83.6069 105.766 83.5787L100.415 97.592ZM94.7831 24.376L105.39 34.9826L105.39 34.9826L94.7831 24.376ZM98.8791 21.944L94.2353 7.68095C94.1311 7.71487 94.0272 7.74993 93.9238 7.78613L98.8791 21.944ZM110.527 19.64L111.773 34.5882C111.876 34.5796 111.978 34.57 112.081 34.5593L110.527 19.64ZM139.583 21.432L135.252 35.7931C135.273 35.7994 135.293 35.8056 135.314 35.8117L139.583 21.432ZM153.535 28.984L143.57 40.1952C143.657 40.2729 143.745 40.3497 143.835 40.4254L153.535 28.984ZM162.623 41.656L148.777 47.4252V47.4253L162.623 41.656ZM162.751 77.752L176.645 83.404C176.656 83.377 176.667 83.3499 176.678 83.3229L162.751 77.752ZM153.919 90.552L164.009 101.651C164.013 101.647 164.017 101.644 164.021 101.64L153.919 90.552ZM140.351 98.232L135.746 83.9564L140.351 98.232ZM115.647 82.104L112.964 96.8621C114.265 97.0987 115.711 97.3087 117.243 97.5002L119.103 82.616L120.964 67.7318C119.765 67.582 118.906 67.4506 118.33 67.346L115.647 82.104ZM119.103 82.616L118.167 97.5868C119.801 97.6889 121.395 97.744 122.943 97.744V82.744V67.744C122.101 67.744 121.136 67.7138 120.039 67.6452L119.103 82.616ZM122.943 82.744V97.744C127.32 97.744 131.701 97.0983 135.924 95.5901L130.879 81.464L125.834 67.3379C125.278 67.5364 124.368 67.744 122.943 67.744V82.744ZM130.879 81.464L135.769 95.6446C140.378 94.0554 144.556 91.4713 148.013 87.8408L137.151 77.496L126.289 67.1512C126.283 67.1578 126.282 67.1576 126.286 67.1543C126.29 67.151 126.291 67.1513 126.283 67.1558C126.275 67.1613 126.192 67.2135 125.989 67.2834L130.879 81.464ZM137.151 77.496L147.758 88.1026C151.456 84.4041 153.928 79.9753 155.477 75.3274L141.247 70.584L127.017 65.8406C126.849 66.344 126.698 66.6357 126.615 66.777C126.535 66.9114 126.505 66.9289 126.544 66.8894L137.151 77.496ZM141.247 70.584L155.392 75.5763C157.124 70.6681 157.783 65.4392 157.783 60.216H142.783H127.783C127.783 63.0142 127.418 64.6973 127.102 65.5917L141.247 70.584ZM142.783 60.216H157.783C157.783 50.4713 155.53 40.3696 148.373 32.7012L137.407 42.936L126.441 53.1708C126.452 53.1824 127.783 54.6007 127.783 60.216H142.783ZM137.407 42.936L148.484 32.822C141.691 25.3812 132.681 22.048 123.071 22.048V37.048V52.048C125.408 52.048 125.955 52.6401 126.33 53.0501L137.407 42.936ZM123.071 37.048V22.048C121.52 22.048 119.949 22.1034 118.361 22.2092L119.359 37.176L120.357 52.1428C121.329 52.078 122.233 52.048 123.071 52.048V37.048ZM119.359 37.176L118.29 22.2141C116.768 22.3229 115.225 22.4836 113.665 22.6916L115.647 37.56L117.63 52.4284C118.629 52.2951 119.561 52.1998 120.428 52.1379L119.359 37.176ZM115.647 37.56H100.647V82.104H115.647H130.647V37.56H115.647ZM122.815 100.792V85.792C121.646 85.792 120.217 85.7573 118.504 85.6795L117.823 100.664L117.142 115.649C119.184 115.741 121.083 115.792 122.815 115.792V100.792ZM117.823 100.664L118.504 85.6795C117.057 85.6137 115.49 85.4796 113.796 85.2679L111.935 100.152L110.075 115.036C112.477 115.336 114.834 115.544 117.142 115.649L117.823 100.664ZM111.935 100.152L113.875 85.278C112.308 85.0736 110.677 84.7971 108.978 84.4433L105.919 99.128L102.86 113.813C105.257 114.312 107.636 114.718 109.995 115.026L111.935 100.152ZM105.919 99.128L108.489 84.3498C107.469 84.1724 106.648 83.9296 105.986 83.6649L100.415 97.592L94.8442 111.519C97.5957 112.62 100.444 113.401 103.349 113.906L105.919 99.128ZM100.415 97.592L105.766 83.5787C105.305 83.4029 106.166 83.6264 107.115 84.8858C107.582 85.5054 107.928 86.1958 108.139 86.8769C108.345 87.5382 108.375 88.03 108.375 88.248H93.3751H78.3751C78.3751 93.254 79.7568 98.4282 83.1548 102.938C86.4503 107.312 90.8317 109.989 95.0645 111.605L100.415 97.592ZM93.3751 88.248H108.375V28.472H93.3751H78.3751V88.248H93.3751ZM93.3751 28.472H108.375C108.375 29.2264 108.136 32.236 105.39 34.9826L94.7831 24.376L84.1765 13.7694C79.5525 18.3934 78.3751 24.1336 78.3751 28.472H93.3751ZM94.7831 24.376L105.39 34.9826C104.475 35.8974 103.739 36.1353 103.834 36.1019L98.8791 21.944L93.9238 7.78613C90.6059 8.9474 87.1393 10.8066 84.1764 13.7694L94.7831 24.376ZM98.8791 21.944L103.523 36.2071C106.021 35.3939 108.757 34.8395 111.773 34.5882L110.527 19.64L109.281 4.69183C104.105 5.12321 99.0761 6.10484 94.2353 7.68095L98.8791 21.944ZM110.527 19.64L112.081 34.5593C115.791 34.1728 118.928 34 121.535 34V19V4.00002C117.657 4.00002 113.455 4.25388 108.973 4.72074L110.527 19.64ZM121.535 19V34C126.988 34 131.513 34.6654 135.252 35.7931L139.583 21.432L143.914 7.07091C136.902 4.95601 129.395 4.00002 121.535 4.00002V19ZM139.583 21.432L135.314 35.8117C138.899 36.8759 141.545 38.3951 143.57 40.1952L153.535 28.984L163.501 17.7729C157.846 12.7462 151.19 9.23078 143.852 7.05231L139.583 21.432ZM153.535 28.984L143.835 40.4254C145.81 42.0998 147.484 44.323 148.777 47.4252L162.623 41.656L176.469 35.8868C173.495 28.749 169.111 22.5243 163.235 17.5427L153.535 28.984ZM162.623 41.656L148.777 47.4253C149.978 50.307 150.823 54.3162 150.823 59.832H165.823H180.823C180.823 51.3532 179.535 43.245 176.469 35.8868L162.623 41.656ZM165.823 59.832H150.823C150.823 65.1896 150.017 69.1996 148.824 72.1812L162.751 77.752L176.678 83.3229C179.582 76.0645 180.823 68.1278 180.823 59.832H165.823ZM162.751 77.752L148.857 72.1C147.611 75.1611 145.926 77.5419 143.817 79.4641L153.919 90.552L164.021 101.64C169.592 96.5648 173.795 90.4123 176.645 83.404L162.751 77.752ZM153.919 90.552L143.829 79.4529C141.801 81.2962 139.199 82.8424 135.746 83.9564L140.351 98.232L144.956 112.508C152.084 110.208 158.527 106.634 164.009 101.651L153.919 90.552ZM140.351 98.232L135.746 83.9564C132.149 85.1168 127.883 85.792 122.815 85.792V100.792V115.792C130.547 115.792 137.972 114.761 144.956 112.508L140.351 98.232Z" fill="#1A9E96"/>
</g>
<path d="M56.2481 54.712L65.3987 65.3075C65.4107 65.2972 65.4226 65.2869 65.4346 65.2765L56.2481 54.712ZM56.1201 39.608L46.6803 49.9468C46.8362 50.0892 46.9953 50.228 47.1575 50.3631L56.1201 39.608ZM43.9601 37.048V51.048C44.3832 51.048 44.8061 51.0288 45.2275 50.9905L43.9601 37.048ZM41.2721 37.304L38.7677 23.5298C32.1108 24.7402 27.2721 30.538 27.2721 37.304H41.2721ZM41.2721 57.144H27.2721C27.2721 64.876 33.5401 71.144 41.2721 71.144V57.144ZM41.4001 98.232L45.0837 111.739C51.1746 110.078 55.4001 104.545 55.4001 98.232H41.4001ZM36.9201 99L35.1836 85.1081C35.1588 85.1112 35.1341 85.1144 35.1093 85.1176L36.9201 99ZM25.7841 98.872L28.8211 85.2054C28.6206 85.1609 28.4193 85.1207 28.217 85.0851L25.7841 98.872ZM22.0721 97.336L13.6721 108.536H13.6721L22.0721 97.336ZM19.7681 94.136L6.65944 99.0517L6.65945 99.0518L19.7681 94.136ZM20.4081 24.376L30.3075 34.2755L30.3076 34.2755L20.4081 24.376ZM24.5041 21.944L29.1289 35.158C29.1405 35.154 29.152 35.1499 29.1635 35.1459L24.5041 21.944ZM34.3601 19.768L35.9771 33.6743C36.0687 33.6637 36.1602 33.6521 36.2516 33.6396L34.3601 19.768ZM72.6321 26.552L63.8319 37.4404L72.6321 26.552ZM79.9281 58.424L66.9294 53.2245C66.9063 53.2823 66.8836 53.3402 66.8612 53.3983L79.9281 58.424ZM74.0401 67.128L83.5925 77.3628C83.5964 77.3591 83.6003 77.3555 83.6043 77.3518L74.0401 67.128ZM64.1841 72.76L68.5243 86.0702C68.5816 86.0516 68.6387 86.0325 68.6957 86.0131L64.1841 72.76ZM41.4001 74.68V60.68C33.6681 60.68 27.4001 66.948 27.4001 74.68H41.4001ZM48.0561 57.144V71.144C53.5326 71.144 60.053 69.9243 65.3987 65.3075L56.2481 54.712L47.0974 44.1165C47.8682 43.4508 48.5513 43.1911 48.8077 43.115C49.0189 43.0523 48.8303 43.144 48.0561 43.144V57.144ZM56.2481 54.712L65.4346 65.2765C71.3417 60.1398 73.1921 53.1523 73.1921 47.032H59.1921H45.1921C45.1921 47.4299 45.1314 47.1589 45.3836 46.5009C45.668 45.759 46.2181 44.881 47.0616 44.1475L56.2481 54.712ZM59.1921 47.032H73.1921C73.1921 40.6218 71.0105 33.7928 65.0826 28.8529L56.1201 39.608L47.1575 50.3631C46.4305 49.7573 45.839 48.9456 45.4878 48.0969C45.1662 47.3198 45.1921 46.8698 45.1921 47.032H59.1921ZM56.1201 39.608L65.5598 29.2692C60.0712 24.2579 53.2117 22.92 47.4161 22.92V36.92V50.92C48.2878 50.92 48.5278 51.0264 48.341 50.9687C48.1011 50.8946 47.4264 50.628 46.6803 49.9468L56.1201 39.608ZM47.4161 36.92V22.92C45.7971 22.92 44.1931 22.9691 42.6926 23.1055L43.9601 37.048L45.2275 50.9905C45.6043 50.9563 46.3044 50.92 47.4161 50.92V36.92ZM43.9601 37.048V23.048C42.1753 23.048 40.4374 23.2262 38.7677 23.5298L41.2721 37.304L43.7765 51.0782C43.984 51.0405 44.0382 51.048 43.9601 51.048V37.048ZM41.2721 37.304H27.2721V57.144H41.2721H55.2721V37.304H41.2721ZM41.2721 57.144V71.144H48.0561V57.144V43.144H41.2721V57.144ZM41.4001 98.232L37.7164 84.7253C37.8505 84.6888 37.7283 84.7286 37.2106 84.8173C36.732 84.8993 36.0667 84.9977 35.1836 85.1081L36.9201 99L38.6565 112.892C40.8028 112.624 43.1279 112.272 45.0837 111.739L41.4001 98.232ZM36.9201 99L35.1093 85.1176C33.742 85.296 32.3841 85.384 31.0321 85.384V99.384V113.384C33.6053 113.384 36.1728 113.216 38.7308 112.882L36.9201 99ZM31.0321 99.384V85.384C29.8515 85.384 29.1507 85.2786 28.8211 85.2054L25.7841 98.872L22.747 112.539C25.4895 113.148 28.2873 113.384 31.0321 113.384V99.384ZM25.7841 98.872L28.217 85.0851C28.6033 85.1532 29.4896 85.3992 30.4721 86.136L22.0721 97.336L13.6721 108.536C16.7025 110.809 20.0635 112.079 23.3511 112.659L25.7841 98.872ZM22.0721 97.336L30.4721 86.136C31.8711 87.1853 32.5848 88.442 32.8767 89.2203L19.7681 94.136L6.65945 99.0518C7.97532 102.561 10.225 105.951 13.6721 108.536L22.0721 97.336ZM19.7681 94.136L32.8767 89.2203C32.9664 89.4595 33.0136 89.6334 33.0354 89.7231C33.0573 89.8132 33.0586 89.8389 33.0513 89.7881C33.0351 89.6746 33.0001 89.3486 33.0001 88.76H19.0001H5.00005C5.00005 91.8729 5.33414 95.5176 6.65944 99.0517L19.7681 94.136ZM19.0001 88.76H33.0001V28.472H19.0001H5.00005V88.76H19.0001ZM19.0001 28.472H33.0001C33.0001 29.0566 32.8085 31.7745 30.3075 34.2755L20.4081 24.376L10.5086 14.4765C6.13025 18.8548 5.00005 24.3034 5.00005 28.472H19.0001ZM20.4081 24.376L30.3076 34.2755C29.522 35.0611 28.9261 35.229 29.1289 35.158L24.5041 21.944L19.8792 8.73C16.6687 9.85366 13.3421 11.643 10.5086 14.4765L20.4081 24.376ZM24.5041 21.944L29.1635 35.1459C30.9072 34.5305 33.1454 34.0036 35.9771 33.6743L34.3601 19.768L32.743 5.86171C28.2361 6.38577 23.9036 7.30956 19.8446 8.74216L24.5041 21.944ZM34.3601 19.768L36.2516 33.6396C39.3852 33.2123 42.5079 33 45.6241 33V19V5.00002C41.2309 5.00002 36.8442 5.2997 32.4685 5.89639L34.3601 19.768ZM45.6241 19V33C55.6532 33 61.0294 35.1754 63.8319 37.4404L72.6321 26.552L81.4323 15.6636C71.776 7.85928 59.1469 5.00002 45.6241 5.00002V19ZM72.6321 26.552L63.8319 37.4404C66.4963 39.5938 67.9761 42.2734 67.9761 47.032H81.9761H95.9761C95.9761 34.5533 91.2265 23.5795 81.4323 15.6636L72.6321 26.552ZM81.9761 47.032H67.9761C67.9761 49.6751 67.5487 51.6763 66.9294 53.2245L79.9281 58.424L92.9267 63.6235C95.0381 58.345 95.9761 52.7516 95.9761 47.032H81.9761ZM79.9281 58.424L66.8612 53.3983C66.3533 54.7189 65.6012 55.8514 64.4759 56.9042L74.0401 67.128L83.6043 77.3518C87.7695 73.4553 90.9428 68.7851 92.9949 63.4497L79.9281 58.424ZM74.0401 67.128L64.4876 56.8932C63.6464 57.6784 62.194 58.6485 59.6724 59.5069L64.1841 72.76L68.6957 86.0131C74.1955 84.1409 79.3138 81.3563 83.5925 77.3628L74.0401 67.128ZM64.1841 72.76L59.8438 59.4498C57.6302 60.1716 54.5857 60.68 50.4881 60.68V74.68V88.68C56.8011 88.68 62.8872 87.9084 68.5243 86.0702L64.1841 72.76ZM50.4881 74.68V60.68H41.4001V74.68V88.68H50.4881V74.68ZM41.4001 74.68H27.4001V98.232H41.4001H55.4001V74.68H41.4001ZM115.647 82.104H101.647C101.647 88.87 106.486 94.6679 113.143 95.8782L115.647 82.104ZM119.103 82.616L117.367 96.5079C117.653 96.5438 117.941 96.5707 118.23 96.5888L119.103 82.616ZM130.879 81.464L126.315 68.2288C126.267 68.2455 126.219 68.2624 126.17 68.2796L130.879 81.464ZM137.151 77.496L127.252 67.5965C127.171 67.677 127.092 67.7584 127.013 67.8409L137.151 77.496ZM141.247 70.584L128.045 65.9245C128.018 66.0017 127.991 66.0792 127.965 66.1568L141.247 70.584ZM137.407 42.936L127.068 52.3758C127.103 52.4135 127.137 52.4511 127.172 52.4885L137.407 42.936ZM119.359 37.176L118.428 23.207C118.406 23.2085 118.384 23.21 118.362 23.2116L119.359 37.176ZM115.647 37.56L113.797 23.6828C106.841 24.6102 101.647 30.5432 101.647 37.56H115.647ZM117.823 100.664L117.187 114.65V114.65L117.823 100.664ZM111.935 100.152L110.124 114.034C110.149 114.038 110.174 114.041 110.199 114.044L111.935 100.152ZM105.919 99.128L108.774 85.4223C108.623 85.3907 108.47 85.3616 108.318 85.3351L105.919 99.128ZM100.415 97.592L105.615 84.5933C105.546 84.566 105.478 84.5392 105.409 84.513L100.415 97.592ZM94.7831 24.376L104.683 34.2755L104.683 34.2755L94.7831 24.376ZM98.8791 21.944L94.5449 8.63181C94.4476 8.66348 94.3507 8.69621 94.2542 8.73L98.8791 21.944ZM110.527 19.64L111.69 33.5917C111.786 33.5836 111.882 33.5747 111.978 33.5647L110.527 19.64ZM139.583 21.432L135.541 34.8357C135.56 34.8415 135.579 34.8473 135.599 34.8531L139.583 21.432ZM153.535 28.984L144.234 39.4477C144.316 39.5203 144.398 39.592 144.481 39.6626L153.535 28.984ZM162.623 41.656L149.7 47.0406V47.0406L162.623 41.656ZM162.751 77.752L175.719 83.0272C175.729 83.002 175.74 82.9768 175.75 82.9515L162.751 77.752ZM153.919 90.552L163.336 100.911C163.34 100.908 163.344 100.904 163.348 100.901L153.919 90.552ZM140.351 98.232L136.053 84.9081L140.351 98.232ZM115.647 82.104L113.143 95.8782C114.42 96.1105 115.846 96.3178 117.367 96.5079L119.103 82.616L120.84 68.7241C119.63 68.5729 118.751 68.4389 118.151 68.3298L115.647 82.104ZM119.103 82.616L118.23 96.5888C119.845 96.6897 121.419 96.744 122.943 96.744V82.744V68.744C122.078 68.744 121.092 68.713 119.976 68.6433L119.103 82.616ZM122.943 82.744V96.744C127.222 96.744 131.487 96.1129 135.588 94.6484L130.879 81.464L126.17 68.2796C125.492 68.5218 124.467 68.744 122.943 68.744V82.744ZM130.879 81.464L135.443 94.6992C139.909 93.1591 143.948 90.6591 147.289 87.1512L137.151 77.496L127.013 67.8409C126.941 67.917 126.798 68.0623 126.315 68.2288L130.879 81.464ZM137.151 77.496L147.051 87.3955C150.622 83.8241 153.02 79.537 154.529 75.0112L141.247 70.584L127.965 66.1568C127.597 67.2631 127.264 67.5839 127.252 67.5965L137.151 77.496ZM141.247 70.584L154.449 75.2435C156.134 70.469 156.783 65.3583 156.783 60.216H142.783H128.783C128.783 63.095 128.408 64.8963 128.045 65.9245L141.247 70.584ZM142.783 60.216H156.783C156.783 50.609 154.561 40.7967 147.642 33.3836L137.407 42.936L127.172 52.4885C127.421 52.7553 128.783 54.4631 128.783 60.216H142.783ZM137.407 42.936L147.746 33.4962C141.166 26.2899 132.439 23.048 123.071 23.048V37.048V51.048C125.65 51.048 126.48 51.7315 127.068 52.3758L137.407 42.936ZM123.071 37.048V23.048C121.544 23.048 119.995 23.1025 118.428 23.207L119.359 37.176L120.29 51.145C121.283 51.0788 122.209 51.048 123.071 51.048V37.048ZM119.359 37.176L118.362 23.2116C116.861 23.3188 115.338 23.4773 113.797 23.6828L115.647 37.56L117.497 51.4372C118.516 51.3014 119.468 51.2039 120.357 51.1404L119.359 37.176ZM115.647 37.56H101.647V82.104H115.647H129.647V37.56H115.647ZM122.815 100.792V86.792C121.627 86.792 120.182 86.7568 118.459 86.6785L117.823 100.664L117.187 114.65C119.218 114.742 121.101 114.792 122.815 114.792V100.792ZM117.823 100.664L118.459 86.6785C116.983 86.6114 115.389 86.4748 113.672 86.2601L111.935 100.152L110.199 114.044C112.577 114.341 114.908 114.546 117.187 114.65L117.823 100.664ZM111.935 100.152L113.746 86.2696C112.153 86.0618 110.496 85.781 108.774 85.4223L105.919 99.128L103.064 112.834C105.438 113.328 107.792 113.73 110.124 114.034L111.935 100.152ZM105.919 99.128L108.318 85.3351C107.235 85.1467 106.346 84.8859 105.615 84.5933L100.415 97.592L95.2156 110.591C97.8974 111.663 100.678 112.427 103.52 112.921L105.919 99.128ZM100.415 97.592L105.409 84.513C104.823 84.2891 105.509 84.4159 106.317 85.4875C106.713 86.0139 107.006 86.6009 107.184 87.1737C107.357 87.7279 107.375 88.1185 107.375 88.248H93.3751H79.3751C79.3751 93.0681 80.7038 98.0233 83.9535 102.337C87.1075 106.523 91.3141 109.103 95.4212 110.671L100.415 97.592ZM93.3751 88.248H107.375V28.472H93.3751H79.3751V88.248H93.3751ZM93.3751 28.472H107.375C107.375 29.0566 107.184 31.7745 104.683 34.2755L94.7831 24.376L84.8836 14.4765C80.5052 18.8548 79.3751 24.3034 79.3751 28.472H93.3751ZM94.7831 24.376L104.683 34.2755C103.897 35.0611 103.301 35.229 103.504 35.158L98.8791 21.944L94.2542 8.73C91.0437 9.85366 87.7171 11.643 84.8836 14.4765L94.7831 24.376ZM98.8791 21.944L103.213 35.2562C105.789 34.4175 108.602 33.8489 111.69 33.5917L110.527 19.64L109.364 5.68838C104.26 6.11375 99.3076 7.08115 94.5449 8.63181L98.8791 21.944ZM110.527 19.64L111.978 33.5647C115.713 33.1755 118.885 33 121.535 33V19V5.00002C117.699 5.00002 113.533 5.25117 109.077 5.71535L110.527 19.64ZM121.535 19V33C127.068 33 131.692 33.675 135.541 34.8357L139.583 21.432L143.625 8.02831C136.722 5.94632 129.314 5.00002 121.535 5.00002V19ZM139.583 21.432L135.599 34.8531C139.308 35.9544 142.088 37.5402 144.234 39.4477L153.535 28.984L162.836 18.5203C157.302 13.6012 150.78 10.1523 143.567 8.01096L139.583 21.432ZM153.535 28.984L144.481 39.6626C146.586 41.4473 148.351 43.8039 149.7 47.0406L162.623 41.656L175.546 36.2714C172.628 29.2682 168.334 23.1768 162.589 18.3054L153.535 28.984ZM162.623 41.656L149.7 47.0406C150.963 50.0716 151.823 54.2174 151.823 59.832H165.823H179.823C179.823 51.4519 178.55 43.4804 175.546 36.2714L162.623 41.656ZM165.823 59.832H151.823C151.823 65.2875 151.002 69.4284 149.752 72.5526L162.751 77.752L175.75 82.9515C178.596 75.8357 179.823 68.0299 179.823 59.832H165.823ZM162.751 77.752L149.783 72.4768C148.484 75.6694 146.715 78.176 144.49 80.2033L153.919 90.552L163.348 100.901C168.803 95.9307 172.922 89.9039 175.719 83.0272L162.751 77.752ZM153.919 90.552L144.502 80.1929C142.359 82.1408 139.629 83.7546 136.053 84.9081L140.351 98.232L144.649 111.556C151.655 109.296 157.97 105.79 163.336 100.911L153.919 90.552ZM140.351 98.232L136.053 84.9081C132.343 86.1049 127.972 86.792 122.815 86.792V100.792V114.792C130.458 114.792 137.778 113.772 144.649 111.556L140.351 98.232Z" fill="white"/>
<path d="M48.0561 57.144C51.6401 57.144 54.3707 56.3333 56.2481 54.712C58.2107 53.0053 59.1921 50.4453 59.1921 47.032C59.1921 43.7893 58.1681 41.3147 56.1201 39.608C54.1574 37.816 51.2561 36.92 47.4161 36.92C46.0507 36.92 44.8987 36.9627 43.9601 37.048C43.1067 37.048 42.2107 37.1333 41.2721 37.304V57.144H48.0561ZM41.4001 98.232C40.4614 98.488 38.9681 98.744 36.9201 99C34.9574 99.256 32.9947 99.384 31.0321 99.384C29.0694 99.384 27.3201 99.2134 25.7841 98.872C24.3334 98.616 23.0961 98.104 22.0721 97.336C21.0481 96.568 20.2801 95.5014 19.7681 94.136C19.2561 92.7707 19.0001 90.9787 19.0001 88.76V28.472C19.0001 26.68 19.4694 25.3147 20.4081 24.376C21.4321 23.352 22.7974 22.5413 24.5041 21.944C27.4054 20.92 30.6907 20.1947 34.3601 19.768C38.1147 19.256 41.8694 19 45.6241 19C57.4001 19 66.4027 21.5173 72.6321 26.552C78.8614 31.5867 81.9761 38.4134 81.9761 47.032C81.9761 51.2133 81.2934 55.0107 79.9281 58.424C78.6481 61.752 76.6854 64.6533 74.0401 67.128C71.4801 69.5174 68.1947 71.3947 64.1841 72.76C60.2587 74.04 55.6934 74.68 50.4881 74.68H41.4001V98.232Z" fill="black"/>
<path d="M48.0561 57.144C51.6401 57.144 54.3707 56.3333 56.2481 54.712C58.2107 53.0053 59.1921 50.4453 59.1921 47.032C59.1921 43.7893 58.1681 41.3147 56.1201 39.608C54.1574 37.816 51.2561 36.92 47.4161 36.92C46.0507 36.92 44.8987 36.9627 43.9601 37.048C43.1067 37.048 42.2107 37.1333 41.2721 37.304V57.144H48.0561ZM41.4001 98.232C40.4614 98.488 38.9681 98.744 36.9201 99C34.9574 99.256 32.9947 99.384 31.0321 99.384C29.0694 99.384 27.3201 99.2134 25.7841 98.872C24.3334 98.616 23.0961 98.104 22.0721 97.336C21.0481 96.568 20.2801 95.5014 19.7681 94.136C19.2561 92.7707 19.0001 90.9787 19.0001 88.76V28.472C19.0001 26.68 19.4694 25.3147 20.4081 24.376C21.4321 23.352 22.7974 22.5413 24.5041 21.944C27.4054 20.92 30.6907 20.1947 34.3601 19.768C38.1147 19.256 41.8694 19 45.6241 19C57.4001 19 66.4027 21.5173 72.6321 26.552C78.8614 31.5867 81.9761 38.4134 81.9761 47.032C81.9761 51.2133 81.2934 55.0107 79.9281 58.424C78.6481 61.752 76.6854 64.6533 74.0401 67.128C71.4801 69.5174 68.1947 71.3947 64.1841 72.76C60.2587 74.04 55.6934 74.68 50.4881 74.68H41.4001V98.232Z" fill="#BAE3E0"/>
<path d="M115.647 82.104C116.586 82.2747 117.738 82.4454 119.103 82.616C120.468 82.7014 121.748 82.744 122.943 82.744C125.844 82.744 128.49 82.3174 130.879 81.464C133.354 80.6107 135.444 79.288 137.151 77.496C138.943 75.704 140.308 73.4 141.247 70.584C142.271 67.6827 142.783 64.2267 142.783 60.216C142.783 52.536 140.991 46.776 137.407 42.936C133.823 39.0107 129.044 37.048 123.071 37.048C121.876 37.048 120.639 37.0907 119.359 37.176C118.164 37.2613 116.927 37.3893 115.647 37.56V82.104ZM122.815 100.792C121.364 100.792 119.7 100.749 117.823 100.664C115.946 100.579 113.983 100.408 111.935 100.152C109.972 99.896 107.967 99.5547 105.919 99.128C103.956 98.7867 102.122 98.2747 100.415 97.592C95.7217 95.8 93.3751 92.6854 93.3751 88.248V28.472C93.3751 26.68 93.8444 25.3147 94.7831 24.376C95.8071 23.352 97.1724 22.5413 98.8791 21.944C102.548 20.7493 106.431 19.9813 110.527 19.64C114.623 19.2133 118.292 19 121.535 19C128.191 19 134.207 19.8107 139.583 21.432C145.044 23.0533 149.695 25.5707 153.535 28.984C157.46 32.312 160.49 36.536 162.623 41.656C164.756 46.776 165.823 52.8347 165.823 59.832C165.823 66.6587 164.799 72.632 162.751 77.752C160.703 82.7867 157.759 87.0534 153.919 90.552C150.164 93.9654 145.642 96.5254 140.351 98.232C135.06 99.9387 129.215 100.792 122.815 100.792Z" fill="black"/>
<path d="M115.647 82.104C116.586 82.2747 117.738 82.4454 119.103 82.616C120.468 82.7014 121.748 82.744 122.943 82.744C125.844 82.744 128.49 82.3174 130.879 81.464C133.354 80.6107 135.444 79.288 137.151 77.496C138.943 75.704 140.308 73.4 141.247 70.584C142.271 67.6827 142.783 64.2267 142.783 60.216C142.783 52.536 140.991 46.776 137.407 42.936C133.823 39.0107 129.044 37.048 123.071 37.048C121.876 37.048 120.639 37.0907 119.359 37.176C118.164 37.2613 116.927 37.3893 115.647 37.56V82.104ZM122.815 100.792C121.364 100.792 119.7 100.749 117.823 100.664C115.946 100.579 113.983 100.408 111.935 100.152C109.972 99.896 107.967 99.5547 105.919 99.128C103.956 98.7867 102.122 98.2747 100.415 97.592C95.7217 95.8 93.3751 92.6854 93.3751 88.248V28.472C93.3751 26.68 93.8444 25.3147 94.7831 24.376C95.8071 23.352 97.1724 22.5413 98.8791 21.944C102.548 20.7493 106.431 19.9813 110.527 19.64C114.623 19.2133 118.292 19 121.535 19C128.191 19 134.207 19.8107 139.583 21.432C145.044 23.0533 149.695 25.5707 153.535 28.984C157.46 32.312 160.49 36.536 162.623 41.656C164.756 46.776 165.823 52.8347 165.823 59.832C165.823 66.6587 164.799 72.632 162.751 77.752C160.703 82.7867 157.759 87.0534 153.919 90.552C150.164 93.9654 145.642 96.5254 140.351 98.232C135.06 99.9387 129.215 100.792 122.815 100.792Z" fill="white"/>
<path d="M115.647 82.104C116.586 82.2747 117.738 82.4454 119.103 82.616C120.468 82.7014 121.748 82.744 122.943 82.744C125.844 82.744 128.49 82.3174 130.879 81.464C133.354 80.6107 135.444 79.288 137.151 77.496C138.943 75.704 140.308 73.4 141.247 70.584C142.271 67.6827 142.783 64.2267 142.783 60.216C142.783 52.536 140.991 46.776 137.407 42.936C133.823 39.0107 129.044 37.048 123.071 37.048C121.876 37.048 120.639 37.0907 119.359 37.176C118.164 37.2613 116.927 37.3893 115.647 37.56V82.104ZM122.815 100.792C121.364 100.792 119.7 100.749 117.823 100.664C115.946 100.579 113.983 100.408 111.935 100.152C109.972 99.896 107.967 99.5547 105.919 99.128C103.956 98.7867 102.122 98.2747 100.415 97.592C95.7217 95.8 93.3751 92.6854 93.3751 88.248V28.472C93.3751 26.68 93.8444 25.3147 94.7831 24.376C95.8071 23.352 97.1724 22.5413 98.8791 21.944C102.548 20.7493 106.431 19.9813 110.527 19.64C114.623 19.2133 118.292 19 121.535 19C128.191 19 134.207 19.8107 139.583 21.432C145.044 23.0533 149.695 25.5707 153.535 28.984C157.46 32.312 160.49 36.536 162.623 41.656C164.756 46.776 165.823 52.8347 165.823 59.832C165.823 66.6587 164.799 72.632 162.751 77.752C160.703 82.7867 157.759 87.0534 153.919 90.552C150.164 93.9654 145.642 96.5254 140.351 98.232C135.06 99.9387 129.215 100.792 122.815 100.792Z" fill="#1A9E96"/>
<defs>
<filter id="filter0_d_27_15" x="0" y="0" width="184.823" height="119.792" filterUnits="userSpaceOnUse" color-interpolation-filters="sRGB">
<feFlood flood-opacity="0" result="BackgroundImageFix"/>
<feColorMatrix in="SourceAlpha" type="matrix" values="0 0 0 0 0 0 0 0 0 0 0 0 0 0 0 0 0 0 127 0" result="hardAlpha"/>
<feOffset/>
<feGaussianBlur stdDeviation="2"/>
<feComposite in2="hardAlpha" operator="out"/>
<feColorMatrix type="matrix" values="0 0 0 0 0 0 0 0 0 0 0 0 0 0 0 0 0 0 0.25 0"/>
<feBlend mode="normal" in2="BackgroundImageFix" result="effect1_dropShadow_27_15"/>
<feBlend mode="normal" in="SourceGraphic" in2="effect1_dropShadow_27_15" result="shape"/>
</filter>
</defs>
</svg>
