<svg width="200" height="200" viewBox="0 0 200 200" fill="none" xmlns="http://www.w3.org/2000/svg">
<path d="M61.2607 110C65.7012 127.252 81.3617 140 100 140C118.638 140 134.299 127.252 138.739 110H179.38C174.459 149.463 140.796 180 100 180C59.2039 180 25.5412 149.463 20.6201 110H61.2607ZM100 80C111.046 80 120 88.9543 120 100C120 111.046 111.046 120 100 120C88.9543 120 80 111.046 80 100C80 88.9543 88.9543 80 100 80ZM100 20C140.796 20 174.459 50.537 179.38 90H138.739C134.299 72.7478 118.638 60 100 60C81.3617 60 65.7012 72.7478 61.2607 90H20.6201C25.5412 50.537 59.2039 20 100 20Z" fill="black"/>
</svg>
