<svg width="350" height="136" viewBox="0 0 350 136" fill="none" xmlns="http://www.w3.org/2000/svg">
<path d="M52.068 61.968L54.6825 64.9953L54.6927 64.9864L52.068 61.968ZM51.94 46.864L49.2429 49.8179C49.2875 49.8586 49.3329 49.8983 49.3793 49.9369L51.94 46.864ZM39.78 44.304V48.304C39.9009 48.304 40.0217 48.2985 40.1421 48.2876L39.78 44.304ZM37.092 44.56L36.3765 40.6245C34.4745 40.9703 33.092 42.6269 33.092 44.56H37.092ZM37.092 64.4H33.092C33.092 66.6091 34.8829 68.4 37.092 68.4V64.4ZM37.22 105.488L38.2725 109.347C40.0127 108.872 41.22 107.292 41.22 105.488H37.22ZM32.74 106.256L32.2439 102.287C32.2368 102.288 32.2297 102.289 32.2226 102.29L32.74 106.256ZM21.604 106.128L22.4717 102.223C22.4145 102.211 22.3569 102.199 22.2991 102.189L21.604 106.128ZM17.892 104.592L15.492 107.792H15.492L17.892 104.592ZM15.588 101.392L11.8427 102.796H11.8427L15.588 101.392ZM16.228 31.632L19.0564 34.4604L19.0564 34.4604L16.228 31.632ZM20.324 29.2L21.6454 32.9754L21.6553 32.972L20.324 29.2ZM30.18 27.024L30.642 30.9972C30.6682 30.9942 30.6943 30.9909 30.7205 30.9873L30.18 27.024ZM68.452 33.808L65.9377 36.919L68.452 33.808ZM75.748 65.68L72.0341 64.1944C72.0275 64.2109 72.021 64.2275 72.0146 64.2441L75.748 65.68ZM69.86 74.384L72.5893 77.3082L72.5926 77.3051L69.86 74.384ZM60.004 80.016L61.2441 83.8189C61.2604 83.8136 61.2768 83.8081 61.2931 83.8026L60.004 80.016ZM37.22 81.936V77.936C35.0109 77.936 33.22 79.7269 33.22 81.936H37.22ZM43.876 64.4V68.4C48.0007 68.4 51.8142 67.4725 54.6825 64.9953L52.068 61.968L49.4535 58.9407C48.5672 59.7062 46.9193 60.4 43.876 60.4V64.4ZM52.068 61.968L54.6927 64.9864C57.7824 62.2997 59.012 58.4748 59.012 54.288H55.012H51.012C51.012 56.9279 50.2789 58.2229 49.4433 58.9496L52.068 61.968ZM55.012 54.288H59.012C59.012 50.1403 57.6573 46.4216 54.5007 43.7911L51.94 46.864L49.3793 49.9369C50.3187 50.7198 51.012 51.9503 51.012 54.288H55.012ZM51.94 46.864L54.6371 43.9101C51.667 41.1982 47.6348 40.176 43.236 40.176V44.176V48.176C46.5173 48.176 48.2877 48.9457 49.2429 49.8179L51.94 46.864ZM43.236 44.176V40.176C41.7982 40.176 40.5171 40.2205 39.4179 40.3204L39.78 44.304L40.1421 48.2876C40.9203 48.2168 41.9431 48.176 43.236 48.176V44.176ZM39.78 44.304V40.304C38.6605 40.304 37.524 40.4159 36.3765 40.6245L37.092 44.56L37.8075 48.4955C38.5373 48.3628 39.1928 48.304 39.78 48.304V44.304ZM37.092 44.56H33.092V64.4H37.092H41.092V44.56H37.092ZM37.092 64.4V68.4H43.876V64.4V60.4H37.092V64.4ZM37.22 105.488L36.1675 101.629C35.5195 101.806 34.2638 102.034 32.2439 102.287L32.74 106.256L33.2361 110.225C35.3122 109.966 37.0432 109.682 38.2725 109.347L37.22 105.488ZM32.74 106.256L32.2226 102.29C30.4301 102.523 28.6402 102.64 26.852 102.64V106.64V110.64C28.9891 110.64 31.1246 110.501 33.2574 110.222L32.74 106.256ZM26.852 106.64V102.64C25.1128 102.64 23.663 102.488 22.4717 102.223L21.604 106.128L20.7363 110.033C22.617 110.451 24.6659 110.64 26.852 110.64V106.64ZM21.604 106.128L22.2991 102.189C21.3733 102.025 20.7427 101.73 20.292 101.392L17.892 104.592L15.492 107.792C17.0893 108.99 18.9334 109.719 20.9089 110.067L21.604 106.128ZM17.892 104.592L20.292 101.392C19.9603 101.143 19.6156 100.74 19.3333 99.9875L15.588 101.392L11.8427 102.796C12.5844 104.774 13.7757 106.505 15.492 107.792L17.892 104.592ZM15.588 101.392L19.3333 99.9875C19.0537 99.2418 18.82 97.9792 18.82 96.016H14.82H10.82C10.82 98.4902 11.0983 100.812 11.8427 102.796L15.588 101.392ZM14.82 96.016H18.82V35.728H14.82H10.82V96.016H14.82ZM14.82 35.728H18.82C18.82 35.172 18.8938 34.8375 18.9547 34.6603C19.0093 34.5017 19.054 34.4628 19.0564 34.4604L16.228 31.632L13.3996 28.8036C11.4782 30.725 10.82 33.257 10.82 35.728H14.82ZM16.228 31.632L19.0564 34.4604C19.5634 33.9534 20.3684 33.4224 21.6454 32.9754L20.324 29.2L19.0026 25.4246C16.8663 26.1723 14.9406 27.2626 13.3996 28.8036L16.228 31.632ZM20.324 29.2L21.6553 32.972C24.2258 32.0647 27.212 31.3961 30.642 30.9972L30.18 27.024L29.718 23.0508C25.8093 23.5053 22.2248 24.2873 18.9927 25.428L20.324 29.2ZM30.18 27.024L30.7205 30.9873C34.2977 30.4995 37.8718 30.256 41.444 30.256V26.256V22.256C37.5069 22.256 33.5717 22.5245 29.6395 23.0607L30.18 27.024ZM41.444 26.256V30.256C52.7209 30.256 60.6874 32.6756 65.9377 36.919L68.452 33.808L70.9663 30.697C63.7579 24.871 53.7191 22.256 41.444 22.256V26.256ZM68.452 33.808L65.9377 36.919C71.1485 41.1304 73.796 46.7722 73.796 54.288H77.796H81.796C81.796 44.5665 78.2142 36.5549 70.9663 30.697L68.452 33.808ZM77.796 54.288H73.796C73.796 58.0298 73.1863 61.314 72.0341 64.1944L75.748 65.68L79.4619 67.1656C81.0404 63.2193 81.796 58.9088 81.796 54.288H77.796ZM75.748 65.68L72.0146 64.2441C70.9552 66.9985 69.3384 69.3945 67.1274 71.4629L69.86 74.384L72.5926 77.3051C75.6722 74.4242 77.9808 71.0175 79.4814 67.1159L75.748 65.68ZM69.86 74.384L67.1307 71.4598C65.0618 73.3908 62.3002 75.0089 58.7149 76.2294L60.004 80.016L61.2931 83.8026C65.7292 82.2924 69.5382 80.1559 72.5893 77.3082L69.86 74.384ZM60.004 80.016L58.7639 76.2131C55.3277 77.3336 51.1969 77.936 46.308 77.936V81.936V85.936C51.8298 85.936 56.8297 85.2584 61.2441 83.8189L60.004 80.016ZM46.308 81.936V77.936H37.22V81.936V85.936H46.308V81.936ZM37.22 81.936H33.22V105.488H37.22H41.22V81.936H37.22ZM88.969 18.32L86.1406 15.4916C86.1221 15.51 86.1038 15.5287 86.0857 15.5476L88.969 18.32ZM106.249 18.32L103.366 21.0924C103.384 21.1113 103.402 21.1299 103.421 21.1484L106.249 18.32ZM106.249 34.704L103.421 31.8756C103.402 31.8941 103.384 31.9127 103.366 31.9316L106.249 34.704ZM88.969 34.704L86.0857 37.4764C86.1038 37.4953 86.1221 37.5139 86.1406 37.5324L88.969 34.704ZM108.553 105.872L109.269 109.807C111.171 109.462 112.553 107.805 112.553 105.872H108.553ZM104.329 106.512L103.789 102.549C103.719 102.558 103.65 102.569 103.581 102.583L104.329 106.512ZM93.705 106.64L93.0099 110.579C93.0224 110.581 93.0349 110.583 93.0474 110.586L93.705 106.64ZM89.993 105.104L87.593 108.304V108.304L89.993 105.104ZM87.561 102.032L83.8157 103.436C83.8521 103.534 83.8924 103.629 83.9363 103.724L87.561 102.032ZM86.793 44.688L86.0775 40.7525C84.1755 41.0983 82.793 42.7549 82.793 44.688H86.793ZM90.889 44.048L91.4547 48.0078C91.5048 48.0006 91.5547 47.9925 91.6045 47.9835L90.889 44.048ZM101.513 43.92L100.818 47.8591C100.83 47.8613 100.843 47.8635 100.855 47.8656L101.513 43.92ZM105.353 45.456L102.953 48.656V48.656L105.353 45.456ZM107.657 48.656L103.912 50.0605C103.948 50.1577 103.988 50.2535 104.032 50.3475L107.657 48.656ZM85.769 26.512H89.769C89.769 24.2419 90.4768 22.523 91.8523 21.0924L88.969 18.32L86.0857 15.5476C83.1946 18.5543 81.769 22.2968 81.769 26.512H85.769ZM88.969 18.32L91.7974 21.1484C93.1574 19.7884 94.9859 18.992 97.673 18.992V14.992V10.992C93.1921 10.992 89.2179 12.4143 86.1406 15.4916L88.969 18.32ZM97.673 14.992V18.992C100.363 18.992 102.111 19.788 103.366 21.0924L106.249 18.32L109.132 15.5476C106.12 12.4146 102.151 10.992 97.673 10.992V14.992ZM106.249 18.32L103.421 21.1484C104.861 22.5893 105.577 24.2905 105.577 26.512H109.577H113.577C113.577 22.2481 112.074 18.488 109.077 15.4916L106.249 18.32ZM109.577 26.512H105.577C105.577 28.7335 104.861 30.4346 103.421 31.8756L106.249 34.704L109.077 37.5324C112.074 34.536 113.577 30.7759 113.577 26.512H109.577ZM106.249 34.704L103.366 31.9316C102.111 33.236 100.363 34.032 97.673 34.032V38.032V42.032C102.151 42.032 106.12 40.6094 109.132 37.4764L106.249 34.704ZM97.673 38.032V34.032C94.9859 34.032 93.1574 33.2356 91.7974 31.8756L88.969 34.704L86.1406 37.5324C89.2179 40.6097 93.1921 42.032 97.673 42.032V38.032ZM88.969 34.704L91.8523 31.9316C90.4768 30.501 89.769 28.7821 89.769 26.512H85.769H81.769C81.769 30.7272 83.1946 34.4697 86.0857 37.4764L88.969 34.704ZM108.553 105.872L107.837 101.937C106.989 102.091 105.652 102.295 103.789 102.549L104.329 106.512L104.869 110.475C106.76 110.217 108.24 109.995 109.269 109.807L108.553 105.872ZM104.329 106.512L103.581 102.583C102.042 102.876 100.458 103.024 98.825 103.024V107.024V111.024C100.946 111.024 103.032 110.831 105.077 110.441L104.329 106.512ZM98.825 107.024V103.024C97.1248 103.024 95.6424 102.908 94.3626 102.694L93.705 106.64L93.0474 110.586C94.8396 110.884 96.7706 111.024 98.825 111.024V107.024ZM93.705 106.64L94.4001 102.701C93.4743 102.537 92.8437 102.242 92.393 101.904L89.993 105.104L87.593 108.304C89.1903 109.502 91.0344 110.231 93.0099 110.579L93.705 106.64ZM89.993 105.104L92.393 101.904C91.9479 101.57 91.5344 101.088 91.1857 100.34L87.561 102.032L83.9363 103.724C84.7823 105.536 85.9901 107.102 87.593 108.304L89.993 105.104ZM87.561 102.032L91.3063 100.628C91.0215 99.8679 90.793 98.6397 90.793 96.784H86.793H82.793C82.793 99.195 83.0765 101.465 83.8157 103.436L87.561 102.032ZM86.793 96.784H90.793V44.688H86.793H82.793V96.784H86.793ZM86.793 44.688L87.5085 48.6235C88.3713 48.4666 89.6769 48.2618 91.4547 48.0078L90.889 44.048L90.3233 40.0882C88.5171 40.3462 87.092 40.5681 86.0775 40.7525L86.793 44.688ZM90.889 44.048L91.6045 47.9835C93.2497 47.6844 94.8875 47.536 96.521 47.536V43.536V39.536C94.3998 39.536 92.283 39.729 90.1735 40.1125L90.889 44.048ZM96.521 43.536V47.536C98.2253 47.536 99.649 47.6529 100.818 47.8591L101.513 43.92L102.208 39.9809C100.476 39.6751 98.5714 39.536 96.521 39.536V43.536ZM101.513 43.92L100.855 47.8656C101.895 48.0388 102.541 48.3471 102.953 48.656L105.353 45.456L107.753 42.256C106.117 41.0289 104.203 40.3132 102.171 39.9744L101.513 43.92ZM105.353 45.456L102.953 48.656C103.285 48.9048 103.629 49.3076 103.912 50.0605L107.657 48.656L111.402 47.2515C110.661 45.2737 109.469 43.5432 107.753 42.256L105.353 45.456ZM107.657 48.656L104.032 50.3475C104.289 50.8975 104.553 51.956 104.553 53.776H108.553H112.553C112.553 51.3293 112.22 48.9745 111.282 46.9645L107.657 48.656ZM108.553 53.776H104.553V105.872H108.553H112.553V53.776H108.553ZM146.342 89.36H142.342C142.342 91.2931 143.724 92.9497 145.626 93.2955L146.342 89.36ZM149.798 89.872L149.302 93.8411C149.384 93.8514 149.466 93.8591 149.548 93.8642L149.798 89.872ZM161.574 88.72L160.27 84.9385C160.256 84.9433 160.242 84.9481 160.229 84.953L161.574 88.72ZM167.846 84.752L165.018 81.9236C164.995 81.9466 164.972 81.9698 164.949 81.9934L167.846 84.752ZM171.942 77.84L168.17 76.5087C168.162 76.5308 168.155 76.5529 168.147 76.5751L171.942 77.84ZM168.102 50.192L165.148 52.8891C165.158 52.8999 165.168 52.9106 165.178 52.9213L168.102 50.192ZM150.054 44.432L149.788 40.4409C149.782 40.4413 149.775 40.4417 149.769 40.4422L150.054 44.432ZM146.342 44.816L145.813 40.8511C143.826 41.1161 142.342 42.8112 142.342 44.816H146.342ZM148.518 107.92L148.336 111.916V111.916L148.518 107.92ZM142.63 107.408L142.113 111.374C142.12 111.375 142.127 111.376 142.134 111.377L142.63 107.408ZM136.614 106.384L137.43 102.468C137.386 102.459 137.343 102.451 137.299 102.443L136.614 106.384ZM131.11 104.848L132.596 101.134C132.576 101.126 132.556 101.119 132.537 101.111L131.11 104.848ZM125.478 31.632L128.306 34.4604V34.4604L125.478 31.632ZM129.574 29.2L128.336 25.3965C128.308 25.4056 128.28 25.4149 128.253 25.4246L129.574 29.2ZM141.222 26.896L141.554 30.8822C141.582 30.8799 141.609 30.8773 141.636 30.8745L141.222 26.896ZM170.278 28.688L169.123 32.5176C169.129 32.5193 169.134 32.5209 169.14 32.5226L170.278 28.688ZM184.23 36.24L181.573 39.2296C181.596 39.2504 181.619 39.2708 181.643 39.291L184.23 36.24ZM193.318 48.912L189.626 50.4505V50.4505L193.318 48.912ZM193.446 85.008L197.151 86.5152C197.154 86.508 197.157 86.5008 197.16 86.4936L193.446 85.008ZM184.614 97.808L187.305 100.768L187.308 100.765L184.614 97.808ZM171.046 105.488L169.818 101.681L171.046 105.488ZM146.342 89.36L145.626 93.2955C146.662 93.4837 147.892 93.6649 149.302 93.8411L149.798 89.872L150.294 85.9029C148.973 85.7378 147.899 85.5776 147.058 85.4245L146.342 89.36ZM149.798 89.872L149.548 93.8642C150.985 93.954 152.349 94 153.638 94V90V86C152.537 86 151.341 85.9607 150.048 85.8798L149.798 89.872ZM153.638 90V94C156.933 94 160.041 93.5149 162.919 92.487L161.574 88.72L160.229 84.953C158.328 85.6318 156.146 86 153.638 86V90ZM161.574 88.72L162.878 92.5015C165.922 91.4519 168.569 89.7929 170.743 87.5106L167.846 84.752L164.949 81.9934C163.71 83.2951 162.176 84.2814 160.27 84.9385L161.574 88.72ZM167.846 84.752L170.674 87.5804C172.975 85.28 174.635 82.4094 175.737 79.1049L171.942 77.84L168.147 76.5751C167.371 78.9026 166.301 80.64 165.018 81.9236L167.846 84.752ZM171.942 77.84L175.714 79.1713C176.927 75.7348 177.478 71.806 177.478 67.472H173.478H169.478C169.478 71.1593 169.005 74.1426 168.17 76.5087L171.942 77.84ZM173.478 67.472H177.478C177.478 59.2414 175.563 52.3236 171.026 47.4627L168.102 50.192L165.178 52.9213C167.809 55.7404 169.478 60.3426 169.478 67.472H173.478ZM168.102 50.192L171.056 47.4949C166.616 42.6321 160.709 40.304 153.766 40.304V44.304V48.304C158.77 48.304 162.42 49.9012 165.148 52.8891L168.102 50.192ZM153.766 44.304V40.304C152.476 40.304 151.15 40.35 149.788 40.4409L150.054 44.432L150.32 48.4231C151.518 48.3433 152.666 48.304 153.766 48.304V44.304ZM150.054 44.432L149.769 40.4422C148.487 40.5337 147.168 40.6705 145.813 40.8511L146.342 44.816L146.871 48.7809C148.076 48.6202 149.232 48.5009 150.339 48.4218L150.054 44.432ZM146.342 44.816H142.342V89.36H146.342H150.342V44.816H146.342ZM153.51 108.048V104.048C152.134 104.048 150.533 104.007 148.7 103.924L148.518 107.92L148.336 111.916C150.258 112.003 151.984 112.048 153.51 112.048V108.048ZM148.518 107.92L148.7 103.924C146.937 103.844 145.08 103.683 143.126 103.439L142.63 107.408L142.134 111.377C144.276 111.645 146.344 111.825 148.336 111.916L148.518 107.92ZM142.63 107.408L143.147 103.442C141.29 103.199 139.385 102.875 137.43 102.468L136.614 106.384L135.798 110.3C137.939 110.746 140.044 111.105 142.113 111.374L142.63 107.408ZM136.614 106.384L137.299 102.443C135.588 102.146 134.024 101.705 132.596 101.134L131.11 104.848L129.624 108.562C131.61 109.356 133.715 109.94 135.929 110.325L136.614 106.384ZM131.11 104.848L132.537 101.111C130.693 100.407 129.632 99.5672 129.025 98.761C128.445 97.9911 128.07 96.9794 128.07 95.504H124.07H120.07C120.07 98.4659 120.869 101.23 122.635 103.575C124.375 105.883 126.834 107.497 129.683 108.585L131.11 104.848ZM124.07 95.504H128.07V35.728H124.07H120.07V95.504H124.07ZM124.07 35.728H128.07C128.07 35.172 128.144 34.8375 128.205 34.6603C128.259 34.5017 128.304 34.4628 128.306 34.4604L125.478 31.632L122.65 28.8036C120.728 30.725 120.07 33.257 120.07 35.728H124.07ZM125.478 31.632L128.306 34.4604C128.813 33.9534 129.618 33.4224 130.895 32.9754L129.574 29.2L128.253 25.4246C126.116 26.1723 124.191 27.2626 122.65 28.8036L125.478 31.632ZM129.574 29.2L130.812 33.0035C134.169 31.9105 137.746 31.1995 141.554 30.8822L141.222 26.896L140.89 22.9098C136.506 23.2752 132.317 24.1001 128.336 25.3965L129.574 29.2ZM141.222 26.896L141.636 30.8745C145.63 30.4585 149.157 30.256 152.23 30.256V26.256V22.256C148.818 22.256 145.006 22.4801 140.808 22.9175L141.222 26.896ZM152.23 26.256V30.256C158.565 30.256 164.183 31.0279 169.123 32.5176L170.278 28.688L171.433 24.8584C165.621 23.1054 159.207 22.256 152.23 22.256V26.256ZM170.278 28.688L169.14 32.5226C174.1 33.9953 178.217 36.2465 181.573 39.2296L184.23 36.24L186.887 33.2504C182.563 29.4068 177.378 26.6233 171.416 24.8534L170.278 28.688ZM184.23 36.24L181.643 39.291C185.048 42.1781 187.717 45.8685 189.626 50.4505L193.318 48.912L197.01 47.3735C194.653 41.7155 191.262 36.9579 186.817 33.189L184.23 36.24ZM193.318 48.912L189.626 50.4505C191.51 54.9736 192.518 60.4857 192.518 67.088H196.518H200.518C200.518 59.6956 199.392 53.0904 197.01 47.3735L193.318 48.912ZM196.518 67.088H192.518C192.518 73.5229 191.552 78.9727 189.732 83.5224L193.446 85.008L197.16 86.4936C199.436 80.8033 200.518 74.3064 200.518 67.088H196.518ZM193.446 85.008L189.741 83.5008C187.907 88.0092 185.299 91.773 181.92 94.8512L184.614 97.808L187.308 100.765C191.609 96.8457 194.889 92.0762 197.151 86.5152L193.446 85.008ZM184.614 97.808L181.923 94.8482C178.629 97.8429 174.619 100.133 169.818 101.681L171.046 105.488L172.274 109.295C178.055 107.43 183.089 104.6 187.305 100.768L184.614 97.808ZM171.046 105.488L169.818 101.681C164.979 103.242 159.555 104.048 153.51 104.048V108.048V112.048C160.265 112.048 166.532 111.147 172.274 109.295L171.046 105.488ZM226.472 106L225.184 109.787C225.214 109.797 225.244 109.807 225.275 109.817L226.472 106ZM215.208 99.6L212.546 102.585C212.559 102.597 212.572 102.609 212.585 102.62L215.208 99.6ZM207.656 88.976L203.968 90.5249C203.977 90.5457 203.986 90.5664 203.995 90.587L207.656 88.976ZM207.656 59.536L204.02 57.8694C204.014 57.881 204.009 57.8926 204.004 57.9042L207.656 59.536ZM214.952 49.552L217.555 52.589C217.572 52.5749 217.588 52.5607 217.604 52.5463L214.952 49.552ZM225.192 43.792L226.38 47.6114C226.406 47.6035 226.431 47.5952 226.457 47.5867L225.192 43.792ZM249.256 43.92L247.861 47.6689C247.87 47.6723 247.88 47.6758 247.889 47.6792L249.256 43.92ZM258.856 49.552L256.175 52.5204C256.19 52.5345 256.206 52.5485 256.222 52.5623L258.856 49.552ZM265.128 58.128L261.461 59.7263C261.473 59.7524 261.484 59.7784 261.496 59.8042L265.128 58.128ZM265 75.664L262.249 72.7602V72.7602L265 75.664ZM258.216 78.608L257.634 74.6505L257.623 74.6521L258.216 78.608ZM226.6 83.344L226.007 79.3881C224.839 79.5631 223.808 80.2456 223.19 81.2526C222.573 82.2597 222.432 83.4882 222.805 84.6089L226.6 83.344ZM232.36 89.744L230.571 93.3217C230.6 93.3359 230.628 93.3498 230.657 93.3633L232.36 89.744ZM252.2 90.512L253.271 94.3661C253.294 94.3596 253.317 94.353 253.34 94.3461L252.2 90.512ZM259.88 87.312L262 83.92C260.717 83.1184 259.092 83.1088 257.8 83.8952L259.88 87.312ZM263.336 90.896L266.749 88.8102V88.8102L263.336 90.896ZM259.368 104.336L257.512 100.793C257.505 100.796 257.498 100.8 257.491 100.804L259.368 104.336ZM250.152 107.28L249.559 103.324V103.324L250.152 107.28ZM231.592 58.768L229.967 55.1128C229.941 55.1245 229.915 55.1364 229.889 55.1487L231.592 58.768ZM228.008 61.456L230.957 64.1589C230.992 64.1199 231.027 64.0802 231.062 64.0398L228.008 61.456ZM225.832 65.04L222.087 63.6355C222.069 63.6817 222.053 63.7283 222.037 63.7751L225.832 65.04ZM225.064 69.008L221.072 68.7585C220.996 69.9736 221.477 71.1572 222.38 71.9741C223.283 72.791 224.509 73.1522 225.71 72.9554L225.064 69.008ZM246.952 65.424L247.598 69.3714C249.758 69.0178 251.232 66.9946 250.908 64.8306L246.952 65.424ZM244.136 60.304L247.036 57.549V57.549L244.136 60.304ZM240.552 108.048V104.048C235.882 104.048 231.596 103.415 227.669 102.183L226.472 106L225.275 109.817C230.052 111.315 235.153 112.048 240.552 112.048V108.048ZM226.472 106L227.76 102.213C223.959 100.921 220.663 99.0395 217.831 96.5799L215.208 99.6L212.585 102.62C216.238 105.792 220.452 108.178 225.184 109.787L226.472 106ZM215.208 99.6L217.87 96.6148C215.182 94.2174 212.988 91.1613 211.317 87.365L207.656 88.976L203.995 90.587C206.079 95.3241 208.919 99.3506 212.546 102.585L215.208 99.6ZM207.656 88.976L211.344 87.4271C209.8 83.7516 208.968 79.3069 208.968 74H204.968H200.968C200.968 80.1277 201.928 85.667 203.968 90.5249L207.656 88.976ZM204.968 74H208.968C208.968 68.7778 209.8 64.5419 211.308 61.1678L207.656 59.536L204.004 57.9042C201.928 62.5514 200.968 67.9582 200.968 74H204.968ZM207.656 59.536L211.292 61.2026C212.963 57.5564 215.068 54.7212 217.555 52.589L214.952 49.552L212.349 46.515C208.863 49.5028 206.103 53.3236 204.02 57.8694L207.656 59.536ZM214.952 49.552L217.604 52.5463C220.163 50.2797 223.077 48.6392 226.38 47.6114L225.192 43.792L224.004 39.9726C219.627 41.3341 215.714 43.5337 212.3 46.5576L214.952 49.552ZM225.192 43.792L226.457 47.5867C229.893 46.4414 233.391 45.872 236.968 45.872V41.872V37.872C232.523 37.872 228.171 38.5826 223.927 39.9973L225.192 43.792ZM236.968 41.872V45.872C241.087 45.872 244.702 46.4932 247.861 47.6689L249.256 43.92L250.651 40.1711C246.472 38.6161 241.894 37.872 236.968 37.872V41.872ZM249.256 43.92L247.889 47.6792C251.217 48.8894 253.956 50.5163 256.175 52.5204L258.856 49.552L261.537 46.5836C258.465 43.809 254.804 41.6813 250.623 40.1608L249.256 43.92ZM258.856 49.552L256.222 52.5623C258.508 54.5627 260.246 56.9391 261.461 59.7263L265.128 58.128L268.795 56.5297C267.108 52.6609 264.665 49.3199 261.49 46.5417L258.856 49.552ZM265.128 58.128L261.496 59.8042C262.773 62.57 263.432 65.6197 263.432 69.008H267.432H271.432C271.432 64.5456 270.555 60.3419 268.76 56.4518L265.128 58.128ZM267.432 69.008H263.432C263.432 71.1564 262.853 72.1881 262.249 72.7602L265 75.664L267.751 78.5678C270.39 76.0678 271.432 72.6623 271.432 69.008H267.432ZM265 75.664L262.249 72.7602C261.387 73.5769 259.974 74.3065 257.634 74.6506L258.216 78.608L258.798 82.5654C262.261 82.0562 265.37 80.8231 267.751 78.5678L265 75.664ZM258.216 78.608L257.623 74.6521L226.007 79.3881L226.6 83.344L227.193 87.2999L258.809 82.5639L258.216 78.608ZM226.6 83.344L222.805 84.6089C224.112 88.5297 226.818 91.4451 230.571 93.3217L232.36 89.744L234.149 86.1663C232.099 85.1416 230.965 83.7903 230.395 82.0791L226.6 83.344ZM232.36 89.744L230.657 93.3633C234.175 95.0187 238.1 95.792 242.344 95.792V91.792V87.792C239.078 87.792 236.348 87.2 234.063 86.1247L232.36 89.744ZM242.344 91.792V95.792C246.17 95.792 249.818 95.3251 253.271 94.3661L252.2 90.512L251.129 86.6579C248.438 87.4055 245.516 87.792 242.344 87.792V91.792ZM252.2 90.512L253.34 94.3461C256.698 93.3479 259.606 92.1613 261.96 90.7288L259.88 87.312L257.8 83.8952C256.228 84.8521 254.017 85.7987 251.06 86.6779L252.2 90.512ZM259.88 87.312L257.76 90.704C258.539 91.1911 259.269 91.9124 259.923 92.9818L263.336 90.896L266.749 88.8102C265.525 86.8075 263.951 85.1396 262 83.92L259.88 87.312ZM263.336 90.896L259.923 92.9818C260.5 93.9257 260.744 94.8303 260.744 95.76H264.744H268.744C268.744 93.2763 268.05 90.9383 266.749 88.8102L263.336 90.896ZM264.744 95.76H260.744C260.744 97.0349 260.455 97.9514 260.011 98.6595C259.56 99.379 258.802 100.117 257.512 100.793L259.368 104.336L261.224 107.879C263.518 106.677 265.448 105.048 266.789 102.909C268.137 100.758 268.744 98.3251 268.744 95.76H264.744ZM259.368 104.336L257.491 100.804C255.205 102.018 252.575 102.872 249.559 103.324L250.152 107.28L250.745 111.236C254.556 110.664 258.07 109.555 261.245 107.868L259.368 104.336ZM250.152 107.28L249.559 103.324C246.312 103.811 243.312 104.048 240.552 104.048V108.048V112.048C243.765 112.048 247.165 111.773 250.745 111.236L250.152 107.28ZM236.968 57.744V53.744C234.48 53.744 232.114 54.1588 229.967 55.1128L231.592 58.768L233.217 62.4232C234.142 62.0119 235.36 61.744 236.968 61.744V57.744ZM231.592 58.768L229.889 55.1487C227.973 56.0503 226.301 57.2814 224.954 58.8722L228.008 61.456L231.062 64.0398C231.593 63.4119 232.31 62.8511 233.295 62.3873L231.592 58.768ZM228.008 61.456L225.059 58.7531C223.757 60.1735 222.77 61.8145 222.087 63.6355L225.832 65.04L229.577 66.4445C229.918 65.5348 230.381 64.7865 230.957 64.1589L228.008 61.456ZM225.832 65.04L222.037 63.7751C221.5 65.3882 221.178 67.0524 221.072 68.7585L225.064 69.008L229.056 69.2575C229.12 68.2329 229.311 67.2518 229.627 66.3049L225.832 65.04ZM225.064 69.008L225.71 72.9554L247.598 69.3714L246.952 65.424L246.306 61.4766L224.418 65.0606L225.064 69.008ZM246.952 65.424L250.908 64.8306C250.493 62.0646 249.022 59.6391 247.036 57.549L244.136 60.304L241.236 63.059C242.493 64.3823 242.899 65.3701 242.996 66.0174L246.952 65.424ZM244.136 60.304L247.036 57.549C244.428 54.8037 240.833 53.744 236.968 53.744V57.744V61.744C239.418 61.744 240.601 62.3909 241.236 63.059L244.136 60.304ZM273.825 53.904L269.911 53.08C269.655 54.2937 269.977 55.5573 270.783 56.5008L273.825 53.904ZM277.793 45.968L274.965 43.1396C274.945 43.1596 274.925 43.1799 274.905 43.2004L277.793 45.968ZM296.993 50.704L293.806 53.1215L293.811 53.1282L296.993 50.704ZM305.185 61.456L302.003 63.8802C302.766 64.8818 303.957 65.4655 305.216 65.4559C306.475 65.4462 307.656 64.8442 308.404 63.8311L305.185 61.456ZM318.881 42.896V38.896C317.611 38.896 316.417 39.4991 315.662 40.5209L318.881 42.896ZM330.017 45.456L327.897 48.848C327.923 48.8641 327.949 48.8799 327.975 48.8954L330.017 45.456ZM333.601 55.184L329.842 53.817C329.816 53.8888 329.792 53.9614 329.77 54.0346L333.601 55.184ZM326.689 65.296L329.674 67.9585C329.727 67.8987 329.779 67.8374 329.829 67.7746L326.689 65.296ZM318.241 74.768L315.256 72.1055C313.984 73.5319 313.898 75.659 315.052 77.1827L318.241 74.768ZM335.009 96.912L338.975 97.4338C339.112 96.3909 338.833 95.3359 338.198 94.4973L335.009 96.912ZM331.169 104.592L328.526 101.589V101.589L331.169 104.592ZM323.489 107.408L323.384 111.407C323.419 111.408 323.454 111.408 323.489 111.408V107.408ZM315.681 104.592L312.919 107.485C312.94 107.506 312.962 107.526 312.984 107.546L315.681 104.592ZM310.177 98.064L313.454 95.7701L313.452 95.7673L310.177 98.064ZM303.265 88.208L306.54 85.9113C305.789 84.8408 304.563 84.2048 303.255 84.208C301.947 84.2113 300.724 84.8534 299.979 85.9277L303.265 88.208ZM290.209 107.024V111.024C291.52 111.024 292.748 110.381 293.495 109.304L290.209 107.024ZM288.801 107.024V103.024C288.581 103.024 288.361 103.042 288.143 103.078L288.801 107.024ZM277.537 104.464L275.024 107.576C275.043 107.591 275.062 107.606 275.081 107.621L277.537 104.464ZM275.617 92.432L272.235 90.296C272.225 90.3127 272.214 90.3294 272.204 90.3462L275.617 92.432ZM280.737 85.904L283.747 88.538C283.755 88.5296 283.762 88.5211 283.769 88.5125L280.737 85.904ZM290.977 74L294.009 76.6085C295.296 75.1132 295.3 72.9035 294.02 71.4032L290.977 74ZM273.825 53.904L277.739 54.728C278.294 52.0914 279.317 50.159 280.681 48.7356L277.793 45.968L274.905 43.2004C272.344 45.873 270.721 49.2313 269.911 53.08L273.825 53.904ZM277.793 45.968L280.621 48.7964C281.894 47.5243 283.382 46.896 285.345 46.896V42.896V38.896C281.334 38.896 277.788 40.3157 274.965 43.1396L277.793 45.968ZM285.345 42.896V46.896C287.546 46.896 288.645 47.4263 289.216 47.9336L291.873 44.944L294.53 41.9544C292.029 39.731 288.776 38.896 285.345 38.896V42.896ZM291.873 44.944L289.216 47.9336C290.485 49.0622 292.015 50.7606 293.806 53.1215L296.993 50.704L300.18 48.2865C298.216 45.6981 296.333 43.5564 294.53 41.9544L291.873 44.944ZM296.993 50.704L293.811 53.1282L302.003 63.8802L305.185 61.456L308.367 59.0318L300.175 48.2798L296.993 50.704ZM305.185 61.456L308.404 63.8311L322.1 45.2711L318.881 42.896L315.662 40.5209L301.966 59.0809L305.185 61.456ZM318.881 42.896V46.896C323.148 46.896 326.03 47.6808 327.897 48.848L330.017 45.456L332.137 42.064C328.543 39.8178 324.001 38.896 318.881 38.896V42.896ZM330.017 45.456L327.975 48.8954C329.677 49.9063 330.113 50.9109 330.113 52.112H334.113H338.113C338.113 47.6811 335.818 44.2484 332.059 42.0166L330.017 45.456ZM334.113 52.112H330.113C330.113 52.8064 330.007 53.3623 329.842 53.817L333.601 55.184L337.36 56.551C337.877 55.1284 338.113 53.6362 338.113 52.112H334.113ZM333.601 55.184L329.77 54.0346C329.642 54.4612 329.393 55.0225 328.946 55.7245L332.321 57.872L335.696 60.0195C336.444 58.8442 337.048 57.6135 337.432 56.3334L333.601 55.184ZM332.321 57.872L328.946 55.7245C328.44 56.5196 327.756 57.4754 326.872 58.6007L330.017 61.072L333.162 63.5433C334.155 62.2793 335.007 61.1017 335.696 60.0195L332.321 57.872ZM330.017 61.072L326.872 58.6007C325.936 59.7923 324.828 61.1977 323.549 62.8174L326.689 65.296L329.829 67.7746C331.11 66.1516 332.221 64.7411 333.162 63.5433L330.017 61.072ZM326.689 65.296L323.704 62.6335L315.256 72.1055L318.241 74.768L321.226 77.4305L329.674 67.9585L326.689 65.296ZM318.241 74.768L315.052 77.1827L331.82 99.3267L335.009 96.912L338.198 94.4973L321.43 72.3533L318.241 74.768ZM335.009 96.912L331.043 96.3902C330.723 98.8269 329.824 100.447 328.526 101.589L331.169 104.592L333.812 107.595C336.78 104.982 338.442 101.482 338.975 97.4338L335.009 96.912ZM331.169 104.592L328.526 101.589C327.163 102.789 325.557 103.408 323.489 103.408V107.408V111.408C327.394 111.408 330.908 110.15 333.812 107.595L331.169 104.592ZM323.489 107.408L323.594 103.409C321.092 103.344 319.483 102.647 318.378 101.638L315.681 104.592L312.984 107.546C315.805 110.121 319.401 111.302 323.384 111.407L323.489 107.408ZM315.681 104.592L318.443 101.699C316.791 100.121 315.124 98.156 313.454 95.7701L310.177 98.064L306.9 100.358C308.814 103.092 310.817 105.479 312.919 107.485L315.681 104.592ZM310.177 98.064L313.452 95.7673L306.54 85.9113L303.265 88.208L299.99 90.5047L306.902 100.361L310.177 98.064ZM303.265 88.208L299.979 85.9277L286.923 104.744L290.209 107.024L293.495 109.304L306.551 90.4883L303.265 88.208ZM290.209 107.024V103.024C290.208 103.024 290.207 103.024 290.207 103.024C290.206 103.024 290.205 103.024 290.204 103.024C290.203 103.024 290.202 103.024 290.202 103.024C290.201 103.024 290.2 103.024 290.199 103.024C290.198 103.024 290.197 103.024 290.197 103.024C290.196 103.024 290.195 103.024 290.194 103.024C290.193 103.024 290.192 103.024 290.191 103.024C290.191 103.024 290.19 103.024 290.189 103.024C290.188 103.024 290.187 103.024 290.186 103.024C290.186 103.024 290.185 103.024 290.184 103.024C290.183 103.024 290.182 103.024 290.181 103.024C290.181 103.024 290.18 103.024 290.179 103.024C290.178 103.024 290.177 103.024 290.176 103.024C290.176 103.024 290.175 103.024 290.174 103.024C290.173 103.024 290.172 103.024 290.171 103.024C290.171 103.024 290.17 103.024 290.169 103.024C290.168 103.024 290.167 103.024 290.166 103.024C290.166 103.024 290.165 103.024 290.164 103.024C290.163 103.024 290.162 103.024 290.161 103.024C290.16 103.024 290.16 103.024 290.159 103.024C290.158 103.024 290.157 103.024 290.156 103.024C290.155 103.024 290.155 103.024 290.154 103.024C290.153 103.024 290.152 103.024 290.151 103.024C290.15 103.024 290.15 103.024 290.149 103.024C290.148 103.024 290.147 103.024 290.146 103.024C290.145 103.024 290.145 103.024 290.144 103.024C290.143 103.024 290.142 103.024 290.141 103.024C290.14 103.024 290.139 103.024 290.139 103.024C290.138 103.024 290.137 103.024 290.136 103.024C290.135 103.024 290.134 103.024 290.134 103.024C290.133 103.024 290.132 103.024 290.131 103.024C290.13 103.024 290.129 103.024 290.129 103.024C290.128 103.024 290.127 103.024 290.126 103.024C290.125 103.024 290.124 103.024 290.123 103.024C290.123 103.024 290.122 103.024 290.121 103.024C290.12 103.024 290.119 103.024 290.118 103.024C290.118 103.024 290.117 103.024 290.116 103.024C290.115 103.024 290.114 103.024 290.113 103.024C290.112 103.024 290.112 103.024 290.111 103.024C290.11 103.024 290.109 103.024 290.108 103.024C290.107 103.024 290.107 103.024 290.106 103.024C290.105 103.024 290.104 103.024 290.103 103.024C290.102 103.024 290.101 103.024 290.101 103.024C290.1 103.024 290.099 103.024 290.098 103.024C290.097 103.024 290.096 103.024 290.096 103.024C290.095 103.024 290.094 103.024 290.093 103.024C290.092 103.024 290.091 103.024 290.09 103.024C290.09 103.024 290.089 103.024 290.088 103.024C290.087 103.024 290.086 103.024 290.085 103.024C290.084 103.024 290.084 103.024 290.083 103.024C290.082 103.024 290.081 103.024 290.08 103.024C290.079 103.024 290.079 103.024 290.078 103.024C290.077 103.024 290.076 103.024 290.075 103.024C290.074 103.024 290.073 103.024 290.073 103.024C290.072 103.024 290.071 103.024 290.07 103.024C290.069 103.024 290.068 103.024 290.067 103.024C290.067 103.024 290.066 103.024 290.065 103.024C290.064 103.024 290.063 103.024 290.062 103.024C290.061 103.024 290.061 103.024 290.06 103.024C290.059 103.024 290.058 103.024 290.057 103.024C290.056 103.024 290.056 103.024 290.055 103.024C290.054 103.024 290.053 103.024 290.052 103.024C290.051 103.024 290.05 103.024 290.05 103.024C290.049 103.024 290.048 103.024 290.047 103.024C290.046 103.024 290.045 103.024 290.044 103.024C290.044 103.024 290.043 103.024 290.042 103.024C290.041 103.024 290.04 103.024 290.039 103.024C290.038 103.024 290.038 103.024 290.037 103.024C290.036 103.024 290.035 103.024 290.034 103.024C290.033 103.024 290.032 103.024 290.032 103.024C290.031 103.024 290.03 103.024 290.029 103.024C290.028 103.024 290.027 103.024 290.026 103.024C290.026 103.024 290.025 103.024 290.024 103.024C290.023 103.024 290.022 103.024 290.021 103.024C290.02 103.024 290.02 103.024 290.019 103.024C290.018 103.024 290.017 103.024 290.016 103.024C290.015 103.024 290.014 103.024 290.014 103.024C290.013 103.024 290.012 103.024 290.011 103.024C290.01 103.024 290.009 103.024 290.008 103.024C290.008 103.024 290.007 103.024 290.006 103.024C290.005 103.024 290.004 103.024 290.003 103.024C290.002 103.024 290.002 103.024 290.001 103.024C290 103.024 289.999 103.024 289.998 103.024C289.997 103.024 289.996 103.024 289.996 103.024C289.995 103.024 289.994 103.024 289.993 103.024C289.992 103.024 289.991 103.024 289.99 103.024C289.99 103.024 289.989 103.024 289.988 103.024C289.987 103.024 289.986 103.024 289.985 103.024C289.984 103.024 289.983 103.024 289.983 103.024C289.982 103.024 289.981 103.024 289.98 103.024C289.979 103.024 289.978 103.024 289.977 103.024C289.977 103.024 289.976 103.024 289.975 103.024C289.974 103.024 289.973 103.024 289.972 103.024C289.971 103.024 289.971 103.024 289.97 103.024C289.969 103.024 289.968 103.024 289.967 103.024C289.966 103.024 289.965 103.024 289.965 103.024C289.964 103.024 289.963 103.024 289.962 103.024C289.961 103.024 289.96 103.024 289.959 103.024C289.958 103.024 289.958 103.024 289.957 103.024C289.956 103.024 289.955 103.024 289.954 103.024C289.953 103.024 289.952 103.024 289.952 103.024C289.951 103.024 289.95 103.024 289.949 103.024C289.948 103.024 289.947 103.024 289.946 103.024C289.945 103.024 289.945 103.024 289.944 103.024C289.943 103.024 289.942 103.024 289.941 103.024C289.94 103.024 289.939 103.024 289.939 103.024C289.938 103.024 289.937 103.024 289.936 103.024C289.935 103.024 289.934 103.024 289.933 103.024C289.932 103.024 289.932 103.024 289.931 103.024C289.93 103.024 289.929 103.024 289.928 103.024C289.927 103.024 289.926 103.024 289.925 103.024C289.925 103.024 289.924 103.024 289.923 103.024C289.922 103.024 289.921 103.024 289.92 103.024C289.919 103.024 289.919 103.024 289.918 103.024C289.917 103.024 289.916 103.024 289.915 103.024C289.914 103.024 289.913 103.024 289.912 103.024C289.912 103.024 289.911 103.024 289.91 103.024C289.909 103.024 289.908 103.024 289.907 103.024C289.906 103.024 289.905 103.024 289.905 103.024C289.904 103.024 289.903 103.024 289.902 103.024C289.901 103.024 289.9 103.024 289.899 103.024C289.898 103.024 289.898 103.024 289.897 103.024C289.896 103.024 289.895 103.024 289.894 103.024C289.893 103.024 289.892 103.024 289.891 103.024C289.891 103.024 289.89 103.024 289.889 103.024C289.888 103.024 289.887 103.024 289.886 103.024C289.885 103.024 289.884 103.024 289.884 103.024C289.883 103.024 289.882 103.024 289.881 103.024C289.88 103.024 289.879 103.024 289.878 103.024C289.878 103.024 289.877 103.024 289.876 103.024C289.875 103.024 289.874 103.024 289.873 103.024C289.872 103.024 289.871 103.024 289.87 103.024C289.87 103.024 289.869 103.024 289.868 103.024C289.867 103.024 289.866 103.024 289.865 103.024C289.864 103.024 289.863 103.024 289.863 103.024C289.862 103.024 289.861 103.024 289.86 103.024C289.859 103.024 289.858 103.024 289.857 103.024C289.856 103.024 289.856 103.024 289.855 103.024C289.854 103.024 289.853 103.024 289.852 103.024C289.851 103.024 289.85 103.024 289.849 103.024C289.849 103.024 289.848 103.024 289.847 103.024C289.846 103.024 289.845 103.024 289.844 103.024C289.843 103.024 289.842 103.024 289.842 103.024C289.841 103.024 289.84 103.024 289.839 103.024C289.838 103.024 289.837 103.024 289.836 103.024C289.835 103.024 289.834 103.024 289.834 103.024C289.833 103.024 289.832 103.024 289.831 103.024C289.83 103.024 289.829 103.024 289.828 103.024C289.827 103.024 289.827 103.024 289.826 103.024C289.825 103.024 289.824 103.024 289.823 103.024C289.822 103.024 289.821 103.024 289.82 103.024C289.819 103.024 289.819 103.024 289.818 103.024C289.817 103.024 289.816 103.024 289.815 103.024C289.814 103.024 289.813 103.024 289.812 103.024C289.812 103.024 289.811 103.024 289.81 103.024C289.809 103.024 289.808 103.024 289.807 103.024C289.806 103.024 289.805 103.024 289.804 103.024C289.804 103.024 289.803 103.024 289.802 103.024C289.801 103.024 289.8 103.024 289.799 103.024C289.798 103.024 289.797 103.024 289.797 103.024C289.796 103.024 289.795 103.024 289.794 103.024C289.793 103.024 289.792 103.024 289.791 103.024C289.79 103.024 289.789 103.024 289.789 103.024C289.788 103.024 289.787 103.024 289.786 103.024C289.785 103.024 289.784 103.024 289.783 103.024C289.782 103.024 289.781 103.024 289.781 103.024C289.78 103.024 289.779 103.024 289.778 103.024C289.777 103.024 289.776 103.024 289.775 103.024C289.774 103.024 289.773 103.024 289.773 103.024C289.772 103.024 289.771 103.024 289.77 103.024C289.769 103.024 289.768 103.024 289.767 103.024C289.766 103.024 289.765 103.024 289.765 103.024C289.764 103.024 289.763 103.024 289.762 103.024C289.761 103.024 289.76 103.024 289.759 103.024C289.758 103.024 289.757 103.024 289.757 103.024C289.756 103.024 289.755 103.024 289.754 103.024C289.753 103.024 289.752 103.024 289.751 103.024C289.75 103.024 289.749 103.024 289.749 103.024C289.748 103.024 289.747 103.024 289.746 103.024C289.745 103.024 289.744 103.024 289.743 103.024C289.742 103.024 289.741 103.024 289.741 103.024C289.74 103.024 289.739 103.024 289.738 103.024C289.737 103.024 289.736 103.024 289.735 103.024C289.734 103.024 289.733 103.024 289.732 103.024C289.732 103.024 289.731 103.024 289.73 103.024C289.729 103.024 289.728 103.024 289.727 103.024C289.726 103.024 289.725 103.024 289.724 103.024C289.724 103.024 289.723 103.024 289.722 103.024C289.721 103.024 289.72 103.024 289.719 103.024C289.718 103.024 289.717 103.024 289.716 103.024C289.715 103.024 289.715 103.024 289.714 103.024C289.713 103.024 289.712 103.024 289.711 103.024C289.71 103.024 289.709 103.024 289.708 103.024C289.707 103.024 289.707 103.024 289.706 103.024C289.705 103.024 289.704 103.024 289.703 103.024C289.702 103.024 289.701 103.024 289.7 103.024C289.699 103.024 289.698 103.024 289.698 103.024C289.697 103.024 289.696 103.024 289.695 103.024C289.694 103.024 289.693 103.024 289.692 103.024C289.691 103.024 289.69 103.024 289.689 103.024C289.689 103.024 289.688 103.024 289.687 103.024C289.686 103.024 289.685 103.024 289.684 103.024C289.683 103.024 289.682 103.024 289.681 103.024C289.68 103.024 289.68 103.024 289.679 103.024C289.678 103.024 289.677 103.024 289.676 103.024C289.675 103.024 289.674 103.024 289.673 103.024C289.672 103.024 289.671 103.024 289.671 103.024C289.67 103.024 289.669 103.024 289.668 103.024C289.667 103.024 289.666 103.024 289.665 103.024C289.664 103.024 289.663 103.024 289.662 103.024C289.662 103.024 289.661 103.024 289.66 103.024C289.659 103.024 289.658 103.024 289.657 103.024C289.656 103.024 289.655 103.024 289.654 103.024C289.653 103.024 289.653 103.024 289.652 103.024C289.651 103.024 289.65 103.024 289.649 103.024C289.648 103.024 289.647 103.024 289.646 103.024C289.645 103.024 289.644 103.024 289.643 103.024C289.643 103.024 289.642 103.024 289.641 103.024C289.64 103.024 289.639 103.024 289.638 103.024C289.637 103.024 289.636 103.024 289.635 103.024C289.634 103.024 289.634 103.024 289.633 103.024C289.632 103.024 289.631 103.024 289.63 103.024C289.629 103.024 289.628 103.024 289.627 103.024C289.626 103.024 289.625 103.024 289.625 103.024C289.624 103.024 289.623 103.024 289.622 103.024C289.621 103.024 289.62 103.024 289.619 103.024C289.618 103.024 289.617 103.024 289.616 103.024C289.615 103.024 289.615 103.024 289.614 103.024C289.613 103.024 289.612 103.024 289.611 103.024C289.61 103.024 289.609 103.024 289.608 103.024C289.607 103.024 289.606 103.024 289.605 103.024C289.605 103.024 289.604 103.024 289.603 103.024C289.602 103.024 289.601 103.024 289.6 103.024C289.599 103.024 289.598 103.024 289.597 103.024C289.596 103.024 289.595 103.024 289.595 103.024C289.594 103.024 289.593 103.024 289.592 103.024C289.591 103.024 289.59 103.024 289.589 103.024C289.588 103.024 289.587 103.024 289.586 103.024C289.585 103.024 289.585 103.024 289.584 103.024C289.583 103.024 289.582 103.024 289.581 103.024C289.58 103.024 289.579 103.024 289.578 103.024C289.577 103.024 289.576 103.024 289.575 103.024C289.574 103.024 289.574 103.024 289.573 103.024C289.572 103.024 289.571 103.024 289.57 103.024C289.569 103.024 289.568 103.024 289.567 103.024C289.566 103.024 289.565 103.024 289.564 103.024C289.564 103.024 289.563 103.024 289.562 103.024C289.561 103.024 289.56 103.024 289.559 103.024C289.558 103.024 289.557 103.024 289.556 103.024C289.555 103.024 289.554 103.024 289.553 103.024C289.553 103.024 289.552 103.024 289.551 103.024C289.55 103.024 289.549 103.024 289.548 103.024C289.547 103.024 289.546 103.024 289.545 103.024C289.544 103.024 289.543 103.024 289.543 103.024C289.542 103.024 289.541 103.024 289.54 103.024C289.539 103.024 289.538 103.024 289.537 103.024C289.536 103.024 289.535 103.024 289.534 103.024C289.533 103.024 289.532 103.024 289.531 103.024C289.531 103.024 289.53 103.024 289.529 103.024C289.528 103.024 289.527 103.024 289.526 103.024C289.525 103.024 289.524 103.024 289.523 103.024C289.522 103.024 289.521 103.024 289.52 103.024C289.52 103.024 289.519 103.024 289.518 103.024C289.517 103.024 289.516 103.024 289.515 103.024C289.514 103.024 289.513 103.024 289.512 103.024C289.511 103.024 289.51 103.024 289.509 103.024C289.509 103.024 289.508 103.024 289.507 103.024C289.506 103.024 289.505 103.024 289.504 103.024C289.503 103.024 289.502 103.024 289.501 103.024C289.5 103.024 289.499 103.024 289.498 103.024C289.497 103.024 289.497 103.024 289.496 103.024C289.495 103.024 289.494 103.024 289.493 103.024C289.492 103.024 289.491 103.024 289.49 103.024C289.489 103.024 289.488 103.024 289.487 103.024C289.486 103.024 289.486 103.024 289.485 103.024C289.484 103.024 289.483 103.024 289.482 103.024C289.481 103.024 289.48 103.024 289.479 103.024C289.478 103.024 289.477 103.024 289.476 103.024C289.475 103.024 289.474 103.024 289.473 103.024C289.473 103.024 289.472 103.024 289.471 103.024C289.47 103.024 289.469 103.024 289.468 103.024C289.467 103.024 289.466 103.024 289.465 103.024C289.464 103.024 289.463 103.024 289.462 103.024C289.461 103.024 289.461 103.024 289.46 103.024C289.459 103.024 289.458 103.024 289.457 103.024C289.456 103.024 289.455 103.024 289.454 103.024C289.453 103.024 289.452 103.024 289.451 103.024C289.45 103.024 289.449 103.024 289.448 103.024C289.448 103.024 289.447 103.024 289.446 103.024C289.445 103.024 289.444 103.024 289.443 103.024C289.442 103.024 289.441 103.024 289.44 103.024C289.439 103.024 289.438 103.024 289.437 103.024C289.436 103.024 289.436 103.024 289.435 103.024C289.434 103.024 289.433 103.024 289.432 103.024C289.431 103.024 289.43 103.024 289.429 103.024C289.428 103.024 289.427 103.024 289.426 103.024C289.425 103.024 289.424 103.024 289.423 103.024C289.422 103.024 289.422 103.024 289.421 103.024C289.42 103.024 289.419 103.024 289.418 103.024C289.417 103.024 289.416 103.024 289.415 103.024C289.414 103.024 289.413 103.024 289.412 103.024C289.411 103.024 289.41 103.024 289.409 103.024C289.409 103.024 289.408 103.024 289.407 103.024C289.406 103.024 289.405 103.024 289.404 103.024C289.403 103.024 289.402 103.024 289.401 103.024C289.4 103.024 289.399 103.024 289.398 103.024C289.397 103.024 289.396 103.024 289.395 103.024C289.395 103.024 289.394 103.024 289.393 103.024C289.392 103.024 289.391 103.024 289.39 103.024C289.389 103.024 289.388 103.024 289.387 103.024C289.386 103.024 289.385 103.024 289.384 103.024C289.383 103.024 289.382 103.024 289.381 103.024C289.381 103.024 289.38 103.024 289.379 103.024C289.378 103.024 289.377 103.024 289.376 103.024C289.375 103.024 289.374 103.024 289.373 103.024C289.372 103.024 289.371 103.024 289.37 103.024C289.369 103.024 289.368 103.024 289.367 103.024C289.366 103.024 289.366 103.024 289.365 103.024C289.364 103.024 289.363 103.024 289.362 103.024C289.361 103.024 289.36 103.024 289.359 103.024C289.358 103.024 289.357 103.024 289.356 103.024C289.355 103.024 289.354 103.024 289.353 103.024C289.352 103.024 289.352 103.024 289.351 103.024C289.35 103.024 289.349 103.024 289.348 103.024C289.347 103.024 289.346 103.024 289.345 103.024C289.344 103.024 289.343 103.024 289.342 103.024C289.341 103.024 289.34 103.024 289.339 103.024C289.338 103.024 289.337 103.024 289.336 103.024C289.336 103.024 289.335 103.024 289.334 103.024C289.333 103.024 289.332 103.024 289.331 103.024C289.33 103.024 289.329 103.024 289.328 103.024C289.327 103.024 289.326 103.024 289.325 103.024C289.324 103.024 289.323 103.024 289.322 103.024C289.321 103.024 289.32 103.024 289.32 103.024C289.319 103.024 289.318 103.024 289.317 103.024C289.316 103.024 289.315 103.024 289.314 103.024C289.313 103.024 289.312 103.024 289.311 103.024C289.31 103.024 289.309 103.024 289.308 103.024C289.307 103.024 289.306 103.024 289.305 103.024C289.304 103.024 289.303 103.024 289.303 103.024C289.302 103.024 289.301 103.024 289.3 103.024C289.299 103.024 289.298 103.024 289.297 103.024C289.296 103.024 289.295 103.024 289.294 103.024C289.293 103.024 289.292 103.024 289.291 103.024C289.29 103.024 289.289 103.024 289.288 103.024C289.287 103.024 289.286 103.024 289.286 103.024C289.285 103.024 289.284 103.024 289.283 103.024C289.282 103.024 289.281 103.024 289.28 103.024C289.279 103.024 289.278 103.024 289.277 103.024C289.276 103.024 289.275 103.024 289.274 103.024C289.273 103.024 289.272 103.024 289.271 103.024C289.27 103.024 289.269 103.024 289.268 103.024C289.268 103.024 289.267 103.024 289.266 103.024C289.265 103.024 289.264 103.024 289.263 103.024C289.262 103.024 289.261 103.024 289.26 103.024C289.259 103.024 289.258 103.024 289.257 103.024C289.256 103.024 289.255 103.024 289.254 103.024C289.253 103.024 289.252 103.024 289.251 103.024C289.25 103.024 289.25 103.024 289.249 103.024C289.248 103.024 289.247 103.024 289.246 103.024C289.245 103.024 289.244 103.024 289.243 103.024C289.242 103.024 289.241 103.024 289.24 103.024C289.239 103.024 289.238 103.024 289.237 103.024C289.236 103.024 289.235 103.024 289.234 103.024C289.233 103.024 289.232 103.024 289.231 103.024C289.23 103.024 289.23 103.024 289.229 103.024C289.228 103.024 289.227 103.024 289.226 103.024C289.225 103.024 289.224 103.024 289.223 103.024C289.222 103.024 289.221 103.024 289.22 103.024C289.219 103.024 289.218 103.024 289.217 103.024C289.216 103.024 289.215 103.024 289.214 103.024C289.213 103.024 289.212 103.024 289.211 103.024C289.21 103.024 289.21 103.024 289.209 103.024C289.208 103.024 289.207 103.024 289.206 103.024C289.205 103.024 289.204 103.024 289.203 103.024C289.202 103.024 289.201 103.024 289.2 103.024C289.199 103.024 289.198 103.024 289.197 103.024C289.196 103.024 289.195 103.024 289.194 103.024C289.193 103.024 289.192 103.024 289.191 103.024C289.19 103.024 289.189 103.024 289.188 103.024C289.188 103.024 289.187 103.024 289.186 103.024C289.185 103.024 289.184 103.024 289.183 103.024C289.182 103.024 289.181 103.024 289.18 103.024C289.179 103.024 289.178 103.024 289.177 103.024C289.176 103.024 289.175 103.024 289.174 103.024C289.173 103.024 289.172 103.024 289.171 103.024C289.17 103.024 289.169 103.024 289.168 103.024C289.167 103.024 289.166 103.024 289.165 103.024C289.165 103.024 289.164 103.024 289.163 103.024C289.162 103.024 289.161 103.024 289.16 103.024C289.159 103.024 289.158 103.024 289.157 103.024C289.156 103.024 289.155 103.024 289.154 103.024C289.153 103.024 289.152 103.024 289.151 103.024C289.15 103.024 289.149 103.024 289.148 103.024C289.147 103.024 289.146 103.024 289.145 103.024C289.144 103.024 289.143 103.024 289.142 103.024C289.141 103.024 289.141 103.024 289.14 103.024C289.139 103.024 289.138 103.024 289.137 103.024C289.136 103.024 289.135 103.024 289.134 103.024C289.133 103.024 289.132 103.024 289.131 103.024C289.13 103.024 289.129 103.024 289.128 103.024C289.127 103.024 289.126 103.024 289.125 103.024C289.124 103.024 289.123 103.024 289.122 103.024C289.121 103.024 289.12 103.024 289.119 103.024C289.118 103.024 289.117 103.024 289.116 103.024C289.115 103.024 289.114 103.024 289.114 103.024C289.113 103.024 289.112 103.024 289.111 103.024C289.11 103.024 289.109 103.024 289.108 103.024C289.107 103.024 289.106 103.024 289.105 103.024C289.104 103.024 289.103 103.024 289.102 103.024C289.101 103.024 289.1 103.024 289.099 103.024C289.098 103.024 289.097 103.024 289.096 103.024C289.095 103.024 289.094 103.024 289.093 103.024C289.092 103.024 289.091 103.024 289.09 103.024C289.089 103.024 289.088 103.024 289.087 103.024C289.086 103.024 289.085 103.024 289.085 103.024C289.084 103.024 289.083 103.024 289.082 103.024C289.081 103.024 289.08 103.024 289.079 103.024C289.078 103.024 289.077 103.024 289.076 103.024C289.075 103.024 289.074 103.024 289.073 103.024C289.072 103.024 289.071 103.024 289.07 103.024C289.069 103.024 289.068 103.024 289.067 103.024C289.066 103.024 289.065 103.024 289.064 103.024C289.063 103.024 289.062 103.024 289.061 103.024C289.06 103.024 289.059 103.024 289.058 103.024C289.057 103.024 289.056 103.024 289.055 103.024C289.054 103.024 289.053 103.024 289.052 103.024C289.052 103.024 289.051 103.024 289.05 103.024C289.049 103.024 289.048 103.024 289.047 103.024C289.046 103.024 289.045 103.024 289.044 103.024C289.043 103.024 289.042 103.024 289.041 103.024C289.04 103.024 289.039 103.024 289.038 103.024C289.037 103.024 289.036 103.024 289.035 103.024C289.034 103.024 289.033 103.024 289.032 103.024C289.031 103.024 289.03 103.024 289.029 103.024C289.028 103.024 289.027 103.024 289.026 103.024C289.025 103.024 289.024 103.024 289.023 103.024C289.022 103.024 289.021 103.024 289.02 103.024C289.019 103.024 289.018 103.024 289.017 103.024C289.016 103.024 289.015 103.024 289.014 103.024C289.013 103.024 289.013 103.024 289.012 103.024C289.011 103.024 289.01 103.024 289.009 103.024C289.008 103.024 289.007 103.024 289.006 103.024C289.005 103.024 289.004 103.024 289.003 103.024C289.002 103.024 289.001 103.024 289 103.024C288.999 103.024 288.998 103.024 288.997 103.024C288.996 103.024 288.995 103.024 288.994 103.024C288.993 103.024 288.992 103.024 288.991 103.024C288.99 103.024 288.989 103.024 288.988 103.024C288.987 103.024 288.986 103.024 288.985 103.024C288.984 103.024 288.983 103.024 288.982 103.024C288.981 103.024 288.98 103.024 288.979 103.024C288.978 103.024 288.977 103.024 288.976 103.024C288.975 103.024 288.974 103.024 288.973 103.024C288.972 103.024 288.971 103.024 288.97 103.024C288.969 103.024 288.968 103.024 288.967 103.024C288.966 103.024 288.966 103.024 288.965 103.024C288.964 103.024 288.963 103.024 288.962 103.024C288.961 103.024 288.96 103.024 288.959 103.024C288.958 103.024 288.957 103.024 288.956 103.024C288.955 103.024 288.954 103.024 288.953 103.024C288.952 103.024 288.951 103.024 288.95 103.024C288.949 103.024 288.948 103.024 288.947 103.024C288.946 103.024 288.945 103.024 288.944 103.024C288.943 103.024 288.942 103.024 288.941 103.024C288.94 103.024 288.939 103.024 288.938 103.024C288.937 103.024 288.936 103.024 288.935 103.024C288.934 103.024 288.933 103.024 288.932 103.024C288.931 103.024 288.93 103.024 288.929 103.024C288.928 103.024 288.927 103.024 288.926 103.024C288.925 103.024 288.924 103.024 288.923 103.024C288.922 103.024 288.921 103.024 288.92 103.024C288.919 103.024 288.918 103.024 288.917 103.024C288.916 103.024 288.915 103.024 288.914 103.024C288.913 103.024 288.912 103.024 288.911 103.024C288.91 103.024 288.909 103.024 288.908 103.024C288.907 103.024 288.906 103.024 288.905 103.024C288.904 103.024 288.903 103.024 288.902 103.024C288.901 103.024 288.9 103.024 288.899 103.024C288.898 103.024 288.897 103.024 288.896 103.024C288.896 103.024 288.895 103.024 288.894 103.024C288.893 103.024 288.892 103.024 288.891 103.024C288.89 103.024 288.889 103.024 288.888 103.024C288.887 103.024 288.886 103.024 288.885 103.024C288.884 103.024 288.883 103.024 288.882 103.024C288.881 103.024 288.88 103.024 288.879 103.024C288.878 103.024 288.877 103.024 288.876 103.024C288.875 103.024 288.874 103.024 288.873 103.024C288.872 103.024 288.871 103.024 288.87 103.024C288.869 103.024 288.868 103.024 288.867 103.024C288.866 103.024 288.865 103.024 288.864 103.024C288.863 103.024 288.862 103.024 288.861 103.024C288.86 103.024 288.859 103.024 288.858 103.024C288.857 103.024 288.856 103.024 288.855 103.024C288.854 103.024 288.853 103.024 288.852 103.024C288.851 103.024 288.85 103.024 288.849 103.024C288.848 103.024 288.847 103.024 288.846 103.024C288.845 103.024 288.844 103.024 288.843 103.024C288.842 103.024 288.841 103.024 288.84 103.024C288.839 103.024 288.838 103.024 288.837 103.024C288.836 103.024 288.835 103.024 288.834 103.024C288.833 103.024 288.832 103.024 288.831 103.024C288.83 103.024 288.829 103.024 288.828 103.024C288.827 103.024 288.826 103.024 288.825 103.024C288.824 103.024 288.823 103.024 288.822 103.024C288.821 103.024 288.82 103.024 288.819 103.024C288.818 103.024 288.817 103.024 288.816 103.024C288.815 103.024 288.814 103.024 288.813 103.024C288.812 103.024 288.811 103.024 288.81 103.024C288.809 103.024 288.808 103.024 288.807 103.024C288.806 103.024 288.805 103.024 288.804 103.024C288.803 103.024 288.802 103.024 288.801 103.024V107.024V111.024C288.802 111.024 288.803 111.024 288.804 111.024C288.805 111.024 288.806 111.024 288.807 111.024C288.808 111.024 288.809 111.024 288.81 111.024C288.811 111.024 288.812 111.024 288.813 111.024C288.814 111.024 288.815 111.024 288.816 111.024C288.817 111.024 288.818 111.024 288.819 111.024C288.82 111.024 288.821 111.024 288.822 111.024C288.823 111.024 288.824 111.024 288.825 111.024C288.826 111.024 288.827 111.024 288.828 111.024C288.829 111.024 288.83 111.024 288.831 111.024C288.832 111.024 288.833 111.024 288.834 111.024C288.835 111.024 288.836 111.024 288.837 111.024C288.838 111.024 288.839 111.024 288.84 111.024C288.841 111.024 288.842 111.024 288.843 111.024C288.844 111.024 288.845 111.024 288.846 111.024C288.847 111.024 288.848 111.024 288.849 111.024C288.85 111.024 288.851 111.024 288.852 111.024C288.853 111.024 288.854 111.024 288.855 111.024C288.856 111.024 288.857 111.024 288.858 111.024C288.859 111.024 288.86 111.024 288.861 111.024C288.862 111.024 288.863 111.024 288.864 111.024C288.865 111.024 288.866 111.024 288.867 111.024C288.868 111.024 288.869 111.024 288.87 111.024C288.871 111.024 288.872 111.024 288.873 111.024C288.874 111.024 288.875 111.024 288.876 111.024C288.877 111.024 288.878 111.024 288.879 111.024C288.88 111.024 288.881 111.024 288.882 111.024C288.883 111.024 288.884 111.024 288.885 111.024C288.886 111.024 288.887 111.024 288.888 111.024C288.889 111.024 288.89 111.024 288.891 111.024C288.892 111.024 288.893 111.024 288.894 111.024C288.895 111.024 288.896 111.024 288.896 111.024C288.897 111.024 288.898 111.024 288.899 111.024C288.9 111.024 288.901 111.024 288.902 111.024C288.903 111.024 288.904 111.024 288.905 111.024C288.906 111.024 288.907 111.024 288.908 111.024C288.909 111.024 288.91 111.024 288.911 111.024C288.912 111.024 288.913 111.024 288.914 111.024C288.915 111.024 288.916 111.024 288.917 111.024C288.918 111.024 288.919 111.024 288.92 111.024C288.921 111.024 288.922 111.024 288.923 111.024C288.924 111.024 288.925 111.024 288.926 111.024C288.927 111.024 288.928 111.024 288.929 111.024C288.93 111.024 288.931 111.024 288.932 111.024C288.933 111.024 288.934 111.024 288.935 111.024C288.936 111.024 288.937 111.024 288.938 111.024C288.939 111.024 288.94 111.024 288.941 111.024C288.942 111.024 288.943 111.024 288.944 111.024C288.945 111.024 288.946 111.024 288.947 111.024C288.948 111.024 288.949 111.024 288.95 111.024C288.951 111.024 288.952 111.024 288.953 111.024C288.954 111.024 288.955 111.024 288.956 111.024C288.957 111.024 288.958 111.024 288.959 111.024C288.96 111.024 288.961 111.024 288.962 111.024C288.963 111.024 288.964 111.024 288.965 111.024C288.966 111.024 288.966 111.024 288.967 111.024C288.968 111.024 288.969 111.024 288.97 111.024C288.971 111.024 288.972 111.024 288.973 111.024C288.974 111.024 288.975 111.024 288.976 111.024C288.977 111.024 288.978 111.024 288.979 111.024C288.98 111.024 288.981 111.024 288.982 111.024C288.983 111.024 288.984 111.024 288.985 111.024C288.986 111.024 288.987 111.024 288.988 111.024C288.989 111.024 288.99 111.024 288.991 111.024C288.992 111.024 288.993 111.024 288.994 111.024C288.995 111.024 288.996 111.024 288.997 111.024C288.998 111.024 288.999 111.024 289 111.024C289.001 111.024 289.002 111.024 289.003 111.024C289.004 111.024 289.005 111.024 289.006 111.024C289.007 111.024 289.008 111.024 289.009 111.024C289.01 111.024 289.011 111.024 289.012 111.024C289.013 111.024 289.013 111.024 289.014 111.024C289.015 111.024 289.016 111.024 289.017 111.024C289.018 111.024 289.019 111.024 289.02 111.024C289.021 111.024 289.022 111.024 289.023 111.024C289.024 111.024 289.025 111.024 289.026 111.024C289.027 111.024 289.028 111.024 289.029 111.024C289.03 111.024 289.031 111.024 289.032 111.024C289.033 111.024 289.034 111.024 289.035 111.024C289.036 111.024 289.037 111.024 289.038 111.024C289.039 111.024 289.04 111.024 289.041 111.024C289.042 111.024 289.043 111.024 289.044 111.024C289.045 111.024 289.046 111.024 289.047 111.024C289.048 111.024 289.049 111.024 289.05 111.024C289.051 111.024 289.052 111.024 289.052 111.024C289.053 111.024 289.054 111.024 289.055 111.024C289.056 111.024 289.057 111.024 289.058 111.024C289.059 111.024 289.06 111.024 289.061 111.024C289.062 111.024 289.063 111.024 289.064 111.024C289.065 111.024 289.066 111.024 289.067 111.024C289.068 111.024 289.069 111.024 289.07 111.024C289.071 111.024 289.072 111.024 289.073 111.024C289.074 111.024 289.075 111.024 289.076 111.024C289.077 111.024 289.078 111.024 289.079 111.024C289.08 111.024 289.081 111.024 289.082 111.024C289.083 111.024 289.084 111.024 289.085 111.024C289.085 111.024 289.086 111.024 289.087 111.024C289.088 111.024 289.089 111.024 289.09 111.024C289.091 111.024 289.092 111.024 289.093 111.024C289.094 111.024 289.095 111.024 289.096 111.024C289.097 111.024 289.098 111.024 289.099 111.024C289.1 111.024 289.101 111.024 289.102 111.024C289.103 111.024 289.104 111.024 289.105 111.024C289.106 111.024 289.107 111.024 289.108 111.024C289.109 111.024 289.11 111.024 289.111 111.024C289.112 111.024 289.113 111.024 289.114 111.024C289.114 111.024 289.115 111.024 289.116 111.024C289.117 111.024 289.118 111.024 289.119 111.024C289.12 111.024 289.121 111.024 289.122 111.024C289.123 111.024 289.124 111.024 289.125 111.024C289.126 111.024 289.127 111.024 289.128 111.024C289.129 111.024 289.13 111.024 289.131 111.024C289.132 111.024 289.133 111.024 289.134 111.024C289.135 111.024 289.136 111.024 289.137 111.024C289.138 111.024 289.139 111.024 289.14 111.024C289.141 111.024 289.141 111.024 289.142 111.024C289.143 111.024 289.144 111.024 289.145 111.024C289.146 111.024 289.147 111.024 289.148 111.024C289.149 111.024 289.15 111.024 289.151 111.024C289.152 111.024 289.153 111.024 289.154 111.024C289.155 111.024 289.156 111.024 289.157 111.024C289.158 111.024 289.159 111.024 289.16 111.024C289.161 111.024 289.162 111.024 289.163 111.024C289.164 111.024 289.165 111.024 289.165 111.024C289.166 111.024 289.167 111.024 289.168 111.024C289.169 111.024 289.17 111.024 289.171 111.024C289.172 111.024 289.173 111.024 289.174 111.024C289.175 111.024 289.176 111.024 289.177 111.024C289.178 111.024 289.179 111.024 289.18 111.024C289.181 111.024 289.182 111.024 289.183 111.024C289.184 111.024 289.185 111.024 289.186 111.024C289.187 111.024 289.188 111.024 289.188 111.024C289.189 111.024 289.19 111.024 289.191 111.024C289.192 111.024 289.193 111.024 289.194 111.024C289.195 111.024 289.196 111.024 289.197 111.024C289.198 111.024 289.199 111.024 289.2 111.024C289.201 111.024 289.202 111.024 289.203 111.024C289.204 111.024 289.205 111.024 289.206 111.024C289.207 111.024 289.208 111.024 289.209 111.024C289.21 111.024 289.21 111.024 289.211 111.024C289.212 111.024 289.213 111.024 289.214 111.024C289.215 111.024 289.216 111.024 289.217 111.024C289.218 111.024 289.219 111.024 289.22 111.024C289.221 111.024 289.222 111.024 289.223 111.024C289.224 111.024 289.225 111.024 289.226 111.024C289.227 111.024 289.228 111.024 289.229 111.024C289.23 111.024 289.23 111.024 289.231 111.024C289.232 111.024 289.233 111.024 289.234 111.024C289.235 111.024 289.236 111.024 289.237 111.024C289.238 111.024 289.239 111.024 289.24 111.024C289.241 111.024 289.242 111.024 289.243 111.024C289.244 111.024 289.245 111.024 289.246 111.024C289.247 111.024 289.248 111.024 289.249 111.024C289.25 111.024 289.25 111.024 289.251 111.024C289.252 111.024 289.253 111.024 289.254 111.024C289.255 111.024 289.256 111.024 289.257 111.024C289.258 111.024 289.259 111.024 289.26 111.024C289.261 111.024 289.262 111.024 289.263 111.024C289.264 111.024 289.265 111.024 289.266 111.024C289.267 111.024 289.268 111.024 289.268 111.024C289.269 111.024 289.27 111.024 289.271 111.024C289.272 111.024 289.273 111.024 289.274 111.024C289.275 111.024 289.276 111.024 289.277 111.024C289.278 111.024 289.279 111.024 289.28 111.024C289.281 111.024 289.282 111.024 289.283 111.024C289.284 111.024 289.285 111.024 289.286 111.024C289.286 111.024 289.287 111.024 289.288 111.024C289.289 111.024 289.29 111.024 289.291 111.024C289.292 111.024 289.293 111.024 289.294 111.024C289.295 111.024 289.296 111.024 289.297 111.024C289.298 111.024 289.299 111.024 289.3 111.024C289.301 111.024 289.302 111.024 289.303 111.024C289.303 111.024 289.304 111.024 289.305 111.024C289.306 111.024 289.307 111.024 289.308 111.024C289.309 111.024 289.31 111.024 289.311 111.024C289.312 111.024 289.313 111.024 289.314 111.024C289.315 111.024 289.316 111.024 289.317 111.024C289.318 111.024 289.319 111.024 289.32 111.024C289.32 111.024 289.321 111.024 289.322 111.024C289.323 111.024 289.324 111.024 289.325 111.024C289.326 111.024 289.327 111.024 289.328 111.024C289.329 111.024 289.33 111.024 289.331 111.024C289.332 111.024 289.333 111.024 289.334 111.024C289.335 111.024 289.336 111.024 289.336 111.024C289.337 111.024 289.338 111.024 289.339 111.024C289.34 111.024 289.341 111.024 289.342 111.024C289.343 111.024 289.344 111.024 289.345 111.024C289.346 111.024 289.347 111.024 289.348 111.024C289.349 111.024 289.35 111.024 289.351 111.024C289.352 111.024 289.352 111.024 289.353 111.024C289.354 111.024 289.355 111.024 289.356 111.024C289.357 111.024 289.358 111.024 289.359 111.024C289.36 111.024 289.361 111.024 289.362 111.024C289.363 111.024 289.364 111.024 289.365 111.024C289.366 111.024 289.366 111.024 289.367 111.024C289.368 111.024 289.369 111.024 289.37 111.024C289.371 111.024 289.372 111.024 289.373 111.024C289.374 111.024 289.375 111.024 289.376 111.024C289.377 111.024 289.378 111.024 289.379 111.024C289.38 111.024 289.381 111.024 289.381 111.024C289.382 111.024 289.383 111.024 289.384 111.024C289.385 111.024 289.386 111.024 289.387 111.024C289.388 111.024 289.389 111.024 289.39 111.024C289.391 111.024 289.392 111.024 289.393 111.024C289.394 111.024 289.395 111.024 289.395 111.024C289.396 111.024 289.397 111.024 289.398 111.024C289.399 111.024 289.4 111.024 289.401 111.024C289.402 111.024 289.403 111.024 289.404 111.024C289.405 111.024 289.406 111.024 289.407 111.024C289.408 111.024 289.409 111.024 289.409 111.024C289.41 111.024 289.411 111.024 289.412 111.024C289.413 111.024 289.414 111.024 289.415 111.024C289.416 111.024 289.417 111.024 289.418 111.024C289.419 111.024 289.42 111.024 289.421 111.024C289.422 111.024 289.422 111.024 289.423 111.024C289.424 111.024 289.425 111.024 289.426 111.024C289.427 111.024 289.428 111.024 289.429 111.024C289.43 111.024 289.431 111.024 289.432 111.024C289.433 111.024 289.434 111.024 289.435 111.024C289.436 111.024 289.436 111.024 289.437 111.024C289.438 111.024 289.439 111.024 289.44 111.024C289.441 111.024 289.442 111.024 289.443 111.024C289.444 111.024 289.445 111.024 289.446 111.024C289.447 111.024 289.448 111.024 289.448 111.024C289.449 111.024 289.45 111.024 289.451 111.024C289.452 111.024 289.453 111.024 289.454 111.024C289.455 111.024 289.456 111.024 289.457 111.024C289.458 111.024 289.459 111.024 289.46 111.024C289.461 111.024 289.461 111.024 289.462 111.024C289.463 111.024 289.464 111.024 289.465 111.024C289.466 111.024 289.467 111.024 289.468 111.024C289.469 111.024 289.47 111.024 289.471 111.024C289.472 111.024 289.473 111.024 289.473 111.024C289.474 111.024 289.475 111.024 289.476 111.024C289.477 111.024 289.478 111.024 289.479 111.024C289.48 111.024 289.481 111.024 289.482 111.024C289.483 111.024 289.484 111.024 289.485 111.024C289.486 111.024 289.486 111.024 289.487 111.024C289.488 111.024 289.489 111.024 289.49 111.024C289.491 111.024 289.492 111.024 289.493 111.024C289.494 111.024 289.495 111.024 289.496 111.024C289.497 111.024 289.497 111.024 289.498 111.024C289.499 111.024 289.5 111.024 289.501 111.024C289.502 111.024 289.503 111.024 289.504 111.024C289.505 111.024 289.506 111.024 289.507 111.024C289.508 111.024 289.509 111.024 289.509 111.024C289.51 111.024 289.511 111.024 289.512 111.024C289.513 111.024 289.514 111.024 289.515 111.024C289.516 111.024 289.517 111.024 289.518 111.024C289.519 111.024 289.52 111.024 289.52 111.024C289.521 111.024 289.522 111.024 289.523 111.024C289.524 111.024 289.525 111.024 289.526 111.024C289.527 111.024 289.528 111.024 289.529 111.024C289.53 111.024 289.531 111.024 289.531 111.024C289.532 111.024 289.533 111.024 289.534 111.024C289.535 111.024 289.536 111.024 289.537 111.024C289.538 111.024 289.539 111.024 289.54 111.024C289.541 111.024 289.542 111.024 289.543 111.024C289.543 111.024 289.544 111.024 289.545 111.024C289.546 111.024 289.547 111.024 289.548 111.024C289.549 111.024 289.55 111.024 289.551 111.024C289.552 111.024 289.553 111.024 289.553 111.024C289.554 111.024 289.555 111.024 289.556 111.024C289.557 111.024 289.558 111.024 289.559 111.024C289.56 111.024 289.561 111.024 289.562 111.024C289.563 111.024 289.564 111.024 289.564 111.024C289.565 111.024 289.566 111.024 289.567 111.024C289.568 111.024 289.569 111.024 289.57 111.024C289.571 111.024 289.572 111.024 289.573 111.024C289.574 111.024 289.574 111.024 289.575 111.024C289.576 111.024 289.577 111.024 289.578 111.024C289.579 111.024 289.58 111.024 289.581 111.024C289.582 111.024 289.583 111.024 289.584 111.024C289.585 111.024 289.585 111.024 289.586 111.024C289.587 111.024 289.588 111.024 289.589 111.024C289.59 111.024 289.591 111.024 289.592 111.024C289.593 111.024 289.594 111.024 289.595 111.024C289.595 111.024 289.596 111.024 289.597 111.024C289.598 111.024 289.599 111.024 289.6 111.024C289.601 111.024 289.602 111.024 289.603 111.024C289.604 111.024 289.605 111.024 289.605 111.024C289.606 111.024 289.607 111.024 289.608 111.024C289.609 111.024 289.61 111.024 289.611 111.024C289.612 111.024 289.613 111.024 289.614 111.024C289.615 111.024 289.615 111.024 289.616 111.024C289.617 111.024 289.618 111.024 289.619 111.024C289.62 111.024 289.621 111.024 289.622 111.024C289.623 111.024 289.624 111.024 289.625 111.024C289.625 111.024 289.626 111.024 289.627 111.024C289.628 111.024 289.629 111.024 289.63 111.024C289.631 111.024 289.632 111.024 289.633 111.024C289.634 111.024 289.634 111.024 289.635 111.024C289.636 111.024 289.637 111.024 289.638 111.024C289.639 111.024 289.64 111.024 289.641 111.024C289.642 111.024 289.643 111.024 289.643 111.024C289.644 111.024 289.645 111.024 289.646 111.024C289.647 111.024 289.648 111.024 289.649 111.024C289.65 111.024 289.651 111.024 289.652 111.024C289.653 111.024 289.653 111.024 289.654 111.024C289.655 111.024 289.656 111.024 289.657 111.024C289.658 111.024 289.659 111.024 289.66 111.024C289.661 111.024 289.662 111.024 289.662 111.024C289.663 111.024 289.664 111.024 289.665 111.024C289.666 111.024 289.667 111.024 289.668 111.024C289.669 111.024 289.67 111.024 289.671 111.024C289.671 111.024 289.672 111.024 289.673 111.024C289.674 111.024 289.675 111.024 289.676 111.024C289.677 111.024 289.678 111.024 289.679 111.024C289.68 111.024 289.68 111.024 289.681 111.024C289.682 111.024 289.683 111.024 289.684 111.024C289.685 111.024 289.686 111.024 289.687 111.024C289.688 111.024 289.689 111.024 289.689 111.024C289.69 111.024 289.691 111.024 289.692 111.024C289.693 111.024 289.694 111.024 289.695 111.024C289.696 111.024 289.697 111.024 289.698 111.024C289.698 111.024 289.699 111.024 289.7 111.024C289.701 111.024 289.702 111.024 289.703 111.024C289.704 111.024 289.705 111.024 289.706 111.024C289.707 111.024 289.707 111.024 289.708 111.024C289.709 111.024 289.71 111.024 289.711 111.024C289.712 111.024 289.713 111.024 289.714 111.024C289.715 111.024 289.715 111.024 289.716 111.024C289.717 111.024 289.718 111.024 289.719 111.024C289.72 111.024 289.721 111.024 289.722 111.024C289.723 111.024 289.724 111.024 289.724 111.024C289.725 111.024 289.726 111.024 289.727 111.024C289.728 111.024 289.729 111.024 289.73 111.024C289.731 111.024 289.732 111.024 289.732 111.024C289.733 111.024 289.734 111.024 289.735 111.024C289.736 111.024 289.737 111.024 289.738 111.024C289.739 111.024 289.74 111.024 289.741 111.024C289.741 111.024 289.742 111.024 289.743 111.024C289.744 111.024 289.745 111.024 289.746 111.024C289.747 111.024 289.748 111.024 289.749 111.024C289.749 111.024 289.75 111.024 289.751 111.024C289.752 111.024 289.753 111.024 289.754 111.024C289.755 111.024 289.756 111.024 289.757 111.024C289.757 111.024 289.758 111.024 289.759 111.024C289.76 111.024 289.761 111.024 289.762 111.024C289.763 111.024 289.764 111.024 289.765 111.024C289.765 111.024 289.766 111.024 289.767 111.024C289.768 111.024 289.769 111.024 289.77 111.024C289.771 111.024 289.772 111.024 289.773 111.024C289.773 111.024 289.774 111.024 289.775 111.024C289.776 111.024 289.777 111.024 289.778 111.024C289.779 111.024 289.78 111.024 289.781 111.024C289.781 111.024 289.782 111.024 289.783 111.024C289.784 111.024 289.785 111.024 289.786 111.024C289.787 111.024 289.788 111.024 289.789 111.024C289.789 111.024 289.79 111.024 289.791 111.024C289.792 111.024 289.793 111.024 289.794 111.024C289.795 111.024 289.796 111.024 289.797 111.024C289.797 111.024 289.798 111.024 289.799 111.024C289.8 111.024 289.801 111.024 289.802 111.024C289.803 111.024 289.804 111.024 289.804 111.024C289.805 111.024 289.806 111.024 289.807 111.024C289.808 111.024 289.809 111.024 289.81 111.024C289.811 111.024 289.812 111.024 289.812 111.024C289.813 111.024 289.814 111.024 289.815 111.024C289.816 111.024 289.817 111.024 289.818 111.024C289.819 111.024 289.819 111.024 289.82 111.024C289.821 111.024 289.822 111.024 289.823 111.024C289.824 111.024 289.825 111.024 289.826 111.024C289.827 111.024 289.827 111.024 289.828 111.024C289.829 111.024 289.83 111.024 289.831 111.024C289.832 111.024 289.833 111.024 289.834 111.024C289.834 111.024 289.835 111.024 289.836 111.024C289.837 111.024 289.838 111.024 289.839 111.024C289.84 111.024 289.841 111.024 289.842 111.024C289.842 111.024 289.843 111.024 289.844 111.024C289.845 111.024 289.846 111.024 289.847 111.024C289.848 111.024 289.849 111.024 289.849 111.024C289.85 111.024 289.851 111.024 289.852 111.024C289.853 111.024 289.854 111.024 289.855 111.024C289.856 111.024 289.856 111.024 289.857 111.024C289.858 111.024 289.859 111.024 289.86 111.024C289.861 111.024 289.862 111.024 289.863 111.024C289.863 111.024 289.864 111.024 289.865 111.024C289.866 111.024 289.867 111.024 289.868 111.024C289.869 111.024 289.87 111.024 289.87 111.024C289.871 111.024 289.872 111.024 289.873 111.024C289.874 111.024 289.875 111.024 289.876 111.024C289.877 111.024 289.878 111.024 289.878 111.024C289.879 111.024 289.88 111.024 289.881 111.024C289.882 111.024 289.883 111.024 289.884 111.024C289.884 111.024 289.885 111.024 289.886 111.024C289.887 111.024 289.888 111.024 289.889 111.024C289.89 111.024 289.891 111.024 289.891 111.024C289.892 111.024 289.893 111.024 289.894 111.024C289.895 111.024 289.896 111.024 289.897 111.024C289.898 111.024 289.898 111.024 289.899 111.024C289.9 111.024 289.901 111.024 289.902 111.024C289.903 111.024 289.904 111.024 289.905 111.024C289.905 111.024 289.906 111.024 289.907 111.024C289.908 111.024 289.909 111.024 289.91 111.024C289.911 111.024 289.912 111.024 289.912 111.024C289.913 111.024 289.914 111.024 289.915 111.024C289.916 111.024 289.917 111.024 289.918 111.024C289.919 111.024 289.919 111.024 289.92 111.024C289.921 111.024 289.922 111.024 289.923 111.024C289.924 111.024 289.925 111.024 289.925 111.024C289.926 111.024 289.927 111.024 289.928 111.024C289.929 111.024 289.93 111.024 289.931 111.024C289.932 111.024 289.932 111.024 289.933 111.024C289.934 111.024 289.935 111.024 289.936 111.024C289.937 111.024 289.938 111.024 289.939 111.024C289.939 111.024 289.94 111.024 289.941 111.024C289.942 111.024 289.943 111.024 289.944 111.024C289.945 111.024 289.945 111.024 289.946 111.024C289.947 111.024 289.948 111.024 289.949 111.024C289.95 111.024 289.951 111.024 289.952 111.024C289.952 111.024 289.953 111.024 289.954 111.024C289.955 111.024 289.956 111.024 289.957 111.024C289.958 111.024 289.958 111.024 289.959 111.024C289.96 111.024 289.961 111.024 289.962 111.024C289.963 111.024 289.964 111.024 289.965 111.024C289.965 111.024 289.966 111.024 289.967 111.024C289.968 111.024 289.969 111.024 289.97 111.024C289.971 111.024 289.971 111.024 289.972 111.024C289.973 111.024 289.974 111.024 289.975 111.024C289.976 111.024 289.977 111.024 289.977 111.024C289.978 111.024 289.979 111.024 289.98 111.024C289.981 111.024 289.982 111.024 289.983 111.024C289.983 111.024 289.984 111.024 289.985 111.024C289.986 111.024 289.987 111.024 289.988 111.024C289.989 111.024 289.99 111.024 289.99 111.024C289.991 111.024 289.992 111.024 289.993 111.024C289.994 111.024 289.995 111.024 289.996 111.024C289.996 111.024 289.997 111.024 289.998 111.024C289.999 111.024 290 111.024 290.001 111.024C290.002 111.024 290.002 111.024 290.003 111.024C290.004 111.024 290.005 111.024 290.006 111.024C290.007 111.024 290.008 111.024 290.008 111.024C290.009 111.024 290.01 111.024 290.011 111.024C290.012 111.024 290.013 111.024 290.014 111.024C290.014 111.024 290.015 111.024 290.016 111.024C290.017 111.024 290.018 111.024 290.019 111.024C290.02 111.024 290.02 111.024 290.021 111.024C290.022 111.024 290.023 111.024 290.024 111.024C290.025 111.024 290.026 111.024 290.026 111.024C290.027 111.024 290.028 111.024 290.029 111.024C290.03 111.024 290.031 111.024 290.032 111.024C290.032 111.024 290.033 111.024 290.034 111.024C290.035 111.024 290.036 111.024 290.037 111.024C290.038 111.024 290.038 111.024 290.039 111.024C290.04 111.024 290.041 111.024 290.042 111.024C290.043 111.024 290.044 111.024 290.044 111.024C290.045 111.024 290.046 111.024 290.047 111.024C290.048 111.024 290.049 111.024 290.05 111.024C290.05 111.024 290.051 111.024 290.052 111.024C290.053 111.024 290.054 111.024 290.055 111.024C290.056 111.024 290.056 111.024 290.057 111.024C290.058 111.024 290.059 111.024 290.06 111.024C290.061 111.024 290.061 111.024 290.062 111.024C290.063 111.024 290.064 111.024 290.065 111.024C290.066 111.024 290.067 111.024 290.067 111.024C290.068 111.024 290.069 111.024 290.07 111.024C290.071 111.024 290.072 111.024 290.073 111.024C290.073 111.024 290.074 111.024 290.075 111.024C290.076 111.024 290.077 111.024 290.078 111.024C290.079 111.024 290.079 111.024 290.08 111.024C290.081 111.024 290.082 111.024 290.083 111.024C290.084 111.024 290.084 111.024 290.085 111.024C290.086 111.024 290.087 111.024 290.088 111.024C290.089 111.024 290.09 111.024 290.09 111.024C290.091 111.024 290.092 111.024 290.093 111.024C290.094 111.024 290.095 111.024 290.096 111.024C290.096 111.024 290.097 111.024 290.098 111.024C290.099 111.024 290.1 111.024 290.101 111.024C290.101 111.024 290.102 111.024 290.103 111.024C290.104 111.024 290.105 111.024 290.106 111.024C290.107 111.024 290.107 111.024 290.108 111.024C290.109 111.024 290.11 111.024 290.111 111.024C290.112 111.024 290.112 111.024 290.113 111.024C290.114 111.024 290.115 111.024 290.116 111.024C290.117 111.024 290.118 111.024 290.118 111.024C290.119 111.024 290.12 111.024 290.121 111.024C290.122 111.024 290.123 111.024 290.123 111.024C290.124 111.024 290.125 111.024 290.126 111.024C290.127 111.024 290.128 111.024 290.129 111.024C290.129 111.024 290.13 111.024 290.131 111.024C290.132 111.024 290.133 111.024 290.134 111.024C290.134 111.024 290.135 111.024 290.136 111.024C290.137 111.024 290.138 111.024 290.139 111.024C290.139 111.024 290.14 111.024 290.141 111.024C290.142 111.024 290.143 111.024 290.144 111.024C290.145 111.024 290.145 111.024 290.146 111.024C290.147 111.024 290.148 111.024 290.149 111.024C290.15 111.024 290.15 111.024 290.151 111.024C290.152 111.024 290.153 111.024 290.154 111.024C290.155 111.024 290.155 111.024 290.156 111.024C290.157 111.024 290.158 111.024 290.159 111.024C290.16 111.024 290.16 111.024 290.161 111.024C290.162 111.024 290.163 111.024 290.164 111.024C290.165 111.024 290.166 111.024 290.166 111.024C290.167 111.024 290.168 111.024 290.169 111.024C290.17 111.024 290.171 111.024 290.171 111.024C290.172 111.024 290.173 111.024 290.174 111.024C290.175 111.024 290.176 111.024 290.176 111.024C290.177 111.024 290.178 111.024 290.179 111.024C290.18 111.024 290.181 111.024 290.181 111.024C290.182 111.024 290.183 111.024 290.184 111.024C290.185 111.024 290.186 111.024 290.186 111.024C290.187 111.024 290.188 111.024 290.189 111.024C290.19 111.024 290.191 111.024 290.191 111.024C290.192 111.024 290.193 111.024 290.194 111.024C290.195 111.024 290.196 111.024 290.197 111.024C290.197 111.024 290.198 111.024 290.199 111.024C290.2 111.024 290.201 111.024 290.202 111.024C290.202 111.024 290.203 111.024 290.204 111.024C290.205 111.024 290.206 111.024 290.207 111.024C290.207 111.024 290.208 111.024 290.209 111.024V107.024ZM288.801 107.024L288.143 103.078C287.749 103.144 287.56 103.152 287.521 103.152V107.152V111.152C288.165 111.152 288.829 111.075 289.459 110.97L288.801 107.024ZM287.521 107.152V103.152C283.641 103.152 281.324 102.342 279.993 101.307L277.537 104.464L275.081 107.621C278.358 110.17 282.697 111.152 287.521 111.152V107.152ZM277.537 104.464L280.05 101.352C278.688 100.252 278.209 99.1406 278.209 97.808H274.209H270.209C270.209 101.766 271.949 105.092 275.024 107.576L277.537 104.464ZM274.209 97.808H278.209C278.209 96.3924 278.526 95.3428 279.03 94.5178L275.617 92.432L272.204 90.3462C270.831 92.5931 270.209 95.1276 270.209 97.808H274.209ZM275.617 92.432L278.999 94.568C279.854 93.214 281.397 91.2242 283.747 88.538L280.737 85.904L277.727 83.27C275.298 86.0451 273.428 88.4074 272.235 90.296L275.617 92.432ZM280.737 85.904L283.769 88.5125L294.009 76.6085L290.977 74L287.945 71.3915L277.705 83.2955L280.737 85.904ZM290.977 74L294.02 71.4032L276.867 51.3072L273.825 53.904L270.783 56.5008L287.935 76.5968L290.977 74Z" fill="#F8F0DA"/>
<path d="M43.876 64.4C47.46 64.4 50.1907 63.5893 52.068 61.968C54.0307 60.2613 55.012 57.7013 55.012 54.288C55.012 51.0453 53.988 48.5707 51.94 46.864C49.9773 45.072 47.076 44.176 43.236 44.176C41.8707 44.176 40.7187 44.2187 39.78 44.304C38.9267 44.304 38.0307 44.3893 37.092 44.56V64.4H43.876ZM37.22 105.488C36.2813 105.744 34.788 106 32.74 106.256C30.7773 106.512 28.8147 106.64 26.852 106.64C24.8893 106.64 23.14 106.469 21.604 106.128C20.1533 105.872 18.916 105.36 17.892 104.592C16.868 103.824 16.1 102.757 15.588 101.392C15.076 100.027 14.82 98.2347 14.82 96.016V35.728C14.82 33.936 15.2893 32.5707 16.228 31.632C17.252 30.608 18.6173 29.7973 20.324 29.2C23.2253 28.176 26.5107 27.4507 30.18 27.024C33.9347 26.512 37.6893 26.256 41.444 26.256C53.22 26.256 62.2227 28.7733 68.452 33.808C74.6813 38.8427 77.796 45.6693 77.796 54.288C77.796 58.4693 77.1133 62.2667 75.748 65.68C74.468 69.008 72.5053 71.9093 69.86 74.384C67.3 76.7733 64.0147 78.6507 60.004 80.016C56.0787 81.296 51.5133 81.936 46.308 81.936H37.22V105.488ZM85.769 26.512C85.769 23.2693 86.8357 20.5387 88.969 18.32C91.1877 16.1013 94.089 14.992 97.673 14.992C101.257 14.992 104.116 16.1013 106.249 18.32C108.468 20.5387 109.577 23.2693 109.577 26.512C109.577 29.7547 108.468 32.4853 106.249 34.704C104.116 36.9227 101.257 38.032 97.673 38.032C94.089 38.032 91.1877 36.9227 88.969 34.704C86.8357 32.4853 85.769 29.7547 85.769 26.512ZM108.553 105.872C107.614 106.043 106.206 106.256 104.329 106.512C102.537 106.853 100.702 107.024 98.825 107.024C96.9477 107.024 95.241 106.896 93.705 106.64C92.2543 106.384 91.017 105.872 89.993 105.104C88.969 104.336 88.1583 103.312 87.561 102.032C87.049 100.667 86.793 98.9173 86.793 96.784V44.688C87.7317 44.5173 89.097 44.304 90.889 44.048C92.7663 43.7067 94.6437 43.536 96.521 43.536C98.3983 43.536 100.062 43.664 101.513 43.92C103.049 44.176 104.329 44.688 105.353 45.456C106.377 46.224 107.145 47.2907 107.657 48.656C108.254 49.936 108.553 51.6427 108.553 53.776V105.872Z" fill="url(#paint0_linear_38_30)"/>
<path d="M146.342 89.36C147.281 89.5307 148.433 89.7013 149.798 89.872C151.163 89.9573 152.443 90 153.638 90C156.539 90 159.185 89.5733 161.574 88.72C164.049 87.8667 166.139 86.544 167.846 84.752C169.638 82.96 171.003 80.656 171.942 77.84C172.966 74.9387 173.478 71.4827 173.478 67.472C173.478 59.792 171.686 54.032 168.102 50.192C164.518 46.2667 159.739 44.304 153.766 44.304C152.571 44.304 151.334 44.3467 150.054 44.432C148.859 44.5173 147.622 44.6453 146.342 44.816V89.36ZM153.51 108.048C152.059 108.048 150.395 108.005 148.518 107.92C146.641 107.835 144.678 107.664 142.63 107.408C140.667 107.152 138.662 106.811 136.614 106.384C134.651 106.043 132.817 105.531 131.11 104.848C126.417 103.056 124.07 99.9413 124.07 95.504V35.728C124.07 33.936 124.539 32.5707 125.478 31.632C126.502 30.608 127.867 29.7973 129.574 29.2C133.243 28.0053 137.126 27.2373 141.222 26.896C145.318 26.4693 148.987 26.256 152.23 26.256C158.886 26.256 164.902 27.0667 170.278 28.688C175.739 30.3093 180.39 32.8267 184.23 36.24C188.155 39.568 191.185 43.792 193.318 48.912C195.451 54.032 196.518 60.0907 196.518 67.088C196.518 73.9147 195.494 79.888 193.446 85.008C191.398 90.0427 188.454 94.3093 184.614 97.808C180.859 101.221 176.337 103.781 171.046 105.488C165.755 107.195 159.91 108.048 153.51 108.048ZM240.552 108.048C235.517 108.048 230.824 107.365 226.472 106C222.205 104.549 218.451 102.416 215.208 99.6C212.051 96.784 209.533 93.2427 207.656 88.976C205.864 84.7093 204.968 79.7173 204.968 74C204.968 68.368 205.864 63.5467 207.656 59.536C209.533 55.44 211.965 52.112 214.952 49.552C217.939 46.9067 221.352 44.9867 225.192 43.792C229.032 42.512 232.957 41.872 236.968 41.872C241.491 41.872 245.587 42.5547 249.256 43.92C253.011 45.2853 256.211 47.1627 258.856 49.552C261.587 51.9413 263.677 54.8 265.128 58.128C266.664 61.456 267.432 65.0827 267.432 69.008C267.432 71.9093 266.621 74.128 265 75.664C263.379 77.2 261.117 78.1813 258.216 78.608L226.6 83.344C227.539 86.16 229.459 88.2933 232.36 89.744C235.261 91.1093 238.589 91.792 242.344 91.792C245.843 91.792 249.128 91.3653 252.2 90.512C255.357 89.5733 257.917 88.5067 259.88 87.312C261.245 88.1653 262.397 89.36 263.336 90.896C264.275 92.432 264.744 94.0533 264.744 95.76C264.744 99.6 262.952 102.459 259.368 104.336C256.637 105.787 253.565 106.768 250.152 107.28C246.739 107.792 243.539 108.048 240.552 108.048ZM236.968 57.744C234.92 57.744 233.128 58.0853 231.592 58.768C230.141 59.4507 228.947 60.3467 228.008 61.456C227.069 62.48 226.344 63.6747 225.832 65.04C225.405 66.32 225.149 67.6427 225.064 69.008L246.952 65.424C246.696 63.7173 245.757 62.0107 244.136 60.304C242.515 58.5973 240.125 57.744 236.968 57.744ZM273.825 53.904C274.508 50.6613 275.83 48.016 277.793 45.968C279.841 43.92 282.358 42.896 285.345 42.896C288.161 42.896 290.337 43.5787 291.873 44.944C293.409 46.3093 295.116 48.2293 296.993 50.704L305.185 61.456L318.881 42.896C323.574 42.896 327.286 43.7493 330.017 45.456C332.748 47.0773 334.113 49.296 334.113 52.112C334.113 53.2213 333.942 54.2453 333.601 55.184C333.345 56.0373 332.918 56.9333 332.321 57.872C331.724 58.8107 330.956 59.8773 330.017 61.072C329.078 62.2667 327.969 63.6747 326.689 65.296L318.241 74.768L335.009 96.912C334.582 100.155 333.302 102.715 331.169 104.592C329.036 106.469 326.476 107.408 323.489 107.408C320.246 107.323 317.644 106.384 315.681 104.592C313.804 102.8 311.969 100.624 310.177 98.064L303.265 88.208L290.209 107.024C289.782 107.024 289.313 107.024 288.801 107.024C288.289 107.109 287.862 107.152 287.521 107.152C283.169 107.152 279.841 106.256 277.537 104.464C275.318 102.672 274.209 100.453 274.209 97.808C274.209 95.76 274.678 93.968 275.617 92.432C276.641 90.8107 278.348 88.6347 280.737 85.904L290.977 74L273.825 53.904Z" fill="url(#paint1_linear_38_30)"/>
<defs>
<linearGradient id="paint0_linear_38_30" x1="172.5" y1="8" x2="172.5" y2="136" gradientUnits="userSpaceOnUse">
<stop stop-color="#5C8D99"/>
<stop offset="1" stop-color="#2B4F58"/>
</linearGradient>
<linearGradient id="paint1_linear_38_30" x1="172.5" y1="8" x2="172.5" y2="136" gradientUnits="userSpaceOnUse">
<stop stop-color="#E3A854"/>
<stop offset="1" stop-color="#D77153"/>
</linearGradient>
</defs>
</svg>
