<svg width="357" height="139" viewBox="0 0 357 139" fill="none" xmlns="http://www.w3.org/2000/svg">
<g filter="url(#filter0_d_2_31)">
<path d="M47.056 67.408C50.64 67.408 53.3707 66.5973 55.248 64.976C57.2107 63.2693 58.192 60.7093 58.192 57.296C58.192 54.0533 57.168 51.5787 55.12 49.872C53.1573 48.08 50.256 47.184 46.416 47.184C45.0507 47.184 43.8987 47.2267 42.96 47.312C42.1067 47.312 41.2107 47.3973 40.272 47.568V67.408H47.056ZM40.4 108.496C39.4613 108.752 37.968 109.008 35.92 109.264C33.9573 109.52 31.9947 109.648 30.032 109.648C28.0693 109.648 26.32 109.477 24.784 109.136C23.3333 108.88 22.096 108.368 21.072 107.6C20.048 106.832 19.28 105.765 18.768 104.4C18.256 103.035 18 101.243 18 99.024V38.736C18 36.944 18.4693 35.5787 19.408 34.64C20.432 33.616 21.7973 32.8053 23.504 32.208C26.4053 31.184 29.6907 30.4587 33.36 30.032C37.1147 29.52 40.8693 29.264 44.624 29.264C56.4 29.264 65.4027 31.7813 71.632 36.816C77.8613 41.8507 80.976 48.6773 80.976 57.296C80.976 61.4773 80.2933 65.2747 78.928 68.688C77.648 72.016 75.6853 74.9173 73.04 77.392C70.48 79.7813 67.1947 81.6587 63.184 83.024C59.2587 84.304 54.6933 84.944 49.488 84.944H40.4V108.496ZM88.949 29.52C88.949 26.2773 90.0157 23.5467 92.149 21.328C94.3677 19.1093 97.269 18 100.853 18C104.437 18 107.296 19.1093 109.429 21.328C111.648 23.5467 112.757 26.2773 112.757 29.52C112.757 32.7627 111.648 35.4933 109.429 37.712C107.296 39.9307 104.437 41.04 100.853 41.04C97.269 41.04 94.3677 39.9307 92.149 37.712C90.0157 35.4933 88.949 32.7627 88.949 29.52ZM111.733 108.88C110.794 109.051 109.386 109.264 107.509 109.52C105.717 109.861 103.882 110.032 102.005 110.032C100.128 110.032 98.421 109.904 96.885 109.648C95.4343 109.392 94.197 108.88 93.173 108.112C92.149 107.344 91.3383 106.32 90.741 105.04C90.229 103.675 89.973 101.925 89.973 99.792V47.696C90.9117 47.5253 92.277 47.312 94.069 47.056C95.9463 46.7147 97.8237 46.544 99.701 46.544C101.578 46.544 103.242 46.672 104.693 46.928C106.229 47.184 107.509 47.696 108.533 48.464C109.557 49.232 110.325 50.2987 110.837 51.664C111.434 52.944 111.733 54.6507 111.733 56.784V108.88ZM149.522 92.368C150.461 92.5387 151.613 92.7093 152.978 92.88C154.343 92.9653 155.623 93.008 156.818 93.008C159.719 93.008 162.365 92.5813 164.754 91.728C167.229 90.8747 169.319 89.552 171.026 87.76C172.818 85.968 174.183 83.664 175.122 80.848C176.146 77.9467 176.658 74.4907 176.658 70.48C176.658 62.8 174.866 57.04 171.282 53.2C167.698 49.2747 162.919 47.312 156.946 47.312C155.751 47.312 154.514 47.3547 153.234 47.44C152.039 47.5253 150.802 47.6533 149.522 47.824V92.368ZM156.69 111.056C155.239 111.056 153.575 111.013 151.698 110.928C149.821 110.843 147.858 110.672 145.81 110.416C143.847 110.16 141.842 109.819 139.794 109.392C137.831 109.051 135.997 108.539 134.29 107.856C129.597 106.064 127.25 102.949 127.25 98.512V38.736C127.25 36.944 127.719 35.5787 128.658 34.64C129.682 33.616 131.047 32.8053 132.754 32.208C136.423 31.0133 140.306 30.2453 144.402 29.904C148.498 29.4773 152.167 29.264 155.41 29.264C162.066 29.264 168.082 30.0747 173.458 31.696C178.919 33.3173 183.57 35.8347 187.41 39.248C191.335 42.576 194.365 46.8 196.498 51.92C198.631 57.04 199.698 63.0987 199.698 70.096C199.698 76.9227 198.674 82.896 196.626 88.016C194.578 93.0507 191.634 97.3173 187.794 100.816C184.039 104.229 179.517 106.789 174.226 108.496C168.935 110.203 163.09 111.056 156.69 111.056ZM243.732 111.056C238.697 111.056 234.004 110.373 229.652 109.008C225.385 107.557 221.631 105.424 218.388 102.608C215.231 99.792 212.713 96.2507 210.836 91.984C209.044 87.7173 208.148 82.7253 208.148 77.008C208.148 71.376 209.044 66.5547 210.836 62.544C212.713 58.448 215.145 55.12 218.132 52.56C221.119 49.9147 224.532 47.9947 228.372 46.8C232.212 45.52 236.137 44.88 240.148 44.88C244.671 44.88 248.767 45.5627 252.436 46.928C256.191 48.2933 259.391 50.1707 262.036 52.56C264.767 54.9493 266.857 57.808 268.308 61.136C269.844 64.464 270.612 68.0907 270.612 72.016C270.612 74.9173 269.801 77.136 268.18 78.672C266.559 80.208 264.297 81.1893 261.396 81.616L229.78 86.352C230.719 89.168 232.639 91.3013 235.54 92.752C238.441 94.1173 241.769 94.8 245.524 94.8C249.023 94.8 252.308 94.3733 255.38 93.52C258.537 92.5813 261.097 91.5147 263.06 90.32C264.425 91.1733 265.577 92.368 266.516 93.904C267.455 95.44 267.924 97.0613 267.924 98.768C267.924 102.608 266.132 105.467 262.548 107.344C259.817 108.795 256.745 109.776 253.332 110.288C249.919 110.8 246.719 111.056 243.732 111.056ZM240.148 60.752C238.1 60.752 236.308 61.0933 234.772 61.776C233.321 62.4587 232.127 63.3547 231.188 64.464C230.249 65.488 229.524 66.6827 229.012 68.048C228.585 69.328 228.329 70.6507 228.244 72.016L250.132 68.432C249.876 66.7253 248.937 65.0187 247.316 63.312C245.695 61.6053 243.305 60.752 240.148 60.752ZM277.005 56.912C277.688 53.6693 279.01 51.024 280.973 48.976C283.021 46.928 285.538 45.904 288.525 45.904C291.341 45.904 293.517 46.5867 295.053 47.952C296.589 49.3173 298.296 51.2373 300.173 53.712L308.365 64.464L322.061 45.904C326.754 45.904 330.466 46.7573 333.197 48.464C335.928 50.0853 337.293 52.304 337.293 55.12C337.293 56.2293 337.122 57.2533 336.781 58.192C336.525 59.0453 336.098 59.9413 335.501 60.88C334.904 61.8187 334.136 62.8853 333.197 64.08C332.258 65.2747 331.149 66.6827 329.869 68.304L321.421 77.776L338.189 99.92C337.762 103.163 336.482 105.723 334.349 107.6C332.216 109.477 329.656 110.416 326.669 110.416C323.426 110.331 320.824 109.392 318.861 107.6C316.984 105.808 315.149 103.632 313.357 101.072L306.445 91.216L293.389 110.032C292.962 110.032 292.493 110.032 291.981 110.032C291.469 110.117 291.042 110.16 290.701 110.16C286.349 110.16 283.021 109.264 280.717 107.472C278.498 105.68 277.389 103.461 277.389 100.816C277.389 98.768 277.858 96.976 278.797 95.44C279.821 93.8187 281.528 91.6427 283.917 88.912L294.157 77.008L277.005 56.912Z" fill="black"/>
<path d="M55.248 64.976L64.3987 75.5715C64.4106 75.5612 64.4226 75.5508 64.4345 75.5405L55.248 64.976ZM55.12 49.872L45.6802 60.2108C45.8361 60.3531 45.9952 60.492 46.1574 60.6271L55.12 49.872ZM42.96 47.312V61.312C43.3831 61.312 43.8061 61.2928 44.2275 61.2545L42.96 47.312ZM40.272 47.568L37.7676 33.7938C31.1107 35.0042 26.272 40.802 26.272 47.568H40.272ZM40.272 67.408H26.272C26.272 75.14 32.54 81.408 40.272 81.408V67.408ZM40.4 108.496L44.0836 122.003C50.1745 120.342 54.4 114.809 54.4 108.496H40.4ZM35.92 109.264L34.1835 95.3721C34.1587 95.3752 34.134 95.3784 34.1092 95.3816L35.92 109.264ZM24.784 109.136L27.821 95.4694C27.6206 95.4248 27.4192 95.3847 27.217 95.349L24.784 109.136ZM21.072 107.6L12.672 118.8H12.672L21.072 107.6ZM18.768 104.4L5.65938 109.316L5.65939 109.316L18.768 104.4ZM19.408 34.64L29.3075 44.5395L29.3075 44.5395L19.408 34.64ZM23.504 32.208L28.1289 45.422C28.1404 45.418 28.152 45.4139 28.1635 45.4099L23.504 32.208ZM33.36 30.032L34.977 43.9383C35.0686 43.9276 35.1602 43.9161 35.2516 43.9036L33.36 30.032ZM71.632 36.816L62.8318 47.7044L71.632 36.816ZM78.928 68.688L65.9293 63.4885C65.9062 63.5463 65.8835 63.6042 65.8612 63.6623L78.928 68.688ZM73.04 77.392L82.5925 87.6268C82.5964 87.6231 82.6003 87.6195 82.6042 87.6158L73.04 77.392ZM63.184 83.024L67.5243 96.3342C67.5815 96.3156 67.6387 96.2965 67.6957 96.2771L63.184 83.024ZM40.4 84.944V70.944C32.668 70.944 26.4 77.212 26.4 84.944H40.4ZM47.056 67.408V81.408C52.5325 81.408 59.0529 80.1883 64.3987 75.5715L55.248 64.976L46.0973 54.3805C46.8681 53.7148 47.5512 53.4551 47.8076 53.3789C48.0188 53.3162 47.8302 53.408 47.056 53.408V67.408ZM55.248 64.976L64.4345 75.5405C70.3417 70.4038 72.192 63.4163 72.192 57.296H58.192H44.192C44.192 57.6939 44.1313 57.4229 44.3835 56.7649C44.6679 56.023 45.218 55.145 46.0615 54.4115L55.248 64.976ZM58.192 57.296H72.192C72.192 50.8858 70.0104 44.0568 64.0826 39.1169L55.12 49.872L46.1574 60.6271C45.4304 60.0213 44.8389 59.2096 44.4878 58.3609C44.1662 57.5838 44.192 57.1338 44.192 57.296H58.192ZM55.12 49.872L64.5598 39.5332C59.0712 34.5219 52.2116 33.184 46.416 33.184V47.184V61.184C47.2878 61.184 47.5278 61.2903 47.341 61.2326C47.101 61.1585 46.4263 60.892 45.6802 60.2108L55.12 49.872ZM46.416 47.184V33.184C44.797 33.184 43.1931 33.2331 41.6925 33.3695L42.96 47.312L44.2275 61.2545C44.6043 61.2203 45.3043 61.184 46.416 61.184V47.184ZM42.96 47.312V33.312C41.1752 33.312 39.4374 33.4902 37.7676 33.7938L40.272 47.568L42.7764 61.3422C42.984 61.3044 43.0381 61.312 42.96 61.312V47.312ZM40.272 47.568H26.272V67.408H40.272H54.272V47.568H40.272ZM40.272 67.408V81.408H47.056V67.408V53.408H40.272V67.408ZM40.4 108.496L36.7163 94.9893C36.8504 94.9527 36.7282 94.9925 36.2105 95.0813C35.732 95.1633 35.0666 95.2617 34.1835 95.3721L35.92 109.264L37.6565 123.156C39.8028 122.888 42.1278 122.536 44.0836 122.003L40.4 108.496ZM35.92 109.264L34.1092 95.3816C32.7419 95.5599 31.3841 95.648 30.032 95.648V109.648V123.648C32.6053 123.648 35.1728 123.48 37.7307 123.146L35.92 109.264ZM30.032 109.648V95.648C28.8514 95.648 28.1506 95.5426 27.821 95.4694L24.784 109.136L21.747 122.803C24.4894 123.412 27.2872 123.648 30.032 123.648V109.648ZM24.784 109.136L27.217 95.349C27.6032 95.4172 28.4896 95.6632 29.472 96.4L21.072 107.6L12.672 118.8C15.7024 121.073 19.0634 122.343 22.351 122.923L24.784 109.136ZM21.072 107.6L29.472 96.4C30.871 97.4493 31.5847 98.7059 31.8766 99.4843L18.768 104.4L5.65939 109.316C6.97526 112.825 9.22498 116.215 12.672 118.8L21.072 107.6ZM18.768 104.4L31.8766 99.4843C31.9663 99.7235 32.0135 99.8974 32.0353 99.9871C32.0573 100.077 32.0585 100.103 32.0513 100.052C32.0351 99.9386 32 99.6125 32 99.024H18H3.99999C3.99999 102.137 4.33408 105.782 5.65938 109.316L18.768 104.4ZM18 99.024H32V38.736H18H3.99999V99.024H18ZM18 38.736H32C32 39.3206 31.8085 42.0385 29.3075 44.5395L19.408 34.64L9.50851 24.7405C5.13019 29.1188 3.99999 34.5674 3.99999 38.736H18ZM19.408 34.64L29.3075 44.5395C28.5219 45.3251 27.926 45.493 28.1289 45.422L23.504 32.208L18.8791 18.994C15.6686 20.1176 12.3421 21.9069 9.50849 24.7405L19.408 34.64ZM23.504 32.208L28.1635 45.4099C29.9071 44.7945 32.1453 44.2676 34.977 43.9383L33.36 30.032L31.743 16.1257C27.236 16.6498 22.9035 17.5735 18.8445 19.0061L23.504 32.208ZM33.36 30.032L35.2516 43.9036C38.3851 43.4763 41.5079 43.264 44.624 43.264V29.264V15.264C40.2308 15.264 35.8442 15.5637 31.4684 16.1604L33.36 30.032ZM44.624 29.264V43.264C54.6531 43.264 60.0294 45.4394 62.8318 47.7044L71.632 36.816L80.4322 25.9276C70.7759 18.1233 58.1469 15.264 44.624 15.264V29.264ZM71.632 36.816L62.8318 47.7044C65.4962 49.8578 66.976 52.5374 66.976 57.296H80.976H94.976C94.976 44.8173 90.2264 33.8435 80.4322 25.9276L71.632 36.816ZM80.976 57.296H66.976C66.976 59.9391 66.5486 61.9403 65.9293 63.4885L78.928 68.688L91.9267 73.8875C94.0381 68.609 94.976 63.0156 94.976 57.296H80.976ZM78.928 68.688L65.8612 63.6623C65.3532 64.9829 64.6012 66.1154 63.4758 67.1682L73.04 77.392L82.6042 87.6158C86.7695 83.7192 89.9427 79.0491 91.9948 73.7137L78.928 68.688ZM73.04 77.392L63.4875 67.1572C62.6463 67.9424 61.1939 68.9125 58.6723 69.7709L63.184 83.024L67.6957 96.2771C73.1954 94.4049 78.3137 91.6203 82.5925 87.6268L73.04 77.392ZM63.184 83.024L58.8437 69.7138C56.6301 70.4356 53.5856 70.944 49.488 70.944V84.944V98.944C55.801 98.944 61.8872 98.1724 67.5243 96.3342L63.184 83.024ZM49.488 84.944V70.944H40.4V84.944V98.944H49.488V84.944ZM40.4 84.944H26.4V108.496H40.4H54.4V84.944H40.4ZM92.149 21.328L82.2495 11.4285C82.1848 11.4932 82.1207 11.5585 82.0573 11.6245L92.149 21.328ZM109.429 21.328L99.3373 31.0315C99.4007 31.0975 99.4648 31.1628 99.5295 31.2275L109.429 21.328ZM109.429 37.712L99.5295 27.8125C99.4648 27.8772 99.4007 27.9425 99.3373 28.0085L109.429 37.712ZM92.149 37.712L82.0573 47.4155C82.1208 47.4815 82.1848 47.5468 82.2495 47.6115L92.149 37.712ZM111.733 108.88L114.237 122.654C120.894 121.444 125.733 115.646 125.733 108.88H111.733ZM107.509 109.52L105.617 95.6484C105.374 95.6816 105.131 95.7212 104.889 95.7673L107.509 109.52ZM96.885 109.648L94.452 123.435C94.4958 123.443 94.5396 123.45 94.5834 123.458L96.885 109.648ZM93.173 108.112L84.773 119.312H84.773L93.173 108.112ZM90.741 105.04L77.6324 109.956C77.76 110.296 77.9008 110.631 78.0544 110.96L90.741 105.04ZM89.973 47.696L87.4686 33.9218C80.8117 35.1322 75.973 40.93 75.973 47.696H89.973ZM94.069 47.056L96.0489 60.9153C96.2242 60.8902 96.3991 60.8619 96.5734 60.8302L94.069 47.056ZM104.693 46.928L102.26 60.715C102.304 60.7227 102.348 60.7302 102.391 60.7375L104.693 46.928ZM108.533 48.464L100.133 59.664L100.133 59.664L108.533 48.464ZM110.837 51.664L97.7284 56.5797C97.856 56.92 97.9968 57.2551 98.1504 57.5844L110.837 51.664ZM88.949 29.52H102.949C102.949 29.4568 102.954 29.7121 102.789 30.1339C102.619 30.5691 102.386 30.8806 102.241 31.0315L92.149 21.328L82.0573 11.6245C77.2718 16.6014 74.949 22.8733 74.949 29.52H88.949ZM92.149 21.328L102.048 31.2275C101.932 31.3441 101.772 31.4796 101.571 31.6102C101.37 31.7411 101.169 31.8399 100.989 31.9087C100.618 32.0506 100.511 32 100.853 32V18V4C94.1299 4 87.4734 6.20456 82.2495 11.4285L92.149 21.328ZM100.853 18V32C101.2 32 101.054 32.052 100.62 31.8837C100.407 31.8011 100.168 31.6816 99.9272 31.5207C99.6861 31.3599 99.4883 31.1885 99.3373 31.0315L109.429 21.328L119.521 11.6245C114.311 6.20592 107.564 4 100.853 4V18ZM109.429 21.328L99.5295 31.2275C99.4027 31.1007 99.1485 30.787 98.9545 30.3093C98.8655 30.0903 98.8129 29.894 98.7844 29.7403C98.7563 29.5894 98.757 29.5096 98.757 29.52H112.757H126.757C126.757 22.7032 124.269 16.3693 119.328 11.4285L109.429 21.328ZM112.757 29.52H98.757C98.757 29.5304 98.7563 29.4506 98.7843 29.2997C98.8129 29.146 98.8655 28.9497 98.9545 28.7307C99.1485 28.253 99.4027 27.9393 99.5295 27.8125L109.429 37.712L119.328 47.6115C124.269 42.6707 126.757 36.3368 126.757 29.52H112.757ZM109.429 37.712L99.3373 28.0085C99.4882 27.8515 99.686 27.6801 99.9272 27.5193C100.168 27.3584 100.407 27.2389 100.62 27.1563C101.054 26.988 101.2 27.04 100.853 27.04V41.04V55.04C107.565 55.04 114.311 52.8341 119.521 47.4155L109.429 37.712ZM100.853 41.04V27.04C100.511 27.04 100.618 26.9894 100.989 27.1313C101.169 27.2001 101.37 27.2989 101.571 27.4298C101.772 27.5604 101.932 27.6959 102.048 27.8125L92.149 37.712L82.2495 47.6115C87.4734 52.8354 94.1299 55.04 100.853 55.04V41.04ZM92.149 37.712L102.241 28.0085C102.386 28.1594 102.619 28.4709 102.789 28.9061C102.954 29.3279 102.949 29.5832 102.949 29.52H88.949H74.949C74.949 36.1667 77.2718 42.4386 82.0573 47.4155L92.149 37.712ZM111.733 108.88L109.229 95.1058C108.606 95.2191 107.448 95.3988 105.617 95.6484L107.509 109.52L109.401 123.392C111.325 123.129 112.983 122.882 114.237 122.654L111.733 108.88ZM107.509 109.52L104.889 95.7673C103.986 95.9394 103.029 96.032 102.005 96.032V110.032V124.032C104.736 124.032 107.448 123.783 110.129 123.273L107.509 109.52ZM102.005 110.032V96.032C100.748 96.032 99.826 95.9451 99.1866 95.8385L96.885 109.648L94.5834 123.458C97.0159 123.863 99.5078 124.032 102.005 124.032V110.032ZM96.885 109.648L99.318 95.861C99.7042 95.9292 100.591 96.1752 101.573 96.912L93.173 108.112L84.773 119.312C87.8034 121.585 91.1644 122.855 94.452 123.435L96.885 109.648ZM93.173 108.112L101.573 96.912C102.575 97.6636 103.154 98.5343 103.428 99.1196L90.741 105.04L78.0544 110.96C79.5222 114.106 81.7229 117.024 84.773 119.312L93.173 108.112ZM90.741 105.04L103.85 100.124C103.931 100.342 103.976 100.503 103.998 100.592C104.02 100.682 104.023 100.713 104.017 100.677C104.012 100.641 104.001 100.55 103.991 100.399C103.981 100.248 103.973 100.047 103.973 99.792H89.973H75.973C75.973 102.897 76.3253 106.47 77.6324 109.956L90.741 105.04ZM89.973 99.792H103.973V47.696H89.973H75.973V99.792H89.973ZM89.973 47.696L92.4774 61.4702C93.1505 61.3478 94.3068 61.1642 96.0489 60.9153L94.069 47.056L92.0891 33.1967C90.2472 33.4598 88.6728 33.7029 87.4686 33.9218L89.973 47.696ZM94.069 47.056L96.5734 60.8302C97.638 60.6366 98.6772 60.544 99.701 60.544V46.544V32.544C96.9701 32.544 94.2547 32.7927 91.5646 33.2818L94.069 47.056ZM99.701 46.544V60.544C100.973 60.544 101.796 60.633 102.26 60.715L104.693 46.928L107.126 33.141C104.689 32.711 102.184 32.544 99.701 32.544V46.544ZM104.693 46.928L102.391 60.7375C102.188 60.7037 101.252 60.503 100.133 59.664L108.533 48.464L116.933 37.264C113.766 34.889 110.27 33.6643 106.995 33.1185L104.693 46.928ZM108.533 48.464L100.133 59.664C98.734 58.6147 98.0203 57.3581 97.7284 56.5797L110.837 51.664L123.946 46.7483C122.63 43.2393 120.38 39.8493 116.933 37.264L108.533 48.464ZM110.837 51.664L98.1504 57.5844C97.8267 56.8907 97.7354 56.4137 97.7186 56.3173C97.7009 56.2163 97.733 56.3489 97.733 56.784H111.733H125.733C125.733 53.5539 125.313 49.5787 123.524 45.7436L110.837 51.664ZM111.733 56.784H97.733V108.88H111.733H125.733V56.784H111.733ZM149.522 92.368H135.522C135.522 99.134 140.361 104.932 147.018 106.142L149.522 92.368ZM152.978 92.88L151.242 106.772C151.528 106.808 151.816 106.835 152.105 106.853L152.978 92.88ZM164.754 91.728L160.19 78.4928C160.142 78.5095 160.093 78.5264 160.045 78.5436L164.754 91.728ZM171.026 87.76L161.127 77.8605C161.046 77.941 160.967 78.0224 160.888 78.1048L171.026 87.76ZM175.122 80.848L161.92 76.1885C161.893 76.2657 161.866 76.3432 161.84 76.4208L175.122 80.848ZM171.282 53.2L160.943 62.6398C160.978 62.6775 161.012 62.7151 161.047 62.7525L171.282 53.2ZM153.234 47.44L152.303 33.471C152.281 33.4725 152.259 33.474 152.237 33.4756L153.234 47.44ZM149.522 47.824L147.672 33.9468C140.716 34.8742 135.522 40.8072 135.522 47.824H149.522ZM151.698 110.928L151.062 124.914V124.914L151.698 110.928ZM145.81 110.416L143.999 124.298C144.024 124.302 144.049 124.305 144.074 124.308L145.81 110.416ZM139.794 109.392L142.649 95.6863C142.498 95.6547 142.345 95.6256 142.193 95.599L139.794 109.392ZM134.29 107.856L139.489 94.8573C139.421 94.83 139.353 94.8032 139.284 94.7769L134.29 107.856ZM128.658 34.64L138.557 44.5395L138.557 44.5395L128.658 34.64ZM132.754 32.208L128.42 18.8958C128.323 18.9275 128.226 18.9602 128.129 18.994L132.754 32.208ZM144.402 29.904L145.565 43.8556C145.661 43.8476 145.757 43.8386 145.852 43.8287L144.402 29.904ZM173.458 31.696L169.416 45.0997C169.435 45.1055 169.454 45.1113 169.474 45.1171L173.458 31.696ZM187.41 39.248L178.109 49.7117C178.191 49.7843 178.273 49.8559 178.356 49.9266L187.41 39.248ZM196.498 51.92L183.575 57.3046V57.3046L196.498 51.92ZM196.626 88.016L209.594 93.2912C209.604 93.266 209.615 93.2407 209.625 93.2155L196.626 88.016ZM187.794 100.816L197.211 111.175C197.215 111.172 197.219 111.168 197.223 111.165L187.794 100.816ZM174.226 108.496L169.928 95.1721L174.226 108.496ZM149.522 92.368L147.018 106.142C148.295 106.374 149.721 106.582 151.242 106.772L152.978 92.88L154.714 78.9881C153.505 78.8369 152.626 78.7029 152.026 78.5938L149.522 92.368ZM152.978 92.88L152.105 106.853C153.72 106.954 155.294 107.008 156.818 107.008V93.008V79.008C155.953 79.008 154.967 78.977 153.851 78.9073L152.978 92.88ZM156.818 93.008V107.008C161.097 107.008 165.362 106.377 169.463 104.912L164.754 91.728L160.045 78.5436C159.367 78.7858 158.342 79.008 156.818 79.008V93.008ZM164.754 91.728L169.318 104.963C173.784 103.423 177.823 100.923 181.164 97.4152L171.026 87.76L160.888 78.1048C160.816 78.1809 160.673 78.3263 160.19 78.4928L164.754 91.728ZM171.026 87.76L180.925 97.6595C184.497 94.0881 186.895 89.801 188.404 85.2752L175.122 80.848L161.84 76.4208C161.472 77.527 161.139 77.8479 161.127 77.8605L171.026 87.76ZM175.122 80.848L188.324 85.5075C190.009 80.733 190.658 75.6223 190.658 70.48H176.658H162.658C162.658 73.359 162.283 75.1603 161.92 76.1885L175.122 80.848ZM176.658 70.48H190.658C190.658 60.873 188.436 51.0607 181.517 43.6475L171.282 53.2L161.047 62.7525C161.296 63.0193 162.658 64.727 162.658 70.48H176.658ZM171.282 53.2L181.621 43.7602C175.041 36.5538 166.314 33.312 156.946 33.312V47.312V61.312C159.525 61.312 160.355 61.9955 160.943 62.6398L171.282 53.2ZM156.946 47.312V33.312C155.419 33.312 153.87 33.3665 152.303 33.471L153.234 47.44L154.165 61.409C155.158 61.3428 156.084 61.312 156.946 61.312V47.312ZM153.234 47.44L152.237 33.4756C150.736 33.5828 149.213 33.7413 147.672 33.9468L149.522 47.824L151.372 61.7012C152.391 61.5654 153.343 61.4679 154.231 61.4044L153.234 47.44ZM149.522 47.824H135.522V92.368H149.522H163.522V47.824H149.522ZM156.69 111.056V97.056C155.502 97.056 154.057 97.0208 152.334 96.9424L151.698 110.928L151.062 124.914C153.093 125.006 154.976 125.056 156.69 125.056V111.056ZM151.698 110.928L152.334 96.9424C150.858 96.8754 149.264 96.7388 147.546 96.5241L145.81 110.416L144.074 124.308C146.452 124.605 148.783 124.81 151.062 124.914L151.698 110.928ZM145.81 110.416L147.621 96.5336C146.028 96.3258 144.371 96.0449 142.649 95.6863L139.794 109.392L136.939 123.098C139.313 123.592 141.667 123.994 143.999 124.298L145.81 110.416ZM139.794 109.392L142.193 95.599C141.109 95.4106 140.221 95.1499 139.489 94.8573L134.29 107.856L129.091 120.855C131.772 121.927 134.553 122.691 137.395 123.185L139.794 109.392ZM134.29 107.856L139.284 94.7769C138.698 94.5531 139.384 94.6799 140.192 95.7515C140.588 96.2779 140.881 96.8648 141.059 97.4377C141.232 97.9919 141.25 98.3825 141.25 98.512H127.25H113.25C113.25 103.332 114.579 108.287 117.828 112.6C120.982 116.787 125.189 119.367 129.296 120.935L134.29 107.856ZM127.25 98.512H141.25V38.736H127.25H113.25V98.512H127.25ZM127.25 38.736H141.25C141.25 39.3206 141.058 42.0385 138.557 44.5395L128.658 34.64L118.759 24.7405C114.38 29.1188 113.25 34.5674 113.25 38.736H127.25ZM128.658 34.64L138.557 44.5395C137.772 45.3251 137.176 45.493 137.379 45.422L132.754 32.208L128.129 18.994C124.919 20.1176 121.592 21.9069 118.758 24.7405L128.658 34.64ZM132.754 32.208L137.088 45.5202C139.664 44.6815 142.477 44.1129 145.565 43.8556L144.402 29.904L143.239 15.9524C138.135 16.3777 133.183 17.3451 128.42 18.8958L132.754 32.208ZM144.402 29.904L145.852 43.8287C149.588 43.4395 152.76 43.264 155.41 43.264V29.264V15.264C151.574 15.264 147.408 15.5152 142.952 15.9793L144.402 29.904ZM155.41 29.264V43.264C160.943 43.264 165.567 43.939 169.416 45.0997L173.458 31.696L177.5 18.2923C170.597 16.2103 163.189 15.264 155.41 15.264V29.264ZM173.458 31.696L169.474 45.1171C173.183 46.2184 175.963 47.8042 178.109 49.7117L187.41 39.248L196.711 28.7843C191.177 23.8652 184.655 20.4163 177.442 18.2749L173.458 31.696ZM187.41 39.248L178.356 49.9266C180.461 51.7112 182.226 54.0678 183.575 57.3046L196.498 51.92L209.421 46.5354C206.503 39.5322 202.209 33.4408 196.464 28.5694L187.41 39.248ZM196.498 51.92L183.575 57.3046C184.838 60.3356 185.698 64.4814 185.698 70.096H199.698H213.698C213.698 61.7159 212.425 53.7444 209.421 46.5354L196.498 51.92ZM199.698 70.096H185.698C185.698 75.5515 184.877 79.6924 183.627 82.8165L196.626 88.016L209.625 93.2155C212.471 86.0996 213.698 78.2939 213.698 70.096H199.698ZM196.626 88.016L183.658 82.7408C182.359 85.9334 180.59 88.44 178.365 90.4673L187.794 100.816L197.223 111.165C202.678 106.195 206.797 100.168 209.594 93.2912L196.626 88.016ZM187.794 100.816L178.377 90.4568C176.234 92.4048 173.504 94.0186 169.928 95.1721L174.226 108.496L178.524 121.82C185.53 119.56 191.845 116.054 197.211 111.175L187.794 100.816ZM174.226 108.496L169.928 95.1721C166.218 96.3689 161.847 97.056 156.69 97.056V111.056V125.056C164.333 125.056 171.653 124.036 178.524 121.82L174.226 108.496ZM229.652 109.008L225.145 122.263C225.25 122.298 225.356 122.333 225.461 122.366L229.652 109.008ZM218.388 102.608L209.069 113.056C209.115 113.097 209.162 113.138 209.208 113.178L218.388 102.608ZM210.836 91.984L197.928 97.4053C197.959 97.4779 197.99 97.5502 198.022 97.6223L210.836 91.984ZM210.836 62.544L198.109 56.7108C198.09 56.7514 198.072 56.7921 198.054 56.8328L210.836 62.544ZM218.132 52.56L227.243 63.1896C227.301 63.1403 227.358 63.0905 227.414 63.0402L218.132 52.56ZM228.372 46.8L232.531 60.168C232.621 60.1401 232.71 60.1113 232.799 60.0816L228.372 46.8ZM252.436 46.928L247.554 60.0491C247.586 60.0612 247.619 60.0732 247.652 60.0851L252.436 46.928ZM262.036 52.56L252.652 62.9494C252.707 62.9987 252.762 63.0476 252.817 63.0961L262.036 52.56ZM268.308 61.136L255.474 66.7302C255.514 66.8215 255.555 66.9124 255.597 67.0028L268.308 61.136ZM268.18 78.672L258.552 68.5087L258.552 68.5087L268.18 78.672ZM261.396 81.616L259.359 67.765C259.347 67.7668 259.334 67.7686 259.322 67.7705L261.396 81.616ZM229.78 86.352L227.706 72.5065C223.617 73.119 220.008 75.5077 217.846 79.0323C215.684 82.5568 215.191 86.8567 216.498 90.7792L229.78 86.352ZM235.54 92.752L229.279 105.274C229.378 105.324 229.478 105.372 229.579 105.419L235.54 92.752ZM255.38 93.52L259.127 107.009C259.208 106.987 259.289 106.963 259.37 106.94L255.38 93.52ZM263.06 90.32L270.48 78.448C265.991 75.6423 260.303 75.6087 255.781 78.3612L263.06 90.32ZM266.516 93.904L278.462 86.6037V86.6037L266.516 93.904ZM262.548 107.344L256.052 94.9424C256.028 94.955 256.004 94.9676 255.98 94.9804L262.548 107.344ZM253.332 110.288L251.255 96.4429V96.4429L253.332 110.288ZM234.772 61.776L229.086 48.9826C228.994 49.0236 228.902 49.0656 228.811 49.1085L234.772 61.776ZM231.188 64.464L241.508 73.9242C241.633 73.7876 241.756 73.6486 241.875 73.5072L231.188 64.464ZM229.012 68.048L215.903 63.1323C215.843 63.294 215.785 63.4569 215.73 63.6208L229.012 68.048ZM228.244 72.016L214.271 71.1427C214.005 75.3957 215.691 79.5383 218.851 82.3973C222.011 85.2564 226.301 86.5206 230.506 85.832L228.244 72.016ZM250.132 68.432L252.394 82.248C259.952 81.0104 265.113 73.9293 263.977 66.3552L250.132 68.432ZM247.316 63.312L257.466 53.6695V53.6695L247.316 63.312ZM243.732 111.056V97.056C239.972 97.056 236.706 96.5481 233.843 95.65L229.652 109.008L225.461 122.366C231.302 124.199 237.422 125.056 243.732 125.056V111.056ZM229.652 109.008L234.159 95.7532C231.523 94.857 229.374 93.6064 227.568 92.0375L218.388 102.608L209.208 113.178C213.887 117.242 219.248 120.258 225.145 122.263L229.652 109.008ZM218.388 102.608L227.707 92.1599C226.192 90.8089 224.803 88.9658 223.65 86.3457L210.836 91.984L198.022 97.6223C200.623 103.536 204.269 108.775 209.069 113.056L218.388 102.608ZM210.836 91.984L223.744 86.5628C222.821 84.3654 222.148 81.2889 222.148 77.008H208.148H194.148C194.148 84.1618 195.267 91.0692 197.928 97.4053L210.836 91.984ZM208.148 77.008H222.148C222.148 72.8101 222.822 70.0381 223.618 68.2552L210.836 62.544L198.054 56.8328C195.266 63.0713 194.148 69.9419 194.148 77.008H208.148ZM210.836 62.544L223.563 68.3772C224.719 65.8554 226.003 64.2523 227.243 63.1896L218.132 52.56L209.021 41.9304C204.287 45.9877 200.708 51.0406 198.109 56.7108L210.836 62.544ZM218.132 52.56L227.414 63.0402C228.905 61.7202 230.568 60.7786 232.531 60.168L228.372 46.8L224.213 33.432C218.496 35.2108 213.332 38.1091 208.85 42.0798L218.132 52.56ZM228.372 46.8L232.799 60.0816C235.225 59.2729 237.656 58.88 240.148 58.88V44.88V30.88C234.618 30.88 229.199 31.7671 223.945 33.5184L228.372 46.8ZM240.148 44.88V58.88C243.259 58.88 245.669 59.3477 247.554 60.0491L252.436 46.928L257.318 33.8069C251.865 31.7777 246.083 30.88 240.148 30.88V44.88ZM252.436 46.928L247.652 60.0851C249.913 60.9076 251.5 61.9085 252.652 62.9494L262.036 52.56L271.42 42.1706C267.282 38.4328 262.468 35.6791 257.22 33.7709L252.436 46.928ZM262.036 52.56L252.817 63.0961C253.992 64.1242 254.849 65.2949 255.474 66.7302L268.308 61.136L281.142 55.5418C278.866 50.3211 275.541 45.7745 271.255 42.0239L262.036 52.56ZM268.308 61.136L255.597 67.0028C256.224 68.3632 256.612 69.9702 256.612 72.016H270.612H284.612C284.612 66.2111 283.464 60.5648 281.019 55.2692L268.308 61.136ZM270.612 72.016H256.612C256.612 72.1889 256.585 71.7876 256.854 71.0513C257.148 70.2464 257.699 69.3161 258.552 68.5087L268.18 78.672L277.808 88.8354C282.991 83.9255 284.612 77.5527 284.612 72.016H270.612ZM268.18 78.672L258.552 68.5087C259.043 68.0434 259.483 67.8092 259.695 67.7172C259.883 67.6355 259.815 67.698 259.359 67.765L261.396 81.616L263.433 95.467C268.3 94.7513 273.53 92.8888 277.808 88.8353L268.18 78.672ZM261.396 81.616L259.322 67.7705L227.706 72.5065L229.78 86.352L231.854 100.198L263.47 95.4615L261.396 81.616ZM229.78 86.352L216.498 90.7792C218.726 97.4619 223.396 102.332 229.279 105.274L235.54 92.752L241.801 80.23C241.715 80.1869 241.975 80.3045 242.33 80.6985C242.702 81.112 242.943 81.5705 243.062 81.9248L229.78 86.352ZM235.54 92.752L229.579 105.419C234.638 107.8 240.058 108.8 245.524 108.8V94.8V80.8C243.48 80.8 242.245 80.4347 241.501 80.0845L235.54 92.752ZM245.524 94.8V108.8C250.167 108.8 254.723 108.233 259.127 107.009L255.38 93.52L251.633 80.0308C249.893 80.514 247.878 80.8 245.524 80.8V94.8ZM255.38 93.52L259.37 106.94C263.228 105.792 267.009 104.306 270.339 102.279L263.06 90.32L255.781 78.3612C255.185 78.7236 253.847 79.3703 251.39 80.1005L255.38 93.52ZM263.06 90.32L255.64 102.192C255.322 101.994 255.064 101.775 254.87 101.574C254.68 101.377 254.589 101.235 254.57 101.204L266.516 93.904L278.462 86.6037C276.525 83.4344 273.896 80.5833 270.48 78.448L263.06 90.32ZM266.516 93.904L254.57 101.204C254.432 100.979 254.258 100.629 254.124 100.165C253.988 99.6961 253.924 99.217 253.924 98.768H267.924H281.924C281.924 94.3418 280.667 90.2121 278.462 86.6037L266.516 93.904ZM267.924 98.768H253.924C253.924 98.4302 254.032 97.4511 254.718 96.3561C255.379 95.301 256.086 94.9248 256.052 94.9424L262.548 107.344L269.044 119.746C272.594 117.886 275.989 115.142 278.442 111.228C280.92 107.274 281.924 102.946 281.924 98.768H267.924ZM262.548 107.344L255.98 94.9804C254.805 95.6047 253.279 96.1393 251.255 96.4429L253.332 110.288L255.409 124.133C260.211 123.413 264.83 121.985 269.116 119.708L262.548 107.344ZM253.332 110.288L251.255 96.4429C248.426 96.8673 245.926 97.056 243.732 97.056V111.056V125.056C247.511 125.056 251.411 124.733 255.409 124.133L253.332 110.288ZM240.148 60.752V46.752C236.559 46.752 232.758 47.3505 229.086 48.9826L234.772 61.776L240.458 74.5694C239.858 74.8362 239.641 74.752 240.148 74.752V60.752ZM234.772 61.776L228.811 49.1085C225.732 50.5572 222.865 52.6263 220.501 55.4208L231.188 64.464L241.875 73.5072C241.388 74.083 240.91 74.3601 240.733 74.4435L234.772 61.776ZM231.188 64.464L220.868 55.0038C218.657 57.4152 217.013 60.1723 215.903 63.1323L229.012 68.048L242.121 72.9637C242.083 73.063 242.016 73.2135 241.907 73.3937C241.797 73.5752 241.662 73.7562 241.508 73.9242L231.188 64.464ZM229.012 68.048L215.73 63.6208C214.915 66.0666 214.431 68.5848 214.271 71.1427L228.244 72.016L242.217 72.8893C242.228 72.7165 242.255 72.5894 242.294 72.4752L229.012 68.048ZM228.244 72.016L230.506 85.832L252.394 82.248L250.132 68.432L247.87 54.616L225.982 58.2L228.244 72.016ZM250.132 68.432L263.977 66.3552C263.165 60.9408 260.362 56.718 257.466 53.6695L247.316 63.312L237.166 72.9545C237.513 73.3193 236.587 72.5099 236.287 70.5088L250.132 68.432ZM247.316 63.312L257.466 53.6695C252.391 48.3278 245.782 46.752 240.148 46.752V60.752V74.752C240.499 74.752 240.234 74.8031 239.599 74.5764C238.892 74.3238 237.982 73.8137 237.166 72.9545L247.316 63.312ZM277.005 56.912L263.305 54.0279C262.411 58.276 263.538 62.6987 266.356 66.0007L277.005 56.912ZM280.973 48.976L271.073 39.0765C271.003 39.1467 270.934 39.2177 270.865 39.2893L280.973 48.976ZM300.173 53.712L289.019 62.1734C289.025 62.1811 289.031 62.1889 289.037 62.1966L300.173 53.712ZM308.365 64.464L297.229 72.9486C299.9 76.4541 304.065 78.4974 308.472 78.4636C312.879 78.4298 317.013 76.3228 319.63 72.7767L308.365 64.464ZM322.061 45.904V31.904C317.616 31.904 313.435 34.0147 310.796 37.5913L322.061 45.904ZM333.197 48.464L325.777 60.336C325.867 60.3923 325.958 60.4477 326.049 60.502L333.197 48.464ZM336.781 58.192L323.624 53.4076C323.532 53.659 323.448 53.9129 323.371 54.1691L336.781 58.192ZM329.869 68.304L340.317 77.6226C340.504 77.4135 340.684 77.1989 340.857 76.979L329.869 68.304ZM321.421 77.776L310.973 68.4574C306.52 73.4497 306.222 80.8945 310.26 86.2275L321.421 77.776ZM338.189 99.92L352.069 101.746C352.55 98.0961 351.573 94.4036 349.35 91.4685L338.189 99.92ZM334.349 107.6L325.1 97.09V97.09L334.349 107.6ZM326.669 110.416L326.301 124.411C326.423 124.414 326.546 124.416 326.669 124.416V110.416ZM318.861 107.6L309.194 117.727C309.269 117.798 309.345 117.869 309.421 117.939L318.861 107.6ZM313.357 101.072L324.826 93.0435L324.819 93.0335L313.357 101.072ZM306.445 91.216L317.907 83.1775C315.28 79.4307 310.986 77.2046 306.41 77.216C301.834 77.2275 297.552 79.4749 294.943 83.2349L306.445 91.216ZM293.389 110.032V124.032C297.978 124.032 302.275 121.783 304.891 118.013L293.389 110.032ZM291.981 110.032V96.032C291.21 96.032 290.44 96.0957 289.679 96.2225L291.981 110.032ZM280.717 107.472L271.92 118.363C271.987 118.417 272.054 118.47 272.122 118.523L280.717 107.472ZM278.797 95.44L266.96 87.9641C266.923 88.0224 266.887 88.0809 266.851 88.1397L278.797 95.44ZM283.917 88.912L294.453 98.1311C294.479 98.1014 294.505 98.0717 294.53 98.0419L283.917 88.912ZM294.157 77.008L304.77 86.1379C309.272 80.9043 309.287 73.1702 304.806 67.9193L294.157 77.008ZM277.005 56.912L290.705 59.7961C290.829 59.2076 290.965 58.8894 291.031 58.757C291.091 58.637 291.112 58.6298 291.081 58.6627L280.973 48.976L270.865 39.2893C266.807 43.5235 264.435 48.6641 263.305 54.0279L277.005 56.912ZM280.973 48.976L290.872 58.8755C290.663 59.0847 290.256 59.4026 289.672 59.6401C289.097 59.8741 288.661 59.904 288.525 59.904V45.904V31.904C281.955 31.904 275.837 34.3128 271.073 39.0765L280.973 48.976ZM288.525 45.904V59.904C289.189 59.904 287.594 60.0536 285.752 58.4157L295.053 47.952L304.354 37.4883C299.44 33.1198 293.493 31.904 288.525 31.904V45.904ZM295.053 47.952L285.752 58.4157C286.356 58.9524 287.444 60.0968 289.019 62.1734L300.173 53.712L311.327 45.2506C309.147 42.3779 306.822 39.6822 304.354 37.4883L295.053 47.952ZM300.173 53.712L289.037 62.1966L297.229 72.9486L308.365 64.464L319.501 55.9794L311.309 45.2274L300.173 53.712ZM308.365 64.464L319.63 72.7767L333.326 54.2167L322.061 45.904L310.796 37.5913L297.1 56.1513L308.365 64.464ZM322.061 45.904V59.904C325.262 59.904 326.068 60.5176 325.777 60.336L333.197 48.464L340.617 36.592C334.865 32.997 328.247 31.904 322.061 31.904V45.904ZM333.197 48.464L326.049 60.502C325.888 60.406 325.084 59.881 324.346 58.6814C323.561 57.4058 323.293 56.0851 323.293 55.12H337.293H351.293C351.293 46.6517 346.674 40.184 340.345 36.426L333.197 48.464ZM337.293 55.12H323.293C323.293 54.7773 323.349 54.1626 323.624 53.4076L336.781 58.192L349.938 62.9764C350.895 60.344 351.293 57.6814 351.293 55.12H337.293ZM336.781 58.192L323.371 54.1691C323.564 53.5288 323.76 53.2534 323.69 53.3637L335.501 60.88L347.312 68.3963C348.437 66.6292 349.486 64.5619 350.191 62.2149L336.781 58.192ZM335.501 60.88L323.69 53.3637C323.412 53.8 322.936 54.4786 322.189 55.4305L333.197 64.08L344.205 72.7295C345.335 71.2921 346.395 69.8374 347.312 68.3963L335.501 60.88ZM333.197 64.08L322.189 55.4305C321.258 56.6143 320.156 58.0134 318.881 59.629L329.869 68.304L340.857 76.979C342.142 75.352 343.258 73.9351 344.205 72.7295L333.197 64.08ZM329.869 68.304L319.421 58.9854L310.973 68.4574L321.421 77.776L331.869 87.0946L340.317 77.6226L329.869 68.304ZM321.421 77.776L310.26 86.2275L327.028 108.372L338.189 99.92L349.35 91.4685L332.582 69.3245L321.421 77.776ZM338.189 99.92L324.309 98.0936C324.27 98.3884 324.239 98.3065 324.387 98.011C324.459 97.8669 324.56 97.7001 324.692 97.5281C324.825 97.3558 324.966 97.2084 325.1 97.09L334.349 107.6L343.598 118.11C348.655 113.659 351.272 107.81 352.069 101.746L338.189 99.92ZM334.349 107.6L325.1 97.09C325.278 96.9331 325.594 96.7199 326.009 96.5677C326.414 96.4195 326.675 96.416 326.669 96.416V110.416V124.416C332.871 124.416 338.77 122.359 343.598 118.11L334.349 107.6ZM326.669 110.416L327.037 96.4208C326.66 96.4109 326.71 96.3614 327.035 96.4783C327.395 96.6084 327.865 96.863 328.301 97.2612L318.861 107.6L309.421 117.939C314.387 122.473 320.466 124.258 326.301 124.411L326.669 110.416ZM318.861 107.6L328.528 97.473C327.438 96.4328 326.192 94.994 324.826 93.0435L313.357 101.072L301.888 109.1C304.106 112.27 306.529 115.183 309.194 117.727L318.861 107.6ZM313.357 101.072L324.819 93.0335L317.907 83.1775L306.445 91.216L294.983 99.2545L301.895 109.11L313.357 101.072ZM306.445 91.216L294.943 83.2349L281.887 102.051L293.389 110.032L304.891 118.013L317.947 99.1971L306.445 91.216ZM293.389 110.032V96.032C293.388 96.032 293.387 96.032 293.387 96.032C293.386 96.032 293.385 96.032 293.384 96.032C293.383 96.032 293.382 96.032 293.382 96.032C293.381 96.032 293.38 96.032 293.379 96.032C293.378 96.032 293.377 96.032 293.376 96.032C293.376 96.032 293.375 96.032 293.374 96.032C293.373 96.032 293.372 96.032 293.371 96.032C293.371 96.032 293.37 96.032 293.369 96.032C293.368 96.032 293.367 96.032 293.366 96.032C293.366 96.032 293.365 96.032 293.364 96.032C293.363 96.032 293.362 96.032 293.361 96.032C293.361 96.032 293.36 96.032 293.359 96.032C293.358 96.032 293.357 96.032 293.356 96.032C293.356 96.032 293.355 96.032 293.354 96.032C293.353 96.032 293.352 96.032 293.351 96.032C293.351 96.032 293.35 96.032 293.349 96.032C293.348 96.032 293.347 96.032 293.346 96.032C293.346 96.032 293.345 96.032 293.344 96.032C293.343 96.032 293.342 96.032 293.341 96.032C293.34 96.032 293.34 96.032 293.339 96.032C293.338 96.032 293.337 96.032 293.336 96.032C293.335 96.032 293.335 96.032 293.334 96.032C293.333 96.032 293.332 96.032 293.331 96.032C293.33 96.032 293.33 96.032 293.329 96.032C293.328 96.032 293.327 96.032 293.326 96.032C293.325 96.032 293.324 96.032 293.324 96.032C293.323 96.032 293.322 96.032 293.321 96.032C293.32 96.032 293.319 96.032 293.319 96.032C293.318 96.032 293.317 96.032 293.316 96.032C293.315 96.032 293.314 96.032 293.314 96.032C293.313 96.032 293.312 96.032 293.311 96.032C293.31 96.032 293.309 96.032 293.309 96.032C293.308 96.032 293.307 96.032 293.306 96.032C293.305 96.032 293.304 96.032 293.303 96.032C293.303 96.032 293.302 96.032 293.301 96.032C293.3 96.032 293.299 96.032 293.298 96.032C293.298 96.032 293.297 96.032 293.296 96.032C293.295 96.032 293.294 96.032 293.293 96.032C293.292 96.032 293.292 96.032 293.291 96.032C293.29 96.032 293.289 96.032 293.288 96.032C293.287 96.032 293.287 96.032 293.286 96.032C293.285 96.032 293.284 96.032 293.283 96.032C293.282 96.032 293.281 96.032 293.281 96.032C293.28 96.032 293.279 96.032 293.278 96.032C293.277 96.032 293.276 96.032 293.276 96.032C293.275 96.032 293.274 96.032 293.273 96.032C293.272 96.032 293.271 96.032 293.27 96.032C293.27 96.032 293.269 96.032 293.268 96.032C293.267 96.032 293.266 96.032 293.265 96.032C293.264 96.032 293.264 96.032 293.263 96.032C293.262 96.032 293.261 96.032 293.26 96.032C293.259 96.032 293.259 96.032 293.258 96.032C293.257 96.032 293.256 96.032 293.255 96.032C293.254 96.032 293.253 96.032 293.253 96.032C293.252 96.032 293.251 96.032 293.25 96.032C293.249 96.032 293.248 96.032 293.247 96.032C293.247 96.032 293.246 96.032 293.245 96.032C293.244 96.032 293.243 96.032 293.242 96.032C293.241 96.032 293.241 96.032 293.24 96.032C293.239 96.032 293.238 96.032 293.237 96.032C293.236 96.032 293.236 96.032 293.235 96.032C293.234 96.032 293.233 96.032 293.232 96.032C293.231 96.032 293.23 96.032 293.23 96.032C293.229 96.032 293.228 96.032 293.227 96.032C293.226 96.032 293.225 96.032 293.224 96.032C293.224 96.032 293.223 96.032 293.222 96.032C293.221 96.032 293.22 96.032 293.219 96.032C293.218 96.032 293.218 96.032 293.217 96.032C293.216 96.032 293.215 96.032 293.214 96.032C293.213 96.032 293.212 96.032 293.212 96.032C293.211 96.032 293.21 96.032 293.209 96.032C293.208 96.032 293.207 96.032 293.206 96.032C293.206 96.032 293.205 96.032 293.204 96.032C293.203 96.032 293.202 96.032 293.201 96.032C293.2 96.032 293.2 96.032 293.199 96.032C293.198 96.032 293.197 96.032 293.196 96.032C293.195 96.032 293.194 96.032 293.194 96.032C293.193 96.032 293.192 96.032 293.191 96.032C293.19 96.032 293.189 96.032 293.188 96.032C293.188 96.032 293.187 96.032 293.186 96.032C293.185 96.032 293.184 96.032 293.183 96.032C293.182 96.032 293.182 96.032 293.181 96.032C293.18 96.032 293.179 96.032 293.178 96.032C293.177 96.032 293.176 96.032 293.176 96.032C293.175 96.032 293.174 96.032 293.173 96.032C293.172 96.032 293.171 96.032 293.17 96.032C293.17 96.032 293.169 96.032 293.168 96.032C293.167 96.032 293.166 96.032 293.165 96.032C293.164 96.032 293.163 96.032 293.163 96.032C293.162 96.032 293.161 96.032 293.16 96.032C293.159 96.032 293.158 96.032 293.157 96.032C293.157 96.032 293.156 96.032 293.155 96.032C293.154 96.032 293.153 96.032 293.152 96.032C293.151 96.032 293.151 96.032 293.15 96.032C293.149 96.032 293.148 96.032 293.147 96.032C293.146 96.032 293.145 96.032 293.145 96.032C293.144 96.032 293.143 96.032 293.142 96.032C293.141 96.032 293.14 96.032 293.139 96.032C293.138 96.032 293.138 96.032 293.137 96.032C293.136 96.032 293.135 96.032 293.134 96.032C293.133 96.032 293.132 96.032 293.132 96.032C293.131 96.032 293.13 96.032 293.129 96.032C293.128 96.032 293.127 96.032 293.126 96.032C293.125 96.032 293.125 96.032 293.124 96.032C293.123 96.032 293.122 96.032 293.121 96.032C293.12 96.032 293.119 96.032 293.118 96.032C293.118 96.032 293.117 96.032 293.116 96.032C293.115 96.032 293.114 96.032 293.113 96.032C293.112 96.032 293.112 96.032 293.111 96.032C293.11 96.032 293.109 96.032 293.108 96.032C293.107 96.032 293.106 96.032 293.105 96.032C293.105 96.032 293.104 96.032 293.103 96.032C293.102 96.032 293.101 96.032 293.1 96.032C293.099 96.032 293.099 96.032 293.098 96.032C293.097 96.032 293.096 96.032 293.095 96.032C293.094 96.032 293.093 96.032 293.092 96.032C293.092 96.032 293.091 96.032 293.09 96.032C293.089 96.032 293.088 96.032 293.087 96.032C293.086 96.032 293.085 96.032 293.085 96.032C293.084 96.032 293.083 96.032 293.082 96.032C293.081 96.032 293.08 96.032 293.079 96.032C293.078 96.032 293.078 96.032 293.077 96.032C293.076 96.032 293.075 96.032 293.074 96.032C293.073 96.032 293.072 96.032 293.071 96.032C293.071 96.032 293.07 96.032 293.069 96.032C293.068 96.032 293.067 96.032 293.066 96.032C293.065 96.032 293.064 96.032 293.064 96.032C293.063 96.032 293.062 96.032 293.061 96.032C293.06 96.032 293.059 96.032 293.058 96.032C293.057 96.032 293.057 96.032 293.056 96.032C293.055 96.032 293.054 96.032 293.053 96.032C293.052 96.032 293.051 96.032 293.05 96.032C293.05 96.032 293.049 96.032 293.048 96.032C293.047 96.032 293.046 96.032 293.045 96.032C293.044 96.032 293.043 96.032 293.043 96.032C293.042 96.032 293.041 96.032 293.04 96.032C293.039 96.032 293.038 96.032 293.037 96.032C293.036 96.032 293.036 96.032 293.035 96.032C293.034 96.032 293.033 96.032 293.032 96.032C293.031 96.032 293.03 96.032 293.029 96.032C293.029 96.032 293.028 96.032 293.027 96.032C293.026 96.032 293.025 96.032 293.024 96.032C293.023 96.032 293.022 96.032 293.022 96.032C293.021 96.032 293.02 96.032 293.019 96.032C293.018 96.032 293.017 96.032 293.016 96.032C293.015 96.032 293.014 96.032 293.014 96.032C293.013 96.032 293.012 96.032 293.011 96.032C293.01 96.032 293.009 96.032 293.008 96.032C293.007 96.032 293.007 96.032 293.006 96.032C293.005 96.032 293.004 96.032 293.003 96.032C293.002 96.032 293.001 96.032 293 96.032C292.999 96.032 292.999 96.032 292.998 96.032C292.997 96.032 292.996 96.032 292.995 96.032C292.994 96.032 292.993 96.032 292.992 96.032C292.992 96.032 292.991 96.032 292.99 96.032C292.989 96.032 292.988 96.032 292.987 96.032C292.986 96.032 292.985 96.032 292.984 96.032C292.984 96.032 292.983 96.032 292.982 96.032C292.981 96.032 292.98 96.032 292.979 96.032C292.978 96.032 292.977 96.032 292.977 96.032C292.976 96.032 292.975 96.032 292.974 96.032C292.973 96.032 292.972 96.032 292.971 96.032C292.97 96.032 292.969 96.032 292.969 96.032C292.968 96.032 292.967 96.032 292.966 96.032C292.965 96.032 292.964 96.032 292.963 96.032C292.962 96.032 292.961 96.032 292.961 96.032C292.96 96.032 292.959 96.032 292.958 96.032C292.957 96.032 292.956 96.032 292.955 96.032C292.954 96.032 292.953 96.032 292.953 96.032C292.952 96.032 292.951 96.032 292.95 96.032C292.949 96.032 292.948 96.032 292.947 96.032C292.946 96.032 292.945 96.032 292.945 96.032C292.944 96.032 292.943 96.032 292.942 96.032C292.941 96.032 292.94 96.032 292.939 96.032C292.938 96.032 292.937 96.032 292.937 96.032C292.936 96.032 292.935 96.032 292.934 96.032C292.933 96.032 292.932 96.032 292.931 96.032C292.93 96.032 292.929 96.032 292.929 96.032C292.928 96.032 292.927 96.032 292.926 96.032C292.925 96.032 292.924 96.032 292.923 96.032C292.922 96.032 292.921 96.032 292.921 96.032C292.92 96.032 292.919 96.032 292.918 96.032C292.917 96.032 292.916 96.032 292.915 96.032C292.914 96.032 292.913 96.032 292.912 96.032C292.912 96.032 292.911 96.032 292.91 96.032C292.909 96.032 292.908 96.032 292.907 96.032C292.906 96.032 292.905 96.032 292.904 96.032C292.904 96.032 292.903 96.032 292.902 96.032C292.901 96.032 292.9 96.032 292.899 96.032C292.898 96.032 292.897 96.032 292.896 96.032C292.895 96.032 292.895 96.032 292.894 96.032C292.893 96.032 292.892 96.032 292.891 96.032C292.89 96.032 292.889 96.032 292.888 96.032C292.887 96.032 292.887 96.032 292.886 96.032C292.885 96.032 292.884 96.032 292.883 96.032C292.882 96.032 292.881 96.032 292.88 96.032C292.879 96.032 292.878 96.032 292.878 96.032C292.877 96.032 292.876 96.032 292.875 96.032C292.874 96.032 292.873 96.032 292.872 96.032C292.871 96.032 292.87 96.032 292.869 96.032C292.869 96.032 292.868 96.032 292.867 96.032C292.866 96.032 292.865 96.032 292.864 96.032C292.863 96.032 292.862 96.032 292.861 96.032C292.86 96.032 292.86 96.032 292.859 96.032C292.858 96.032 292.857 96.032 292.856 96.032C292.855 96.032 292.854 96.032 292.853 96.032C292.852 96.032 292.851 96.032 292.851 96.032C292.85 96.032 292.849 96.032 292.848 96.032C292.847 96.032 292.846 96.032 292.845 96.032C292.844 96.032 292.843 96.032 292.842 96.032C292.842 96.032 292.841 96.032 292.84 96.032C292.839 96.032 292.838 96.032 292.837 96.032C292.836 96.032 292.835 96.032 292.834 96.032C292.833 96.032 292.833 96.032 292.832 96.032C292.831 96.032 292.83 96.032 292.829 96.032C292.828 96.032 292.827 96.032 292.826 96.032C292.825 96.032 292.824 96.032 292.823 96.032C292.823 96.032 292.822 96.032 292.821 96.032C292.82 96.032 292.819 96.032 292.818 96.032C292.817 96.032 292.816 96.032 292.815 96.032C292.814 96.032 292.814 96.032 292.813 96.032C292.812 96.032 292.811 96.032 292.81 96.032C292.809 96.032 292.808 96.032 292.807 96.032C292.806 96.032 292.805 96.032 292.805 96.032C292.804 96.032 292.803 96.032 292.802 96.032C292.801 96.032 292.8 96.032 292.799 96.032C292.798 96.032 292.797 96.032 292.796 96.032C292.795 96.032 292.795 96.032 292.794 96.032C292.793 96.032 292.792 96.032 292.791 96.032C292.79 96.032 292.789 96.032 292.788 96.032C292.787 96.032 292.786 96.032 292.785 96.032C292.785 96.032 292.784 96.032 292.783 96.032C292.782 96.032 292.781 96.032 292.78 96.032C292.779 96.032 292.778 96.032 292.777 96.032C292.776 96.032 292.775 96.032 292.775 96.032C292.774 96.032 292.773 96.032 292.772 96.032C292.771 96.032 292.77 96.032 292.769 96.032C292.768 96.032 292.767 96.032 292.766 96.032C292.765 96.032 292.765 96.032 292.764 96.032C292.763 96.032 292.762 96.032 292.761 96.032C292.76 96.032 292.759 96.032 292.758 96.032C292.757 96.032 292.756 96.032 292.755 96.032C292.754 96.032 292.754 96.032 292.753 96.032C292.752 96.032 292.751 96.032 292.75 96.032C292.749 96.032 292.748 96.032 292.747 96.032C292.746 96.032 292.745 96.032 292.744 96.032C292.744 96.032 292.743 96.032 292.742 96.032C292.741 96.032 292.74 96.032 292.739 96.032C292.738 96.032 292.737 96.032 292.736 96.032C292.735 96.032 292.734 96.032 292.733 96.032C292.733 96.032 292.732 96.032 292.731 96.032C292.73 96.032 292.729 96.032 292.728 96.032C292.727 96.032 292.726 96.032 292.725 96.032C292.724 96.032 292.723 96.032 292.723 96.032C292.722 96.032 292.721 96.032 292.72 96.032C292.719 96.032 292.718 96.032 292.717 96.032C292.716 96.032 292.715 96.032 292.714 96.032C292.713 96.032 292.712 96.032 292.711 96.032C292.711 96.032 292.71 96.032 292.709 96.032C292.708 96.032 292.707 96.032 292.706 96.032C292.705 96.032 292.704 96.032 292.703 96.032C292.702 96.032 292.701 96.032 292.7 96.032C292.7 96.032 292.699 96.032 292.698 96.032C292.697 96.032 292.696 96.032 292.695 96.032C292.694 96.032 292.693 96.032 292.692 96.032C292.691 96.032 292.69 96.032 292.689 96.032C292.689 96.032 292.688 96.032 292.687 96.032C292.686 96.032 292.685 96.032 292.684 96.032C292.683 96.032 292.682 96.032 292.681 96.032C292.68 96.032 292.679 96.032 292.678 96.032C292.677 96.032 292.677 96.032 292.676 96.032C292.675 96.032 292.674 96.032 292.673 96.032C292.672 96.032 292.671 96.032 292.67 96.032C292.669 96.032 292.668 96.032 292.667 96.032C292.666 96.032 292.665 96.032 292.665 96.032C292.664 96.032 292.663 96.032 292.662 96.032C292.661 96.032 292.66 96.032 292.659 96.032C292.658 96.032 292.657 96.032 292.656 96.032C292.655 96.032 292.654 96.032 292.653 96.032C292.653 96.032 292.652 96.032 292.651 96.032C292.65 96.032 292.649 96.032 292.648 96.032C292.647 96.032 292.646 96.032 292.645 96.032C292.644 96.032 292.643 96.032 292.642 96.032C292.641 96.032 292.641 96.032 292.64 96.032C292.639 96.032 292.638 96.032 292.637 96.032C292.636 96.032 292.635 96.032 292.634 96.032C292.633 96.032 292.632 96.032 292.631 96.032C292.63 96.032 292.629 96.032 292.628 96.032C292.628 96.032 292.627 96.032 292.626 96.032C292.625 96.032 292.624 96.032 292.623 96.032C292.622 96.032 292.621 96.032 292.62 96.032C292.619 96.032 292.618 96.032 292.617 96.032C292.616 96.032 292.616 96.032 292.615 96.032C292.614 96.032 292.613 96.032 292.612 96.032C292.611 96.032 292.61 96.032 292.609 96.032C292.608 96.032 292.607 96.032 292.606 96.032C292.605 96.032 292.604 96.032 292.603 96.032C292.602 96.032 292.602 96.032 292.601 96.032C292.6 96.032 292.599 96.032 292.598 96.032C292.597 96.032 292.596 96.032 292.595 96.032C292.594 96.032 292.593 96.032 292.592 96.032C292.591 96.032 292.59 96.032 292.589 96.032C292.589 96.032 292.588 96.032 292.587 96.032C292.586 96.032 292.585 96.032 292.584 96.032C292.583 96.032 292.582 96.032 292.581 96.032C292.58 96.032 292.579 96.032 292.578 96.032C292.577 96.032 292.576 96.032 292.575 96.032C292.575 96.032 292.574 96.032 292.573 96.032C292.572 96.032 292.571 96.032 292.57 96.032C292.569 96.032 292.568 96.032 292.567 96.032C292.566 96.032 292.565 96.032 292.564 96.032C292.563 96.032 292.562 96.032 292.561 96.032C292.561 96.032 292.56 96.032 292.559 96.032C292.558 96.032 292.557 96.032 292.556 96.032C292.555 96.032 292.554 96.032 292.553 96.032C292.552 96.032 292.551 96.032 292.55 96.032C292.549 96.032 292.548 96.032 292.547 96.032C292.546 96.032 292.546 96.032 292.545 96.032C292.544 96.032 292.543 96.032 292.542 96.032C292.541 96.032 292.54 96.032 292.539 96.032C292.538 96.032 292.537 96.032 292.536 96.032C292.535 96.032 292.534 96.032 292.533 96.032C292.532 96.032 292.531 96.032 292.531 96.032C292.53 96.032 292.529 96.032 292.528 96.032C292.527 96.032 292.526 96.032 292.525 96.032C292.524 96.032 292.523 96.032 292.522 96.032C292.521 96.032 292.52 96.032 292.519 96.032C292.518 96.032 292.517 96.032 292.516 96.032C292.516 96.032 292.515 96.032 292.514 96.032C292.513 96.032 292.512 96.032 292.511 96.032C292.51 96.032 292.509 96.032 292.508 96.032C292.507 96.032 292.506 96.032 292.505 96.032C292.504 96.032 292.503 96.032 292.502 96.032C292.501 96.032 292.5 96.032 292.5 96.032C292.499 96.032 292.498 96.032 292.497 96.032C292.496 96.032 292.495 96.032 292.494 96.032C292.493 96.032 292.492 96.032 292.491 96.032C292.49 96.032 292.489 96.032 292.488 96.032C292.487 96.032 292.486 96.032 292.485 96.032C292.484 96.032 292.483 96.032 292.483 96.032C292.482 96.032 292.481 96.032 292.48 96.032C292.479 96.032 292.478 96.032 292.477 96.032C292.476 96.032 292.475 96.032 292.474 96.032C292.473 96.032 292.472 96.032 292.471 96.032C292.47 96.032 292.469 96.032 292.468 96.032C292.467 96.032 292.466 96.032 292.466 96.032C292.465 96.032 292.464 96.032 292.463 96.032C292.462 96.032 292.461 96.032 292.46 96.032C292.459 96.032 292.458 96.032 292.457 96.032C292.456 96.032 292.455 96.032 292.454 96.032C292.453 96.032 292.452 96.032 292.451 96.032C292.45 96.032 292.449 96.032 292.448 96.032C292.448 96.032 292.447 96.032 292.446 96.032C292.445 96.032 292.444 96.032 292.443 96.032C292.442 96.032 292.441 96.032 292.44 96.032C292.439 96.032 292.438 96.032 292.437 96.032C292.436 96.032 292.435 96.032 292.434 96.032C292.433 96.032 292.432 96.032 292.431 96.032C292.43 96.032 292.43 96.032 292.429 96.032C292.428 96.032 292.427 96.032 292.426 96.032C292.425 96.032 292.424 96.032 292.423 96.032C292.422 96.032 292.421 96.032 292.42 96.032C292.419 96.032 292.418 96.032 292.417 96.032C292.416 96.032 292.415 96.032 292.414 96.032C292.413 96.032 292.412 96.032 292.411 96.032C292.41 96.032 292.41 96.032 292.409 96.032C292.408 96.032 292.407 96.032 292.406 96.032C292.405 96.032 292.404 96.032 292.403 96.032C292.402 96.032 292.401 96.032 292.4 96.032C292.399 96.032 292.398 96.032 292.397 96.032C292.396 96.032 292.395 96.032 292.394 96.032C292.393 96.032 292.392 96.032 292.391 96.032C292.39 96.032 292.39 96.032 292.389 96.032C292.388 96.032 292.387 96.032 292.386 96.032C292.385 96.032 292.384 96.032 292.383 96.032C292.382 96.032 292.381 96.032 292.38 96.032C292.379 96.032 292.378 96.032 292.377 96.032C292.376 96.032 292.375 96.032 292.374 96.032C292.373 96.032 292.372 96.032 292.371 96.032C292.37 96.032 292.369 96.032 292.368 96.032C292.368 96.032 292.367 96.032 292.366 96.032C292.365 96.032 292.364 96.032 292.363 96.032C292.362 96.032 292.361 96.032 292.36 96.032C292.359 96.032 292.358 96.032 292.357 96.032C292.356 96.032 292.355 96.032 292.354 96.032C292.353 96.032 292.352 96.032 292.351 96.032C292.35 96.032 292.349 96.032 292.348 96.032C292.347 96.032 292.346 96.032 292.345 96.032C292.345 96.032 292.344 96.032 292.343 96.032C292.342 96.032 292.341 96.032 292.34 96.032C292.339 96.032 292.338 96.032 292.337 96.032C292.336 96.032 292.335 96.032 292.334 96.032C292.333 96.032 292.332 96.032 292.331 96.032C292.33 96.032 292.329 96.032 292.328 96.032C292.327 96.032 292.326 96.032 292.325 96.032C292.324 96.032 292.323 96.032 292.322 96.032C292.321 96.032 292.32 96.032 292.32 96.032C292.319 96.032 292.318 96.032 292.317 96.032C292.316 96.032 292.315 96.032 292.314 96.032C292.313 96.032 292.312 96.032 292.311 96.032C292.31 96.032 292.309 96.032 292.308 96.032C292.307 96.032 292.306 96.032 292.305 96.032C292.304 96.032 292.303 96.032 292.302 96.032C292.301 96.032 292.3 96.032 292.299 96.032C292.298 96.032 292.297 96.032 292.296 96.032C292.295 96.032 292.294 96.032 292.294 96.032C292.293 96.032 292.292 96.032 292.291 96.032C292.29 96.032 292.289 96.032 292.288 96.032C292.287 96.032 292.286 96.032 292.285 96.032C292.284 96.032 292.283 96.032 292.282 96.032C292.281 96.032 292.28 96.032 292.279 96.032C292.278 96.032 292.277 96.032 292.276 96.032C292.275 96.032 292.274 96.032 292.273 96.032C292.272 96.032 292.271 96.032 292.27 96.032C292.269 96.032 292.268 96.032 292.267 96.032C292.266 96.032 292.265 96.032 292.264 96.032C292.264 96.032 292.263 96.032 292.262 96.032C292.261 96.032 292.26 96.032 292.259 96.032C292.258 96.032 292.257 96.032 292.256 96.032C292.255 96.032 292.254 96.032 292.253 96.032C292.252 96.032 292.251 96.032 292.25 96.032C292.249 96.032 292.248 96.032 292.247 96.032C292.246 96.032 292.245 96.032 292.244 96.032C292.243 96.032 292.242 96.032 292.241 96.032C292.24 96.032 292.239 96.032 292.238 96.032C292.237 96.032 292.236 96.032 292.235 96.032C292.234 96.032 292.233 96.032 292.232 96.032C292.232 96.032 292.231 96.032 292.23 96.032C292.229 96.032 292.228 96.032 292.227 96.032C292.226 96.032 292.225 96.032 292.224 96.032C292.223 96.032 292.222 96.032 292.221 96.032C292.22 96.032 292.219 96.032 292.218 96.032C292.217 96.032 292.216 96.032 292.215 96.032C292.214 96.032 292.213 96.032 292.212 96.032C292.211 96.032 292.21 96.032 292.209 96.032C292.208 96.032 292.207 96.032 292.206 96.032C292.205 96.032 292.204 96.032 292.203 96.032C292.202 96.032 292.201 96.032 292.2 96.032C292.199 96.032 292.198 96.032 292.197 96.032C292.196 96.032 292.195 96.032 292.194 96.032C292.193 96.032 292.193 96.032 292.192 96.032C292.191 96.032 292.19 96.032 292.189 96.032C292.188 96.032 292.187 96.032 292.186 96.032C292.185 96.032 292.184 96.032 292.183 96.032C292.182 96.032 292.181 96.032 292.18 96.032C292.179 96.032 292.178 96.032 292.177 96.032C292.176 96.032 292.175 96.032 292.174 96.032C292.173 96.032 292.172 96.032 292.171 96.032C292.17 96.032 292.169 96.032 292.168 96.032C292.167 96.032 292.166 96.032 292.165 96.032C292.164 96.032 292.163 96.032 292.162 96.032C292.161 96.032 292.16 96.032 292.159 96.032C292.158 96.032 292.157 96.032 292.156 96.032C292.155 96.032 292.154 96.032 292.153 96.032C292.152 96.032 292.151 96.032 292.15 96.032C292.149 96.032 292.148 96.032 292.147 96.032C292.146 96.032 292.146 96.032 292.145 96.032C292.144 96.032 292.143 96.032 292.142 96.032C292.141 96.032 292.14 96.032 292.139 96.032C292.138 96.032 292.137 96.032 292.136 96.032C292.135 96.032 292.134 96.032 292.133 96.032C292.132 96.032 292.131 96.032 292.13 96.032C292.129 96.032 292.128 96.032 292.127 96.032C292.126 96.032 292.125 96.032 292.124 96.032C292.123 96.032 292.122 96.032 292.121 96.032C292.12 96.032 292.119 96.032 292.118 96.032C292.117 96.032 292.116 96.032 292.115 96.032C292.114 96.032 292.113 96.032 292.112 96.032C292.111 96.032 292.11 96.032 292.109 96.032C292.108 96.032 292.107 96.032 292.106 96.032C292.105 96.032 292.104 96.032 292.103 96.032C292.102 96.032 292.101 96.032 292.1 96.032C292.099 96.032 292.098 96.032 292.097 96.032C292.096 96.032 292.095 96.032 292.094 96.032C292.093 96.032 292.092 96.032 292.091 96.032C292.09 96.032 292.089 96.032 292.088 96.032C292.087 96.032 292.086 96.032 292.085 96.032C292.084 96.032 292.083 96.032 292.082 96.032C292.081 96.032 292.08 96.032 292.079 96.032C292.078 96.032 292.077 96.032 292.076 96.032C292.076 96.032 292.075 96.032 292.074 96.032C292.073 96.032 292.072 96.032 292.071 96.032C292.07 96.032 292.069 96.032 292.068 96.032C292.067 96.032 292.066 96.032 292.065 96.032C292.064 96.032 292.063 96.032 292.062 96.032C292.061 96.032 292.06 96.032 292.059 96.032C292.058 96.032 292.057 96.032 292.056 96.032C292.055 96.032 292.054 96.032 292.053 96.032C292.052 96.032 292.051 96.032 292.05 96.032C292.049 96.032 292.048 96.032 292.047 96.032C292.046 96.032 292.045 96.032 292.044 96.032C292.043 96.032 292.042 96.032 292.041 96.032C292.04 96.032 292.039 96.032 292.038 96.032C292.037 96.032 292.036 96.032 292.035 96.032C292.034 96.032 292.033 96.032 292.032 96.032C292.031 96.032 292.03 96.032 292.029 96.032C292.028 96.032 292.027 96.032 292.026 96.032C292.025 96.032 292.024 96.032 292.023 96.032C292.022 96.032 292.021 96.032 292.02 96.032C292.019 96.032 292.018 96.032 292.017 96.032C292.016 96.032 292.015 96.032 292.014 96.032C292.013 96.032 292.012 96.032 292.011 96.032C292.01 96.032 292.009 96.032 292.008 96.032C292.007 96.032 292.006 96.032 292.005 96.032C292.004 96.032 292.003 96.032 292.002 96.032C292.001 96.032 292 96.032 291.999 96.032C291.998 96.032 291.997 96.032 291.996 96.032C291.995 96.032 291.994 96.032 291.993 96.032C291.992 96.032 291.991 96.032 291.99 96.032C291.989 96.032 291.988 96.032 291.987 96.032C291.986 96.032 291.985 96.032 291.984 96.032C291.983 96.032 291.982 96.032 291.981 96.032V110.032V124.032C291.982 124.032 291.983 124.032 291.984 124.032C291.985 124.032 291.986 124.032 291.987 124.032C291.988 124.032 291.989 124.032 291.99 124.032C291.991 124.032 291.992 124.032 291.993 124.032C291.994 124.032 291.995 124.032 291.996 124.032C291.997 124.032 291.998 124.032 291.999 124.032C292 124.032 292.001 124.032 292.002 124.032C292.003 124.032 292.004 124.032 292.005 124.032C292.006 124.032 292.007 124.032 292.008 124.032C292.009 124.032 292.01 124.032 292.011 124.032C292.012 124.032 292.013 124.032 292.014 124.032C292.015 124.032 292.016 124.032 292.017 124.032C292.018 124.032 292.019 124.032 292.02 124.032C292.021 124.032 292.022 124.032 292.023 124.032C292.024 124.032 292.025 124.032 292.026 124.032C292.027 124.032 292.028 124.032 292.029 124.032C292.03 124.032 292.031 124.032 292.032 124.032C292.033 124.032 292.034 124.032 292.035 124.032C292.036 124.032 292.037 124.032 292.038 124.032C292.039 124.032 292.04 124.032 292.041 124.032C292.042 124.032 292.043 124.032 292.044 124.032C292.045 124.032 292.046 124.032 292.047 124.032C292.048 124.032 292.049 124.032 292.05 124.032C292.051 124.032 292.052 124.032 292.053 124.032C292.054 124.032 292.055 124.032 292.056 124.032C292.057 124.032 292.058 124.032 292.059 124.032C292.06 124.032 292.061 124.032 292.062 124.032C292.063 124.032 292.064 124.032 292.065 124.032C292.066 124.032 292.067 124.032 292.068 124.032C292.069 124.032 292.07 124.032 292.071 124.032C292.072 124.032 292.073 124.032 292.074 124.032C292.075 124.032 292.076 124.032 292.076 124.032C292.077 124.032 292.078 124.032 292.079 124.032C292.08 124.032 292.081 124.032 292.082 124.032C292.083 124.032 292.084 124.032 292.085 124.032C292.086 124.032 292.087 124.032 292.088 124.032C292.089 124.032 292.09 124.032 292.091 124.032C292.092 124.032 292.093 124.032 292.094 124.032C292.095 124.032 292.096 124.032 292.097 124.032C292.098 124.032 292.099 124.032 292.1 124.032C292.101 124.032 292.102 124.032 292.103 124.032C292.104 124.032 292.105 124.032 292.106 124.032C292.107 124.032 292.108 124.032 292.109 124.032C292.11 124.032 292.111 124.032 292.112 124.032C292.113 124.032 292.114 124.032 292.115 124.032C292.116 124.032 292.117 124.032 292.118 124.032C292.119 124.032 292.12 124.032 292.121 124.032C292.122 124.032 292.123 124.032 292.124 124.032C292.125 124.032 292.126 124.032 292.127 124.032C292.128 124.032 292.129 124.032 292.13 124.032C292.131 124.032 292.132 124.032 292.133 124.032C292.134 124.032 292.135 124.032 292.136 124.032C292.137 124.032 292.138 124.032 292.139 124.032C292.14 124.032 292.141 124.032 292.142 124.032C292.143 124.032 292.144 124.032 292.145 124.032C292.146 124.032 292.146 124.032 292.147 124.032C292.148 124.032 292.149 124.032 292.15 124.032C292.151 124.032 292.152 124.032 292.153 124.032C292.154 124.032 292.155 124.032 292.156 124.032C292.157 124.032 292.158 124.032 292.159 124.032C292.16 124.032 292.161 124.032 292.162 124.032C292.163 124.032 292.164 124.032 292.165 124.032C292.166 124.032 292.167 124.032 292.168 124.032C292.169 124.032 292.17 124.032 292.171 124.032C292.172 124.032 292.173 124.032 292.174 124.032C292.175 124.032 292.176 124.032 292.177 124.032C292.178 124.032 292.179 124.032 292.18 124.032C292.181 124.032 292.182 124.032 292.183 124.032C292.184 124.032 292.185 124.032 292.186 124.032C292.187 124.032 292.188 124.032 292.189 124.032C292.19 124.032 292.191 124.032 292.192 124.032C292.193 124.032 292.193 124.032 292.194 124.032C292.195 124.032 292.196 124.032 292.197 124.032C292.198 124.032 292.199 124.032 292.2 124.032C292.201 124.032 292.202 124.032 292.203 124.032C292.204 124.032 292.205 124.032 292.206 124.032C292.207 124.032 292.208 124.032 292.209 124.032C292.21 124.032 292.211 124.032 292.212 124.032C292.213 124.032 292.214 124.032 292.215 124.032C292.216 124.032 292.217 124.032 292.218 124.032C292.219 124.032 292.22 124.032 292.221 124.032C292.222 124.032 292.223 124.032 292.224 124.032C292.225 124.032 292.226 124.032 292.227 124.032C292.228 124.032 292.229 124.032 292.23 124.032C292.231 124.032 292.232 124.032 292.232 124.032C292.233 124.032 292.234 124.032 292.235 124.032C292.236 124.032 292.237 124.032 292.238 124.032C292.239 124.032 292.24 124.032 292.241 124.032C292.242 124.032 292.243 124.032 292.244 124.032C292.245 124.032 292.246 124.032 292.247 124.032C292.248 124.032 292.249 124.032 292.25 124.032C292.251 124.032 292.252 124.032 292.253 124.032C292.254 124.032 292.255 124.032 292.256 124.032C292.257 124.032 292.258 124.032 292.259 124.032C292.26 124.032 292.261 124.032 292.262 124.032C292.263 124.032 292.264 124.032 292.264 124.032C292.265 124.032 292.266 124.032 292.267 124.032C292.268 124.032 292.269 124.032 292.27 124.032C292.271 124.032 292.272 124.032 292.273 124.032C292.274 124.032 292.275 124.032 292.276 124.032C292.277 124.032 292.278 124.032 292.279 124.032C292.28 124.032 292.281 124.032 292.282 124.032C292.283 124.032 292.284 124.032 292.285 124.032C292.286 124.032 292.287 124.032 292.288 124.032C292.289 124.032 292.29 124.032 292.291 124.032C292.292 124.032 292.293 124.032 292.294 124.032C292.294 124.032 292.295 124.032 292.296 124.032C292.297 124.032 292.298 124.032 292.299 124.032C292.3 124.032 292.301 124.032 292.302 124.032C292.303 124.032 292.304 124.032 292.305 124.032C292.306 124.032 292.307 124.032 292.308 124.032C292.309 124.032 292.31 124.032 292.311 124.032C292.312 124.032 292.313 124.032 292.314 124.032C292.315 124.032 292.316 124.032 292.317 124.032C292.318 124.032 292.319 124.032 292.32 124.032C292.32 124.032 292.321 124.032 292.322 124.032C292.323 124.032 292.324 124.032 292.325 124.032C292.326 124.032 292.327 124.032 292.328 124.032C292.329 124.032 292.33 124.032 292.331 124.032C292.332 124.032 292.333 124.032 292.334 124.032C292.335 124.032 292.336 124.032 292.337 124.032C292.338 124.032 292.339 124.032 292.34 124.032C292.341 124.032 292.342 124.032 292.343 124.032C292.344 124.032 292.345 124.032 292.345 124.032C292.346 124.032 292.347 124.032 292.348 124.032C292.349 124.032 292.35 124.032 292.351 124.032C292.352 124.032 292.353 124.032 292.354 124.032C292.355 124.032 292.356 124.032 292.357 124.032C292.358 124.032 292.359 124.032 292.36 124.032C292.361 124.032 292.362 124.032 292.363 124.032C292.364 124.032 292.365 124.032 292.366 124.032C292.367 124.032 292.368 124.032 292.368 124.032C292.369 124.032 292.37 124.032 292.371 124.032C292.372 124.032 292.373 124.032 292.374 124.032C292.375 124.032 292.376 124.032 292.377 124.032C292.378 124.032 292.379 124.032 292.38 124.032C292.381 124.032 292.382 124.032 292.383 124.032C292.384 124.032 292.385 124.032 292.386 124.032C292.387 124.032 292.388 124.032 292.389 124.032C292.39 124.032 292.39 124.032 292.391 124.032C292.392 124.032 292.393 124.032 292.394 124.032C292.395 124.032 292.396 124.032 292.397 124.032C292.398 124.032 292.399 124.032 292.4 124.032C292.401 124.032 292.402 124.032 292.403 124.032C292.404 124.032 292.405 124.032 292.406 124.032C292.407 124.032 292.408 124.032 292.409 124.032C292.41 124.032 292.41 124.032 292.411 124.032C292.412 124.032 292.413 124.032 292.414 124.032C292.415 124.032 292.416 124.032 292.417 124.032C292.418 124.032 292.419 124.032 292.42 124.032C292.421 124.032 292.422 124.032 292.423 124.032C292.424 124.032 292.425 124.032 292.426 124.032C292.427 124.032 292.428 124.032 292.429 124.032C292.43 124.032 292.43 124.032 292.431 124.032C292.432 124.032 292.433 124.032 292.434 124.032C292.435 124.032 292.436 124.032 292.437 124.032C292.438 124.032 292.439 124.032 292.44 124.032C292.441 124.032 292.442 124.032 292.443 124.032C292.444 124.032 292.445 124.032 292.446 124.032C292.447 124.032 292.448 124.032 292.448 124.032C292.449 124.032 292.45 124.032 292.451 124.032C292.452 124.032 292.453 124.032 292.454 124.032C292.455 124.032 292.456 124.032 292.457 124.032C292.458 124.032 292.459 124.032 292.46 124.032C292.461 124.032 292.462 124.032 292.463 124.032C292.464 124.032 292.465 124.032 292.466 124.032C292.466 124.032 292.467 124.032 292.468 124.032C292.469 124.032 292.47 124.032 292.471 124.032C292.472 124.032 292.473 124.032 292.474 124.032C292.475 124.032 292.476 124.032 292.477 124.032C292.478 124.032 292.479 124.032 292.48 124.032C292.481 124.032 292.482 124.032 292.483 124.032C292.483 124.032 292.484 124.032 292.485 124.032C292.486 124.032 292.487 124.032 292.488 124.032C292.489 124.032 292.49 124.032 292.491 124.032C292.492 124.032 292.493 124.032 292.494 124.032C292.495 124.032 292.496 124.032 292.497 124.032C292.498 124.032 292.499 124.032 292.5 124.032C292.5 124.032 292.501 124.032 292.502 124.032C292.503 124.032 292.504 124.032 292.505 124.032C292.506 124.032 292.507 124.032 292.508 124.032C292.509 124.032 292.51 124.032 292.511 124.032C292.512 124.032 292.513 124.032 292.514 124.032C292.515 124.032 292.516 124.032 292.516 124.032C292.517 124.032 292.518 124.032 292.519 124.032C292.52 124.032 292.521 124.032 292.522 124.032C292.523 124.032 292.524 124.032 292.525 124.032C292.526 124.032 292.527 124.032 292.528 124.032C292.529 124.032 292.53 124.032 292.531 124.032C292.531 124.032 292.532 124.032 292.533 124.032C292.534 124.032 292.535 124.032 292.536 124.032C292.537 124.032 292.538 124.032 292.539 124.032C292.54 124.032 292.541 124.032 292.542 124.032C292.543 124.032 292.544 124.032 292.545 124.032C292.546 124.032 292.546 124.032 292.547 124.032C292.548 124.032 292.549 124.032 292.55 124.032C292.551 124.032 292.552 124.032 292.553 124.032C292.554 124.032 292.555 124.032 292.556 124.032C292.557 124.032 292.558 124.032 292.559 124.032C292.56 124.032 292.561 124.032 292.561 124.032C292.562 124.032 292.563 124.032 292.564 124.032C292.565 124.032 292.566 124.032 292.567 124.032C292.568 124.032 292.569 124.032 292.57 124.032C292.571 124.032 292.572 124.032 292.573 124.032C292.574 124.032 292.575 124.032 292.575 124.032C292.576 124.032 292.577 124.032 292.578 124.032C292.579 124.032 292.58 124.032 292.581 124.032C292.582 124.032 292.583 124.032 292.584 124.032C292.585 124.032 292.586 124.032 292.587 124.032C292.588 124.032 292.589 124.032 292.589 124.032C292.59 124.032 292.591 124.032 292.592 124.032C292.593 124.032 292.594 124.032 292.595 124.032C292.596 124.032 292.597 124.032 292.598 124.032C292.599 124.032 292.6 124.032 292.601 124.032C292.602 124.032 292.602 124.032 292.603 124.032C292.604 124.032 292.605 124.032 292.606 124.032C292.607 124.032 292.608 124.032 292.609 124.032C292.61 124.032 292.611 124.032 292.612 124.032C292.613 124.032 292.614 124.032 292.615 124.032C292.616 124.032 292.616 124.032 292.617 124.032C292.618 124.032 292.619 124.032 292.62 124.032C292.621 124.032 292.622 124.032 292.623 124.032C292.624 124.032 292.625 124.032 292.626 124.032C292.627 124.032 292.628 124.032 292.628 124.032C292.629 124.032 292.63 124.032 292.631 124.032C292.632 124.032 292.633 124.032 292.634 124.032C292.635 124.032 292.636 124.032 292.637 124.032C292.638 124.032 292.639 124.032 292.64 124.032C292.641 124.032 292.641 124.032 292.642 124.032C292.643 124.032 292.644 124.032 292.645 124.032C292.646 124.032 292.647 124.032 292.648 124.032C292.649 124.032 292.65 124.032 292.651 124.032C292.652 124.032 292.653 124.032 292.653 124.032C292.654 124.032 292.655 124.032 292.656 124.032C292.657 124.032 292.658 124.032 292.659 124.032C292.66 124.032 292.661 124.032 292.662 124.032C292.663 124.032 292.664 124.032 292.665 124.032C292.665 124.032 292.666 124.032 292.667 124.032C292.668 124.032 292.669 124.032 292.67 124.032C292.671 124.032 292.672 124.032 292.673 124.032C292.674 124.032 292.675 124.032 292.676 124.032C292.677 124.032 292.677 124.032 292.678 124.032C292.679 124.032 292.68 124.032 292.681 124.032C292.682 124.032 292.683 124.032 292.684 124.032C292.685 124.032 292.686 124.032 292.687 124.032C292.688 124.032 292.689 124.032 292.689 124.032C292.69 124.032 292.691 124.032 292.692 124.032C292.693 124.032 292.694 124.032 292.695 124.032C292.696 124.032 292.697 124.032 292.698 124.032C292.699 124.032 292.7 124.032 292.7 124.032C292.701 124.032 292.702 124.032 292.703 124.032C292.704 124.032 292.705 124.032 292.706 124.032C292.707 124.032 292.708 124.032 292.709 124.032C292.71 124.032 292.711 124.032 292.711 124.032C292.712 124.032 292.713 124.032 292.714 124.032C292.715 124.032 292.716 124.032 292.717 124.032C292.718 124.032 292.719 124.032 292.72 124.032C292.721 124.032 292.722 124.032 292.723 124.032C292.723 124.032 292.724 124.032 292.725 124.032C292.726 124.032 292.727 124.032 292.728 124.032C292.729 124.032 292.73 124.032 292.731 124.032C292.732 124.032 292.733 124.032 292.733 124.032C292.734 124.032 292.735 124.032 292.736 124.032C292.737 124.032 292.738 124.032 292.739 124.032C292.74 124.032 292.741 124.032 292.742 124.032C292.743 124.032 292.744 124.032 292.744 124.032C292.745 124.032 292.746 124.032 292.747 124.032C292.748 124.032 292.749 124.032 292.75 124.032C292.751 124.032 292.752 124.032 292.753 124.032C292.754 124.032 292.754 124.032 292.755 124.032C292.756 124.032 292.757 124.032 292.758 124.032C292.759 124.032 292.76 124.032 292.761 124.032C292.762 124.032 292.763 124.032 292.764 124.032C292.765 124.032 292.765 124.032 292.766 124.032C292.767 124.032 292.768 124.032 292.769 124.032C292.77 124.032 292.771 124.032 292.772 124.032C292.773 124.032 292.774 124.032 292.775 124.032C292.775 124.032 292.776 124.032 292.777 124.032C292.778 124.032 292.779 124.032 292.78 124.032C292.781 124.032 292.782 124.032 292.783 124.032C292.784 124.032 292.785 124.032 292.785 124.032C292.786 124.032 292.787 124.032 292.788 124.032C292.789 124.032 292.79 124.032 292.791 124.032C292.792 124.032 292.793 124.032 292.794 124.032C292.795 124.032 292.795 124.032 292.796 124.032C292.797 124.032 292.798 124.032 292.799 124.032C292.8 124.032 292.801 124.032 292.802 124.032C292.803 124.032 292.804 124.032 292.805 124.032C292.805 124.032 292.806 124.032 292.807 124.032C292.808 124.032 292.809 124.032 292.81 124.032C292.811 124.032 292.812 124.032 292.813 124.032C292.814 124.032 292.814 124.032 292.815 124.032C292.816 124.032 292.817 124.032 292.818 124.032C292.819 124.032 292.82 124.032 292.821 124.032C292.822 124.032 292.823 124.032 292.823 124.032C292.824 124.032 292.825 124.032 292.826 124.032C292.827 124.032 292.828 124.032 292.829 124.032C292.83 124.032 292.831 124.032 292.832 124.032C292.833 124.032 292.833 124.032 292.834 124.032C292.835 124.032 292.836 124.032 292.837 124.032C292.838 124.032 292.839 124.032 292.84 124.032C292.841 124.032 292.842 124.032 292.842 124.032C292.843 124.032 292.844 124.032 292.845 124.032C292.846 124.032 292.847 124.032 292.848 124.032C292.849 124.032 292.85 124.032 292.851 124.032C292.851 124.032 292.852 124.032 292.853 124.032C292.854 124.032 292.855 124.032 292.856 124.032C292.857 124.032 292.858 124.032 292.859 124.032C292.86 124.032 292.86 124.032 292.861 124.032C292.862 124.032 292.863 124.032 292.864 124.032C292.865 124.032 292.866 124.032 292.867 124.032C292.868 124.032 292.869 124.032 292.869 124.032C292.87 124.032 292.871 124.032 292.872 124.032C292.873 124.032 292.874 124.032 292.875 124.032C292.876 124.032 292.877 124.032 292.878 124.032C292.878 124.032 292.879 124.032 292.88 124.032C292.881 124.032 292.882 124.032 292.883 124.032C292.884 124.032 292.885 124.032 292.886 124.032C292.887 124.032 292.887 124.032 292.888 124.032C292.889 124.032 292.89 124.032 292.891 124.032C292.892 124.032 292.893 124.032 292.894 124.032C292.895 124.032 292.895 124.032 292.896 124.032C292.897 124.032 292.898 124.032 292.899 124.032C292.9 124.032 292.901 124.032 292.902 124.032C292.903 124.032 292.904 124.032 292.904 124.032C292.905 124.032 292.906 124.032 292.907 124.032C292.908 124.032 292.909 124.032 292.91 124.032C292.911 124.032 292.912 124.032 292.912 124.032C292.913 124.032 292.914 124.032 292.915 124.032C292.916 124.032 292.917 124.032 292.918 124.032C292.919 124.032 292.92 124.032 292.921 124.032C292.921 124.032 292.922 124.032 292.923 124.032C292.924 124.032 292.925 124.032 292.926 124.032C292.927 124.032 292.928 124.032 292.929 124.032C292.929 124.032 292.93 124.032 292.931 124.032C292.932 124.032 292.933 124.032 292.934 124.032C292.935 124.032 292.936 124.032 292.937 124.032C292.937 124.032 292.938 124.032 292.939 124.032C292.94 124.032 292.941 124.032 292.942 124.032C292.943 124.032 292.944 124.032 292.945 124.032C292.945 124.032 292.946 124.032 292.947 124.032C292.948 124.032 292.949 124.032 292.95 124.032C292.951 124.032 292.952 124.032 292.953 124.032C292.953 124.032 292.954 124.032 292.955 124.032C292.956 124.032 292.957 124.032 292.958 124.032C292.959 124.032 292.96 124.032 292.961 124.032C292.961 124.032 292.962 124.032 292.963 124.032C292.964 124.032 292.965 124.032 292.966 124.032C292.967 124.032 292.968 124.032 292.969 124.032C292.969 124.032 292.97 124.032 292.971 124.032C292.972 124.032 292.973 124.032 292.974 124.032C292.975 124.032 292.976 124.032 292.977 124.032C292.977 124.032 292.978 124.032 292.979 124.032C292.98 124.032 292.981 124.032 292.982 124.032C292.983 124.032 292.984 124.032 292.984 124.032C292.985 124.032 292.986 124.032 292.987 124.032C292.988 124.032 292.989 124.032 292.99 124.032C292.991 124.032 292.992 124.032 292.992 124.032C292.993 124.032 292.994 124.032 292.995 124.032C292.996 124.032 292.997 124.032 292.998 124.032C292.999 124.032 292.999 124.032 293 124.032C293.001 124.032 293.002 124.032 293.003 124.032C293.004 124.032 293.005 124.032 293.006 124.032C293.007 124.032 293.007 124.032 293.008 124.032C293.009 124.032 293.01 124.032 293.011 124.032C293.012 124.032 293.013 124.032 293.014 124.032C293.014 124.032 293.015 124.032 293.016 124.032C293.017 124.032 293.018 124.032 293.019 124.032C293.02 124.032 293.021 124.032 293.022 124.032C293.022 124.032 293.023 124.032 293.024 124.032C293.025 124.032 293.026 124.032 293.027 124.032C293.028 124.032 293.029 124.032 293.029 124.032C293.03 124.032 293.031 124.032 293.032 124.032C293.033 124.032 293.034 124.032 293.035 124.032C293.036 124.032 293.036 124.032 293.037 124.032C293.038 124.032 293.039 124.032 293.04 124.032C293.041 124.032 293.042 124.032 293.043 124.032C293.043 124.032 293.044 124.032 293.045 124.032C293.046 124.032 293.047 124.032 293.048 124.032C293.049 124.032 293.05 124.032 293.05 124.032C293.051 124.032 293.052 124.032 293.053 124.032C293.054 124.032 293.055 124.032 293.056 124.032C293.057 124.032 293.057 124.032 293.058 124.032C293.059 124.032 293.06 124.032 293.061 124.032C293.062 124.032 293.063 124.032 293.064 124.032C293.064 124.032 293.065 124.032 293.066 124.032C293.067 124.032 293.068 124.032 293.069 124.032C293.07 124.032 293.071 124.032 293.071 124.032C293.072 124.032 293.073 124.032 293.074 124.032C293.075 124.032 293.076 124.032 293.077 124.032C293.078 124.032 293.078 124.032 293.079 124.032C293.08 124.032 293.081 124.032 293.082 124.032C293.083 124.032 293.084 124.032 293.085 124.032C293.085 124.032 293.086 124.032 293.087 124.032C293.088 124.032 293.089 124.032 293.09 124.032C293.091 124.032 293.092 124.032 293.092 124.032C293.093 124.032 293.094 124.032 293.095 124.032C293.096 124.032 293.097 124.032 293.098 124.032C293.099 124.032 293.099 124.032 293.1 124.032C293.101 124.032 293.102 124.032 293.103 124.032C293.104 124.032 293.105 124.032 293.105 124.032C293.106 124.032 293.107 124.032 293.108 124.032C293.109 124.032 293.11 124.032 293.111 124.032C293.112 124.032 293.112 124.032 293.113 124.032C293.114 124.032 293.115 124.032 293.116 124.032C293.117 124.032 293.118 124.032 293.118 124.032C293.119 124.032 293.12 124.032 293.121 124.032C293.122 124.032 293.123 124.032 293.124 124.032C293.125 124.032 293.125 124.032 293.126 124.032C293.127 124.032 293.128 124.032 293.129 124.032C293.13 124.032 293.131 124.032 293.132 124.032C293.132 124.032 293.133 124.032 293.134 124.032C293.135 124.032 293.136 124.032 293.137 124.032C293.138 124.032 293.138 124.032 293.139 124.032C293.14 124.032 293.141 124.032 293.142 124.032C293.143 124.032 293.144 124.032 293.145 124.032C293.145 124.032 293.146 124.032 293.147 124.032C293.148 124.032 293.149 124.032 293.15 124.032C293.151 124.032 293.151 124.032 293.152 124.032C293.153 124.032 293.154 124.032 293.155 124.032C293.156 124.032 293.157 124.032 293.157 124.032C293.158 124.032 293.159 124.032 293.16 124.032C293.161 124.032 293.162 124.032 293.163 124.032C293.163 124.032 293.164 124.032 293.165 124.032C293.166 124.032 293.167 124.032 293.168 124.032C293.169 124.032 293.17 124.032 293.17 124.032C293.171 124.032 293.172 124.032 293.173 124.032C293.174 124.032 293.175 124.032 293.176 124.032C293.176 124.032 293.177 124.032 293.178 124.032C293.179 124.032 293.18 124.032 293.181 124.032C293.182 124.032 293.182 124.032 293.183 124.032C293.184 124.032 293.185 124.032 293.186 124.032C293.187 124.032 293.188 124.032 293.188 124.032C293.189 124.032 293.19 124.032 293.191 124.032C293.192 124.032 293.193 124.032 293.194 124.032C293.194 124.032 293.195 124.032 293.196 124.032C293.197 124.032 293.198 124.032 293.199 124.032C293.2 124.032 293.2 124.032 293.201 124.032C293.202 124.032 293.203 124.032 293.204 124.032C293.205 124.032 293.206 124.032 293.206 124.032C293.207 124.032 293.208 124.032 293.209 124.032C293.21 124.032 293.211 124.032 293.212 124.032C293.212 124.032 293.213 124.032 293.214 124.032C293.215 124.032 293.216 124.032 293.217 124.032C293.218 124.032 293.218 124.032 293.219 124.032C293.22 124.032 293.221 124.032 293.222 124.032C293.223 124.032 293.224 124.032 293.224 124.032C293.225 124.032 293.226 124.032 293.227 124.032C293.228 124.032 293.229 124.032 293.23 124.032C293.23 124.032 293.231 124.032 293.232 124.032C293.233 124.032 293.234 124.032 293.235 124.032C293.236 124.032 293.236 124.032 293.237 124.032C293.238 124.032 293.239 124.032 293.24 124.032C293.241 124.032 293.241 124.032 293.242 124.032C293.243 124.032 293.244 124.032 293.245 124.032C293.246 124.032 293.247 124.032 293.247 124.032C293.248 124.032 293.249 124.032 293.25 124.032C293.251 124.032 293.252 124.032 293.253 124.032C293.253 124.032 293.254 124.032 293.255 124.032C293.256 124.032 293.257 124.032 293.258 124.032C293.259 124.032 293.259 124.032 293.26 124.032C293.261 124.032 293.262 124.032 293.263 124.032C293.264 124.032 293.264 124.032 293.265 124.032C293.266 124.032 293.267 124.032 293.268 124.032C293.269 124.032 293.27 124.032 293.27 124.032C293.271 124.032 293.272 124.032 293.273 124.032C293.274 124.032 293.275 124.032 293.276 124.032C293.276 124.032 293.277 124.032 293.278 124.032C293.279 124.032 293.28 124.032 293.281 124.032C293.281 124.032 293.282 124.032 293.283 124.032C293.284 124.032 293.285 124.032 293.286 124.032C293.287 124.032 293.287 124.032 293.288 124.032C293.289 124.032 293.29 124.032 293.291 124.032C293.292 124.032 293.292 124.032 293.293 124.032C293.294 124.032 293.295 124.032 293.296 124.032C293.297 124.032 293.298 124.032 293.298 124.032C293.299 124.032 293.3 124.032 293.301 124.032C293.302 124.032 293.303 124.032 293.303 124.032C293.304 124.032 293.305 124.032 293.306 124.032C293.307 124.032 293.308 124.032 293.309 124.032C293.309 124.032 293.31 124.032 293.311 124.032C293.312 124.032 293.313 124.032 293.314 124.032C293.314 124.032 293.315 124.032 293.316 124.032C293.317 124.032 293.318 124.032 293.319 124.032C293.319 124.032 293.32 124.032 293.321 124.032C293.322 124.032 293.323 124.032 293.324 124.032C293.324 124.032 293.325 124.032 293.326 124.032C293.327 124.032 293.328 124.032 293.329 124.032C293.33 124.032 293.33 124.032 293.331 124.032C293.332 124.032 293.333 124.032 293.334 124.032C293.335 124.032 293.335 124.032 293.336 124.032C293.337 124.032 293.338 124.032 293.339 124.032C293.34 124.032 293.34 124.032 293.341 124.032C293.342 124.032 293.343 124.032 293.344 124.032C293.345 124.032 293.346 124.032 293.346 124.032C293.347 124.032 293.348 124.032 293.349 124.032C293.35 124.032 293.351 124.032 293.351 124.032C293.352 124.032 293.353 124.032 293.354 124.032C293.355 124.032 293.356 124.032 293.356 124.032C293.357 124.032 293.358 124.032 293.359 124.032C293.36 124.032 293.361 124.032 293.361 124.032C293.362 124.032 293.363 124.032 293.364 124.032C293.365 124.032 293.366 124.032 293.366 124.032C293.367 124.032 293.368 124.032 293.369 124.032C293.37 124.032 293.371 124.032 293.371 124.032C293.372 124.032 293.373 124.032 293.374 124.032C293.375 124.032 293.376 124.032 293.376 124.032C293.377 124.032 293.378 124.032 293.379 124.032C293.38 124.032 293.381 124.032 293.382 124.032C293.382 124.032 293.383 124.032 293.384 124.032C293.385 124.032 293.386 124.032 293.387 124.032C293.387 124.032 293.388 124.032 293.389 124.032V110.032ZM291.981 110.032L289.679 96.2225C289.665 96.2249 289.738 96.2121 289.884 96.1975C290.022 96.1837 290.307 96.16 290.701 96.16V110.16V124.16C292.101 124.16 293.358 123.996 294.283 123.842L291.981 110.032ZM290.701 110.16V96.16C289.448 96.16 288.795 96.0271 288.581 95.9694C288.396 95.9197 288.752 95.9855 289.312 96.4211L280.717 107.472L272.122 118.523C277.831 122.963 284.698 124.16 290.701 124.16V110.16ZM280.717 107.472L289.514 96.5808C289.731 96.756 290.277 97.2707 290.743 98.203C291.224 99.1657 291.389 100.113 291.389 100.816H277.389H263.389C263.389 108.056 266.705 114.151 271.92 118.363L280.717 107.472ZM277.389 100.816H291.389C291.389 100.864 291.383 101.106 291.284 101.483C291.183 101.871 291.007 102.308 290.743 102.74L278.797 95.44L266.851 88.1397C264.392 92.164 263.389 96.5547 263.389 100.816H277.389ZM278.797 95.44L290.634 102.916C291.067 102.23 292.2 100.706 294.453 98.1311L283.917 88.912L273.381 79.6929C270.855 82.5793 268.575 85.4072 266.96 87.9641L278.797 95.44ZM283.917 88.912L294.53 98.0419L304.77 86.1379L294.157 77.008L283.544 67.8781L273.304 79.7821L283.917 88.912ZM294.157 77.008L304.806 67.9193L287.654 47.8233L277.005 56.912L266.356 66.0007L283.508 86.0967L294.157 77.008Z" fill="black"/>
</g>
<g filter="url(#filter1_d_2_31)">
<path d="M47.056 67.408C50.64 67.408 53.3707 66.5973 55.248 64.976C57.2107 63.2693 58.192 60.7093 58.192 57.296C58.192 54.0533 57.168 51.5787 55.12 49.872C53.1573 48.08 50.256 47.184 46.416 47.184C45.0507 47.184 43.8987 47.2267 42.96 47.312C42.1067 47.312 41.2107 47.3973 40.272 47.568V67.408H47.056ZM40.4 108.496C39.4613 108.752 37.968 109.008 35.92 109.264C33.9573 109.52 31.9947 109.648 30.032 109.648C28.0693 109.648 26.32 109.477 24.784 109.136C23.3333 108.88 22.096 108.368 21.072 107.6C20.048 106.832 19.28 105.765 18.768 104.4C18.256 103.035 18 101.243 18 99.024V38.736C18 36.944 18.4693 35.5787 19.408 34.64C20.432 33.616 21.7973 32.8053 23.504 32.208C26.4053 31.184 29.6907 30.4587 33.36 30.032C37.1147 29.52 40.8693 29.264 44.624 29.264C56.4 29.264 65.4027 31.7813 71.632 36.816C77.8613 41.8507 80.976 48.6773 80.976 57.296C80.976 61.4773 80.2933 65.2747 78.928 68.688C77.648 72.016 75.6853 74.9173 73.04 77.392C70.48 79.7813 67.1947 81.6587 63.184 83.024C59.2587 84.304 54.6933 84.944 49.488 84.944H40.4V108.496ZM88.949 29.52C88.949 26.2773 90.0157 23.5467 92.149 21.328C94.3677 19.1093 97.269 18 100.853 18C104.437 18 107.296 19.1093 109.429 21.328C111.648 23.5467 112.757 26.2773 112.757 29.52C112.757 32.7627 111.648 35.4933 109.429 37.712C107.296 39.9307 104.437 41.04 100.853 41.04C97.269 41.04 94.3677 39.9307 92.149 37.712C90.0157 35.4933 88.949 32.7627 88.949 29.52ZM111.733 108.88C110.794 109.051 109.386 109.264 107.509 109.52C105.717 109.861 103.882 110.032 102.005 110.032C100.128 110.032 98.421 109.904 96.885 109.648C95.4343 109.392 94.197 108.88 93.173 108.112C92.149 107.344 91.3383 106.32 90.741 105.04C90.229 103.675 89.973 101.925 89.973 99.792V47.696C90.9117 47.5253 92.277 47.312 94.069 47.056C95.9463 46.7147 97.8237 46.544 99.701 46.544C101.578 46.544 103.242 46.672 104.693 46.928C106.229 47.184 107.509 47.696 108.533 48.464C109.557 49.232 110.325 50.2987 110.837 51.664C111.434 52.944 111.733 54.6507 111.733 56.784V108.88Z" fill="black"/>
<path d="M47.056 67.408C50.64 67.408 53.3707 66.5973 55.248 64.976C57.2107 63.2693 58.192 60.7093 58.192 57.296C58.192 54.0533 57.168 51.5787 55.12 49.872C53.1573 48.08 50.256 47.184 46.416 47.184C45.0507 47.184 43.8987 47.2267 42.96 47.312C42.1067 47.312 41.2107 47.3973 40.272 47.568V67.408H47.056ZM40.4 108.496C39.4613 108.752 37.968 109.008 35.92 109.264C33.9573 109.52 31.9947 109.648 30.032 109.648C28.0693 109.648 26.32 109.477 24.784 109.136C23.3333 108.88 22.096 108.368 21.072 107.6C20.048 106.832 19.28 105.765 18.768 104.4C18.256 103.035 18 101.243 18 99.024V38.736C18 36.944 18.4693 35.5787 19.408 34.64C20.432 33.616 21.7973 32.8053 23.504 32.208C26.4053 31.184 29.6907 30.4587 33.36 30.032C37.1147 29.52 40.8693 29.264 44.624 29.264C56.4 29.264 65.4027 31.7813 71.632 36.816C77.8613 41.8507 80.976 48.6773 80.976 57.296C80.976 61.4773 80.2933 65.2747 78.928 68.688C77.648 72.016 75.6853 74.9173 73.04 77.392C70.48 79.7813 67.1947 81.6587 63.184 83.024C59.2587 84.304 54.6933 84.944 49.488 84.944H40.4V108.496ZM88.949 29.52C88.949 26.2773 90.0157 23.5467 92.149 21.328C94.3677 19.1093 97.269 18 100.853 18C104.437 18 107.296 19.1093 109.429 21.328C111.648 23.5467 112.757 26.2773 112.757 29.52C112.757 32.7627 111.648 35.4933 109.429 37.712C107.296 39.9307 104.437 41.04 100.853 41.04C97.269 41.04 94.3677 39.9307 92.149 37.712C90.0157 35.4933 88.949 32.7627 88.949 29.52ZM111.733 108.88C110.794 109.051 109.386 109.264 107.509 109.52C105.717 109.861 103.882 110.032 102.005 110.032C100.128 110.032 98.421 109.904 96.885 109.648C95.4343 109.392 94.197 108.88 93.173 108.112C92.149 107.344 91.3383 106.32 90.741 105.04C90.229 103.675 89.973 101.925 89.973 99.792V47.696C90.9117 47.5253 92.277 47.312 94.069 47.056C95.9463 46.7147 97.8237 46.544 99.701 46.544C101.578 46.544 103.242 46.672 104.693 46.928C106.229 47.184 107.509 47.696 108.533 48.464C109.557 49.232 110.325 50.2987 110.837 51.664C111.434 52.944 111.733 54.6507 111.733 56.784V108.88Z" fill="white"/>
<path d="M149.522 92.368C150.461 92.5387 151.613 92.7093 152.978 92.88C154.343 92.9653 155.623 93.008 156.818 93.008C159.719 93.008 162.365 92.5813 164.754 91.728C167.229 90.8747 169.319 89.552 171.026 87.76C172.818 85.968 174.183 83.664 175.122 80.848C176.146 77.9467 176.658 74.4907 176.658 70.48C176.658 62.8 174.866 57.04 171.282 53.2C167.698 49.2747 162.919 47.312 156.946 47.312C155.751 47.312 154.514 47.3547 153.234 47.44C152.039 47.5253 150.802 47.6533 149.522 47.824V92.368ZM156.69 111.056C155.239 111.056 153.575 111.013 151.698 110.928C149.821 110.843 147.858 110.672 145.81 110.416C143.847 110.16 141.842 109.819 139.794 109.392C137.831 109.051 135.997 108.539 134.29 107.856C129.597 106.064 127.25 102.949 127.25 98.512V38.736C127.25 36.944 127.719 35.5787 128.658 34.64C129.682 33.616 131.047 32.8053 132.754 32.208C136.423 31.0133 140.306 30.2453 144.402 29.904C148.498 29.4773 152.167 29.264 155.41 29.264C162.066 29.264 168.082 30.0747 173.458 31.696C178.919 33.3173 183.57 35.8347 187.41 39.248C191.335 42.576 194.365 46.8 196.498 51.92C198.631 57.04 199.698 63.0987 199.698 70.096C199.698 76.9227 198.674 82.896 196.626 88.016C194.578 93.0507 191.634 97.3173 187.794 100.816C184.039 104.229 179.517 106.789 174.226 108.496C168.935 110.203 163.09 111.056 156.69 111.056ZM243.732 111.056C238.697 111.056 234.004 110.373 229.652 109.008C225.385 107.557 221.631 105.424 218.388 102.608C215.231 99.792 212.713 96.2507 210.836 91.984C209.044 87.7173 208.148 82.7253 208.148 77.008C208.148 71.376 209.044 66.5547 210.836 62.544C212.713 58.448 215.145 55.12 218.132 52.56C221.119 49.9147 224.532 47.9947 228.372 46.8C232.212 45.52 236.137 44.88 240.148 44.88C244.671 44.88 248.767 45.5627 252.436 46.928C256.191 48.2933 259.391 50.1707 262.036 52.56C264.767 54.9493 266.857 57.808 268.308 61.136C269.844 64.464 270.612 68.0907 270.612 72.016C270.612 74.9173 269.801 77.136 268.18 78.672C266.559 80.208 264.297 81.1893 261.396 81.616L229.78 86.352C230.719 89.168 232.639 91.3013 235.54 92.752C238.441 94.1173 241.769 94.8 245.524 94.8C249.023 94.8 252.308 94.3733 255.38 93.52C258.537 92.5813 261.097 91.5147 263.06 90.32C264.425 91.1733 265.577 92.368 266.516 93.904C267.455 95.44 267.924 97.0613 267.924 98.768C267.924 102.608 266.132 105.467 262.548 107.344C259.817 108.795 256.745 109.776 253.332 110.288C249.919 110.8 246.719 111.056 243.732 111.056ZM240.148 60.752C238.1 60.752 236.308 61.0933 234.772 61.776C233.321 62.4587 232.127 63.3547 231.188 64.464C230.249 65.488 229.524 66.6827 229.012 68.048C228.585 69.328 228.329 70.6507 228.244 72.016L250.132 68.432C249.876 66.7253 248.937 65.0187 247.316 63.312C245.695 61.6053 243.305 60.752 240.148 60.752ZM277.005 56.912C277.688 53.6693 279.01 51.024 280.973 48.976C283.021 46.928 285.538 45.904 288.525 45.904C291.341 45.904 293.517 46.5867 295.053 47.952C296.589 49.3173 298.296 51.2373 300.173 53.712L308.365 64.464L322.061 45.904C326.754 45.904 330.466 46.7573 333.197 48.464C335.928 50.0853 337.293 52.304 337.293 55.12C337.293 56.2293 337.122 57.2533 336.781 58.192C336.525 59.0453 336.098 59.9413 335.501 60.88C334.904 61.8187 334.136 62.8853 333.197 64.08C332.258 65.2747 331.149 66.6827 329.869 68.304L321.421 77.776L338.189 99.92C337.762 103.163 336.482 105.723 334.349 107.6C332.216 109.477 329.656 110.416 326.669 110.416C323.426 110.331 320.824 109.392 318.861 107.6C316.984 105.808 315.149 103.632 313.357 101.072L306.445 91.216L293.389 110.032C292.962 110.032 292.493 110.032 291.981 110.032C291.469 110.117 291.042 110.16 290.701 110.16C286.349 110.16 283.021 109.264 280.717 107.472C278.498 105.68 277.389 103.461 277.389 100.816C277.389 98.768 277.858 96.976 278.797 95.44C279.821 93.8187 281.528 91.6427 283.917 88.912L294.157 77.008L277.005 56.912Z" fill="#48B4B9"/>
</g>
<defs>
<filter id="filter0_d_2_31" x="0" y="0" width="356.189" height="129.056" filterUnits="userSpaceOnUse" color-interpolation-filters="sRGB">
<feFlood flood-opacity="0" result="BackgroundImageFix"/>
<feColorMatrix in="SourceAlpha" type="matrix" values="0 0 0 0 0 0 0 0 0 0 0 0 0 0 0 0 0 0 127 0" result="hardAlpha"/>
<feOffset/>
<feGaussianBlur stdDeviation="2"/>
<feComposite in2="hardAlpha" operator="out"/>
<feColorMatrix type="matrix" values="0 0 0 0 0 0 0 0 0 0 0 0 0 0 0 0 0 0 0.25 0"/>
<feBlend mode="normal" in2="BackgroundImageFix" result="effect1_dropShadow_2_31"/>
<feBlend mode="normal" in="SourceGraphic" in2="effect1_dropShadow_2_31" result="shape"/>
</filter>
<filter id="filter1_d_2_31" x="14" y="14" width="328.189" height="101.056" filterUnits="userSpaceOnUse" color-interpolation-filters="sRGB">
<feFlood flood-opacity="0" result="BackgroundImageFix"/>
<feColorMatrix in="SourceAlpha" type="matrix" values="0 0 0 0 0 0 0 0 0 0 0 0 0 0 0 0 0 0 127 0" result="hardAlpha"/>
<feOffset/>
<feGaussianBlur stdDeviation="2"/>
<feComposite in2="hardAlpha" operator="out"/>
<feColorMatrix type="matrix" values="0 0 0 0 0 0 0 0 0 0 0 0 0 0 0 0 0 0 0.25 0"/>
<feBlend mode="normal" in2="BackgroundImageFix" result="effect1_dropShadow_2_31"/>
<feBlend mode="normal" in="SourceGraphic" in2="effect1_dropShadow_2_31" result="shape"/>
</filter>
</defs>
</svg>
