<svg width="200" height="200" viewBox="0 0 200 200" fill="none" xmlns="http://www.w3.org/2000/svg">
<path fill-rule="evenodd" clip-rule="evenodd" d="M100 0C155.228 0 200 44.7715 200 100C200 155.228 155.228 200 100 200C44.7715 200 0 155.228 0 100C0 44.7715 44.7715 0 100 0ZM100 20C55.8172 20 20 55.8172 20 100C20 144.183 55.8172 180 100 180C144.183 180 180 144.183 180 100C180 55.8172 144.183 20 100 20Z" fill="black"/>
<path d="M61.2607 90C60.4381 93.1962 60 96.547 60 100C60 103.453 60.4381 106.804 61.2607 110H5V90H61.2607Z" fill="black"/>
<path d="M194 110H138.739C139.562 106.804 140 103.453 140 100C140 96.547 139.562 93.1962 138.739 90H194V110Z" fill="black"/>
<path fill-rule="evenodd" clip-rule="evenodd" d="M100 60C122.091 60 140 77.9086 140 100C140 122.091 122.091 140 100 140C77.9086 140 60 122.091 60 100C60 77.9086 77.9086 60 100 60ZM100 80C88.9543 80 80 88.9543 80 100C80 111.046 88.9543 120 100 120C111.046 120 120 111.046 120 100C120 88.9543 111.046 80 100 80Z" fill="black"/>
<path d="M100 20C140.796 20 174.459 50.537 179.38 90H138.739C134.299 72.7478 118.638 60 100 60C81.3617 60 65.7012 72.7478 61.2607 90H20.6201C25.5412 50.537 59.2039 20 100 20Z" fill="#FF4343"/>
<path d="M61.2607 110C65.7012 127.252 81.3617 140 100 140C118.638 140 134.299 127.252 138.739 110H179.38C174.459 149.463 140.796 180 100 180C59.2039 180 25.5412 149.463 20.6201 110H61.2607ZM100 80C111.046 80 120 88.9543 120 100C120 111.046 111.046 120 100 120C88.9543 120 80 111.046 80 100C80 88.9543 88.9543 80 100 80Z" fill="white"/>
</svg>
