<svg width="183" height="128" viewBox="0 0 183 128" fill="none" xmlns="http://www.w3.org/2000/svg">
<g filter="url(#filter0_d_2_17)">
<path d="M47.056 56.4C50.64 56.4 53.3707 55.5893 55.248 53.968C57.2107 52.2613 58.192 49.7013 58.192 46.288C58.192 43.0453 57.168 40.5707 55.12 38.864C53.1573 37.072 50.256 36.176 46.416 36.176C45.0507 36.176 43.8987 36.2187 42.96 36.304C42.1067 36.304 41.2107 36.3893 40.272 36.56V56.4H47.056ZM40.4 97.488C39.4613 97.744 37.968 98 35.92 98.256C33.9573 98.512 31.9947 98.64 30.032 98.64C28.0693 98.64 26.32 98.4693 24.784 98.128C23.3333 97.872 22.096 97.36 21.072 96.592C20.048 95.824 19.28 94.7573 18.768 93.392C18.256 92.0267 18 90.2347 18 88.016V27.728C18 25.936 18.4693 24.5707 19.408 23.632C20.432 22.608 21.7973 21.7973 23.504 21.2C26.4053 20.176 29.6907 19.4507 33.36 19.024C37.1147 18.512 40.8693 18.256 44.624 18.256C56.4 18.256 65.4027 20.7733 71.632 25.808C77.8613 30.8427 80.976 37.6693 80.976 46.288C80.976 50.4693 80.2933 54.2667 78.928 57.68C77.648 61.008 75.6853 63.9093 73.04 66.384C70.48 68.7733 67.1947 70.6507 63.184 72.016C59.2587 73.296 54.6933 73.936 49.488 73.936H40.4V97.488ZM114.647 81.36C115.586 81.5307 116.738 81.7013 118.103 81.872C119.468 81.9573 120.748 82 121.943 82C124.844 82 127.49 81.5733 129.879 80.72C132.354 79.8667 134.444 78.544 136.151 76.752C137.943 74.96 139.308 72.656 140.247 69.84C141.271 66.9387 141.783 63.4827 141.783 59.472C141.783 51.792 139.991 46.032 136.407 42.192C132.823 38.2667 128.044 36.304 122.071 36.304C120.876 36.304 119.639 36.3467 118.359 36.432C117.164 36.5173 115.927 36.6453 114.647 36.816V81.36ZM121.815 100.048C120.364 100.048 118.7 100.005 116.823 99.92C114.946 99.8347 112.983 99.664 110.935 99.408C108.972 99.152 106.967 98.8107 104.919 98.384C102.956 98.0427 101.122 97.5307 99.415 96.848C94.7217 95.056 92.375 91.9413 92.375 87.504V27.728C92.375 25.936 92.8443 24.5707 93.783 23.632C94.807 22.608 96.1723 21.7973 97.879 21.2C101.548 20.0053 105.431 19.2373 109.527 18.896C113.623 18.4693 117.292 18.256 120.535 18.256C127.191 18.256 133.207 19.0667 138.583 20.688C144.044 22.3093 148.695 24.8267 152.535 28.24C156.46 31.568 159.49 35.792 161.623 40.912C163.756 46.032 164.823 52.0907 164.823 59.088C164.823 65.9147 163.799 71.888 161.751 77.008C159.703 82.0427 156.759 86.3093 152.919 89.808C149.164 93.2213 144.642 95.7813 139.351 97.488C134.06 99.1947 128.215 100.048 121.815 100.048Z" fill="black"/>
<path d="M55.248 53.968L64.3987 64.5635C64.4106 64.5532 64.4226 64.5428 64.4345 64.5325L55.248 53.968ZM55.12 38.864L45.6802 49.2028C45.8361 49.3451 45.9952 49.4839 46.1574 49.6191L55.12 38.864ZM42.96 36.304V50.304C43.3831 50.304 43.8061 50.2848 44.2275 50.2465L42.96 36.304ZM40.272 36.56L37.7676 22.7858C31.1107 23.9962 26.272 29.794 26.272 36.56H40.272ZM40.272 56.4H26.272C26.272 64.132 32.54 70.4 40.272 70.4V56.4ZM40.4 97.488L44.0836 110.995C50.1745 109.334 54.4 103.801 54.4 97.488H40.4ZM35.92 98.256L34.1835 84.3641C34.1587 84.3672 34.134 84.3704 34.1092 84.3736L35.92 98.256ZM24.784 98.128L27.821 84.4614C27.6206 84.4168 27.4192 84.3767 27.217 84.341L24.784 98.128ZM21.072 96.592L12.672 107.792H12.672L21.072 96.592ZM18.768 93.392L5.65938 98.3077L5.65939 98.3077L18.768 93.392ZM19.408 23.632L29.3075 33.5315L29.3075 33.5315L19.408 23.632ZM23.504 21.2L28.1289 34.414C28.1404 34.41 28.152 34.4059 28.1635 34.4019L23.504 21.2ZM33.36 19.024L34.977 32.9303C35.0686 32.9196 35.1602 32.9081 35.2516 32.8956L33.36 19.024ZM71.632 25.808L62.8318 36.6964L71.632 25.808ZM78.928 57.68L65.9293 52.4805C65.9062 52.5383 65.8835 52.5962 65.8612 52.6543L78.928 57.68ZM73.04 66.384L82.5925 76.6188C82.5964 76.6151 82.6003 76.6115 82.6042 76.6078L73.04 66.384ZM63.184 72.016L67.5243 85.3262C67.5815 85.3075 67.6387 85.2885 67.6957 85.2691L63.184 72.016ZM40.4 73.936V59.936C32.668 59.936 26.4 66.204 26.4 73.936H40.4ZM47.056 56.4V70.4C52.5325 70.4 59.0529 69.1803 64.3987 64.5635L55.248 53.968L46.0973 43.3725C46.8681 42.7068 47.5512 42.4471 47.8076 42.3709C48.0188 42.3082 47.8302 42.4 47.056 42.4V56.4ZM55.248 53.968L64.4345 64.5325C70.3417 59.3958 72.192 52.4083 72.192 46.288H58.192H44.192C44.192 46.6859 44.1313 46.4149 44.3835 45.7569C44.6679 45.015 45.218 44.1369 46.0615 43.4035L55.248 53.968ZM58.192 46.288H72.192C72.192 39.8778 70.0104 33.0488 64.0826 28.1089L55.12 38.864L46.1574 49.6191C45.4304 49.0133 44.8389 48.2016 44.4878 47.3529C44.1662 46.5758 44.192 46.1258 44.192 46.288H58.192ZM55.12 38.864L64.5598 28.5252C59.0712 23.5139 52.2116 22.176 46.416 22.176V36.176V50.176C47.2878 50.176 47.5278 50.2823 47.341 50.2246C47.101 50.1505 46.4263 49.884 45.6802 49.2028L55.12 38.864ZM46.416 36.176V22.176C44.797 22.176 43.1931 22.2251 41.6925 22.3615L42.96 36.304L44.2275 50.2465C44.6043 50.2122 45.3043 50.176 46.416 50.176V36.176ZM42.96 36.304V22.304C41.1752 22.304 39.4374 22.4822 37.7676 22.7858L40.272 36.56L42.7764 50.3342C42.984 50.2964 43.0381 50.304 42.96 50.304V36.304ZM40.272 36.56H26.272V56.4H40.272H54.272V36.56H40.272ZM40.272 56.4V70.4H47.056V56.4V42.4H40.272V56.4ZM40.4 97.488L36.7163 83.9813C36.8504 83.9447 36.7282 83.9845 36.2105 84.0733C35.732 84.1553 35.0666 84.2537 34.1835 84.3641L35.92 98.256L37.6565 112.148C39.8028 111.88 42.1278 111.528 44.0836 110.995L40.4 97.488ZM35.92 98.256L34.1092 84.3736C32.7419 84.5519 31.3841 84.64 30.032 84.64V98.64V112.64C32.6053 112.64 35.1728 112.472 37.7307 112.138L35.92 98.256ZM30.032 98.64V84.64C28.8514 84.64 28.1506 84.5346 27.821 84.4614L24.784 98.128L21.747 111.795C24.4894 112.404 27.2872 112.64 30.032 112.64V98.64ZM24.784 98.128L27.217 84.341C27.6032 84.4092 28.4896 84.6552 29.472 85.392L21.072 96.592L12.672 107.792C15.7024 110.065 19.0634 111.335 22.351 111.915L24.784 98.128ZM21.072 96.592L29.472 85.392C30.871 86.4413 31.5847 87.6979 31.8766 88.4763L18.768 93.392L5.65939 98.3077C6.97526 101.817 9.22498 105.207 12.672 107.792L21.072 96.592ZM18.768 93.392L31.8766 88.4763C31.9663 88.7155 32.0135 88.8894 32.0353 88.9791C32.0573 89.0692 32.0585 89.0949 32.0513 89.0441C32.0351 88.9306 32 88.6045 32 88.016H18H3.99999C3.99999 91.1289 4.33408 94.7736 5.65938 98.3077L18.768 93.392ZM18 88.016H32V27.728H18H3.99999V88.016H18ZM18 27.728H32C32 28.3126 31.8085 31.0305 29.3075 33.5315L19.408 23.632L9.50851 13.7325C5.13019 18.1108 3.99999 23.5594 3.99999 27.728H18ZM19.408 23.632L29.3075 33.5315C28.5219 34.317 27.926 34.485 28.1289 34.414L23.504 21.2L18.8791 7.98598C15.6686 9.10964 12.3421 10.8989 9.50849 13.7325L19.408 23.632ZM23.504 21.2L28.1635 34.4019C29.9071 33.7865 32.1453 33.2596 34.977 32.9303L33.36 19.024L31.743 5.11769C27.236 5.64175 22.9035 6.56554 18.8445 7.99814L23.504 21.2ZM33.36 19.024L35.2516 32.8956C38.3851 32.4683 41.5079 32.256 44.624 32.256V18.256V4.256C40.2308 4.256 35.8442 4.55568 31.4684 5.15237L33.36 19.024ZM44.624 18.256V32.256C54.6531 32.256 60.0294 34.4314 62.8318 36.6964L71.632 25.808L80.4322 14.9196C70.7759 7.11526 58.1469 4.256 44.624 4.256V18.256ZM71.632 25.808L62.8318 36.6964C65.4962 38.8498 66.976 41.5294 66.976 46.288H80.976H94.976C94.976 33.8093 90.2264 22.8355 80.4322 14.9196L71.632 25.808ZM80.976 46.288H66.976C66.976 48.9311 66.5486 50.9323 65.9293 52.4805L78.928 57.68L91.9267 62.8795C94.0381 57.601 94.976 52.0075 94.976 46.288H80.976ZM78.928 57.68L65.8612 52.6543C65.3532 53.9749 64.6012 55.1074 63.4758 56.1602L73.04 66.384L82.6042 76.6078C86.7695 72.7112 89.9427 68.0411 91.9948 62.7057L78.928 57.68ZM73.04 66.384L63.4875 56.1492C62.6463 56.9344 61.1939 57.9045 58.6723 58.7629L63.184 72.016L67.6957 85.2691C73.1954 83.3969 78.3137 80.6123 82.5925 76.6188L73.04 66.384ZM63.184 72.016L58.8437 58.7058C56.6301 59.4276 53.5856 59.936 49.488 59.936V73.936V87.936C55.801 87.936 61.8872 87.1644 67.5243 85.3262L63.184 72.016ZM49.488 73.936V59.936H40.4V73.936V87.936H49.488V73.936ZM40.4 73.936H26.4V97.488H40.4H54.4V73.936H40.4ZM114.647 81.36H100.647C100.647 88.126 105.486 93.9238 112.143 95.1342L114.647 81.36ZM118.103 81.872L116.367 95.7639C116.653 95.7997 116.941 95.8267 117.23 95.8447L118.103 81.872ZM129.879 80.72L125.315 67.4848C125.267 67.5015 125.218 67.5184 125.17 67.5356L129.879 80.72ZM136.151 76.752L126.252 66.8525C126.171 66.933 126.092 67.0144 126.013 67.0968L136.151 76.752ZM140.247 69.84L127.045 65.1805C127.018 65.2577 126.991 65.3352 126.965 65.4128L140.247 69.84ZM136.407 42.192L126.068 51.6318C126.103 51.6695 126.137 51.7071 126.172 51.7445L136.407 42.192ZM118.359 36.432L117.428 22.463C117.406 22.4645 117.384 22.466 117.362 22.4676L118.359 36.432ZM114.647 36.816L112.797 22.9388C105.841 23.8662 100.647 29.7992 100.647 36.816H114.647ZM116.823 99.92L116.187 113.906V113.906L116.823 99.92ZM110.935 99.408L109.124 113.29C109.149 113.294 109.174 113.297 109.199 113.3L110.935 99.408ZM104.919 98.384L107.774 84.6783C107.623 84.6467 107.47 84.6176 107.318 84.591L104.919 98.384ZM99.415 96.848L104.614 83.8493C104.546 83.822 104.478 83.7952 104.409 83.7689L99.415 96.848ZM93.783 23.632L103.682 33.5315L103.682 33.5315L93.783 23.632ZM97.879 21.2L93.5448 7.88779C93.4475 7.91946 93.3506 7.95219 93.2541 7.98598L97.879 21.2ZM109.527 18.896L110.69 32.8476C110.786 32.8396 110.882 32.8306 110.977 32.8207L109.527 18.896ZM138.583 20.688L134.541 34.0917C134.56 34.0975 134.579 34.1033 134.599 34.1091L138.583 20.688ZM152.535 28.24L143.234 38.7037C143.316 38.7763 143.398 38.8479 143.481 38.9186L152.535 28.24ZM161.623 40.912L148.7 46.2966V46.2966L161.623 40.912ZM161.751 77.008L174.719 82.2832C174.729 82.258 174.74 82.2327 174.75 82.2075L161.751 77.008ZM152.919 89.808L162.336 100.167C162.34 100.164 162.344 100.16 162.348 100.157L152.919 89.808ZM139.351 97.488L135.053 84.1641L139.351 97.488ZM114.647 81.36L112.143 95.1342C113.42 95.3664 114.846 95.5738 116.367 95.7639L118.103 81.872L119.839 67.9801C118.63 67.8289 117.751 67.6949 117.151 67.5858L114.647 81.36ZM118.103 81.872L117.23 95.8447C118.845 95.9457 120.419 96 121.943 96V82V68C121.078 68 120.092 67.969 118.976 67.8993L118.103 81.872ZM121.943 82V96C126.222 96 130.487 95.3689 134.588 93.9044L129.879 80.72L125.17 67.5356C124.492 67.7778 123.467 68 121.943 68V82ZM129.879 80.72L134.443 93.9552C138.909 92.4151 142.948 89.9151 146.289 86.4072L136.151 76.752L126.013 67.0968C125.941 67.1729 125.798 67.3183 125.315 67.4848L129.879 80.72ZM136.151 76.752L146.05 86.6515C149.622 83.0801 152.02 78.793 153.529 74.2672L140.247 69.84L126.965 65.4128C126.597 66.519 126.264 66.8399 126.252 66.8525L136.151 76.752ZM140.247 69.84L153.449 74.4995C155.134 69.725 155.783 64.6143 155.783 59.472H141.783H127.783C127.783 62.351 127.408 64.1523 127.045 65.1805L140.247 69.84ZM141.783 59.472H155.783C155.783 49.865 153.561 40.0527 146.642 32.6395L136.407 42.192L126.172 51.7445C126.421 52.0113 127.783 53.719 127.783 59.472H141.783ZM136.407 42.192L146.746 32.7522C140.166 25.5458 131.439 22.304 122.071 22.304V36.304V50.304C124.65 50.304 125.48 50.9875 126.068 51.6318L136.407 42.192ZM122.071 36.304V22.304C120.544 22.304 118.995 22.3585 117.428 22.463L118.359 36.432L119.29 50.401C120.283 50.3348 121.209 50.304 122.071 50.304V36.304ZM118.359 36.432L117.362 22.4676C115.861 22.5748 114.338 22.7333 112.797 22.9388L114.647 36.816L116.497 50.6932C117.516 50.5574 118.468 50.4599 119.356 50.3964L118.359 36.432ZM114.647 36.816H100.647V81.36H114.647H128.647V36.816H114.647ZM121.815 100.048V86.048C120.627 86.048 119.182 86.0128 117.459 85.9344L116.823 99.92L116.187 113.906C118.218 113.998 120.101 114.048 121.815 114.048V100.048ZM116.823 99.92L117.459 85.9344C115.983 85.8674 114.389 85.7308 112.671 85.5161L110.935 99.408L109.199 113.3C111.577 113.597 113.908 113.802 116.187 113.906L116.823 99.92ZM110.935 99.408L112.746 85.5256C111.153 85.3178 109.496 85.0369 107.774 84.6783L104.919 98.384L102.064 112.09C104.438 112.584 106.792 112.986 109.124 113.29L110.935 99.408ZM104.919 98.384L107.318 84.591C106.234 84.4026 105.346 84.1419 104.614 83.8493L99.415 96.848L94.2155 109.847C96.8974 110.919 99.6782 111.683 102.52 112.177L104.919 98.384ZM99.415 96.848L104.409 83.7689C103.823 83.5451 104.509 83.6719 105.317 84.7435C105.713 85.2699 106.006 85.8568 106.184 86.4297C106.357 86.9839 106.375 87.3745 106.375 87.504H92.375H78.375C78.375 92.3241 79.7037 97.2793 82.9534 101.592C86.1075 105.779 90.3141 108.359 94.4212 109.927L99.415 96.848ZM92.375 87.504H106.375V27.728H92.375H78.375V87.504H92.375ZM92.375 27.728H106.375C106.375 28.3126 106.183 31.0305 103.682 33.5315L93.783 23.632L83.8835 13.7325C79.5052 18.1108 78.375 23.5594 78.375 27.728H92.375ZM93.783 23.632L103.682 33.5315C102.897 34.317 102.301 34.485 102.504 34.414L97.879 21.2L93.2541 7.98598C90.0436 9.10964 86.7171 10.8989 83.8835 13.7325L93.783 23.632ZM97.879 21.2L102.213 34.5122C104.789 33.6735 107.602 33.1049 110.69 32.8476L109.527 18.896L108.364 4.94436C103.26 5.36974 98.3076 6.33713 93.5448 7.88779L97.879 21.2ZM109.527 18.896L110.977 32.8207C114.713 32.4315 117.885 32.256 120.535 32.256V18.256V4.256C116.699 4.256 112.533 4.50716 108.077 4.97134L109.527 18.896ZM120.535 18.256V32.256C126.068 32.256 130.692 32.931 134.541 34.0917L138.583 20.688L142.625 7.28429C135.722 5.2023 128.314 4.256 120.535 4.256V18.256ZM138.583 20.688L134.599 34.1091C138.308 35.2104 141.088 36.7962 143.234 38.7037L152.535 28.24L161.836 17.7763C156.302 12.8572 149.78 9.40827 142.567 7.26694L138.583 20.688ZM152.535 28.24L143.481 38.9186C145.586 40.7032 147.351 43.0598 148.7 46.2966L161.623 40.912L174.546 35.5274C171.628 28.5241 167.334 22.4328 161.589 17.5614L152.535 28.24ZM161.623 40.912L148.7 46.2966C149.963 49.3276 150.823 53.4734 150.823 59.088H164.823H178.823C178.823 50.7079 177.55 42.7364 174.546 35.5274L161.623 40.912ZM164.823 59.088H150.823C150.823 64.5435 150.002 68.6844 148.752 71.8085L161.751 77.008L174.75 82.2075C177.596 75.0916 178.823 67.2859 178.823 59.088H164.823ZM161.751 77.008L148.783 71.7328C147.484 74.9254 145.715 77.432 143.49 79.4593L152.919 89.808L162.348 100.157C167.803 95.1867 171.922 89.1599 174.719 82.2832L161.751 77.008ZM152.919 89.808L143.502 79.4488C141.359 81.3968 138.629 83.0106 135.053 84.1641L139.351 97.488L143.649 110.812C150.655 108.552 156.97 105.046 162.336 100.167L152.919 89.808ZM139.351 97.488L135.053 84.1641C131.343 85.3609 126.972 86.048 121.815 86.048V100.048V114.048C129.458 114.048 136.778 113.028 143.649 110.812L139.351 97.488Z" fill="black"/>
</g>
<g filter="url(#filter1_d_2_17)">
<path d="M47.056 56.4C50.64 56.4 53.3707 55.5893 55.248 53.968C57.2107 52.2613 58.192 49.7013 58.192 46.288C58.192 43.0453 57.168 40.5707 55.12 38.864C53.1573 37.072 50.256 36.176 46.416 36.176C45.0507 36.176 43.8987 36.2187 42.96 36.304C42.1067 36.304 41.2107 36.3893 40.272 36.56V56.4H47.056ZM40.4 97.488C39.4613 97.744 37.968 98 35.92 98.256C33.9573 98.512 31.9947 98.64 30.032 98.64C28.0693 98.64 26.32 98.4693 24.784 98.128C23.3333 97.872 22.096 97.36 21.072 96.592C20.048 95.824 19.28 94.7573 18.768 93.392C18.256 92.0267 18 90.2347 18 88.016V27.728C18 25.936 18.4693 24.5707 19.408 23.632C20.432 22.608 21.7973 21.7973 23.504 21.2C26.4053 20.176 29.6907 19.4507 33.36 19.024C37.1147 18.512 40.8693 18.256 44.624 18.256C56.4 18.256 65.4027 20.7733 71.632 25.808C77.8613 30.8427 80.976 37.6693 80.976 46.288C80.976 50.4693 80.2933 54.2667 78.928 57.68C77.648 61.008 75.6853 63.9093 73.04 66.384C70.48 68.7733 67.1947 70.6507 63.184 72.016C59.2587 73.296 54.6933 73.936 49.488 73.936H40.4V97.488Z" fill="black"/>
<path d="M47.056 56.4C50.64 56.4 53.3707 55.5893 55.248 53.968C57.2107 52.2613 58.192 49.7013 58.192 46.288C58.192 43.0453 57.168 40.5707 55.12 38.864C53.1573 37.072 50.256 36.176 46.416 36.176C45.0507 36.176 43.8987 36.2187 42.96 36.304C42.1067 36.304 41.2107 36.3893 40.272 36.56V56.4H47.056ZM40.4 97.488C39.4613 97.744 37.968 98 35.92 98.256C33.9573 98.512 31.9947 98.64 30.032 98.64C28.0693 98.64 26.32 98.4693 24.784 98.128C23.3333 97.872 22.096 97.36 21.072 96.592C20.048 95.824 19.28 94.7573 18.768 93.392C18.256 92.0267 18 90.2347 18 88.016V27.728C18 25.936 18.4693 24.5707 19.408 23.632C20.432 22.608 21.7973 21.7973 23.504 21.2C26.4053 20.176 29.6907 19.4507 33.36 19.024C37.1147 18.512 40.8693 18.256 44.624 18.256C56.4 18.256 65.4027 20.7733 71.632 25.808C77.8613 30.8427 80.976 37.6693 80.976 46.288C80.976 50.4693 80.2933 54.2667 78.928 57.68C77.648 61.008 75.6853 63.9093 73.04 66.384C70.48 68.7733 67.1947 70.6507 63.184 72.016C59.2587 73.296 54.6933 73.936 49.488 73.936H40.4V97.488Z" fill="white"/>
<path d="M114.647 81.36C115.586 81.5307 116.738 81.7013 118.103 81.872C119.468 81.9573 120.748 82 121.943 82C124.844 82 127.49 81.5733 129.879 80.72C132.354 79.8667 134.444 78.544 136.151 76.752C137.943 74.96 139.308 72.656 140.247 69.84C141.271 66.9387 141.783 63.4827 141.783 59.472C141.783 51.792 139.991 46.032 136.407 42.192C132.823 38.2667 128.044 36.304 122.071 36.304C120.876 36.304 119.639 36.3467 118.359 36.432C117.164 36.5173 115.927 36.6453 114.647 36.816V81.36ZM121.815 100.048C120.364 100.048 118.7 100.005 116.823 99.92C114.946 99.8347 112.983 99.664 110.935 99.408C108.972 99.152 106.967 98.8107 104.919 98.384C102.956 98.0427 101.122 97.5307 99.415 96.848C94.7217 95.056 92.375 91.9413 92.375 87.504V27.728C92.375 25.936 92.8443 24.5707 93.783 23.632C94.807 22.608 96.1723 21.7973 97.879 21.2C101.548 20.0053 105.431 19.2373 109.527 18.896C113.623 18.4693 117.292 18.256 120.535 18.256C127.191 18.256 133.207 19.0667 138.583 20.688C144.044 22.3093 148.695 24.8267 152.535 28.24C156.46 31.568 159.49 35.792 161.623 40.912C163.756 46.032 164.823 52.0907 164.823 59.088C164.823 65.9147 163.799 71.888 161.751 77.008C159.703 82.0427 156.759 86.3093 152.919 89.808C149.164 93.2213 144.642 95.7813 139.351 97.488C134.06 99.1947 128.215 100.048 121.815 100.048Z" fill="black"/>
<path d="M114.647 81.36C115.586 81.5307 116.738 81.7013 118.103 81.872C119.468 81.9573 120.748 82 121.943 82C124.844 82 127.49 81.5733 129.879 80.72C132.354 79.8667 134.444 78.544 136.151 76.752C137.943 74.96 139.308 72.656 140.247 69.84C141.271 66.9387 141.783 63.4827 141.783 59.472C141.783 51.792 139.991 46.032 136.407 42.192C132.823 38.2667 128.044 36.304 122.071 36.304C120.876 36.304 119.639 36.3467 118.359 36.432C117.164 36.5173 115.927 36.6453 114.647 36.816V81.36ZM121.815 100.048C120.364 100.048 118.7 100.005 116.823 99.92C114.946 99.8347 112.983 99.664 110.935 99.408C108.972 99.152 106.967 98.8107 104.919 98.384C102.956 98.0427 101.122 97.5307 99.415 96.848C94.7217 95.056 92.375 91.9413 92.375 87.504V27.728C92.375 25.936 92.8443 24.5707 93.783 23.632C94.807 22.608 96.1723 21.7973 97.879 21.2C101.548 20.0053 105.431 19.2373 109.527 18.896C113.623 18.4693 117.292 18.256 120.535 18.256C127.191 18.256 133.207 19.0667 138.583 20.688C144.044 22.3093 148.695 24.8267 152.535 28.24C156.46 31.568 159.49 35.792 161.623 40.912C163.756 46.032 164.823 52.0907 164.823 59.088C164.823 65.9147 163.799 71.888 161.751 77.008C159.703 82.0427 156.759 86.3093 152.919 89.808C149.164 93.2213 144.642 95.7813 139.351 97.488C134.06 99.1947 128.215 100.048 121.815 100.048Z" fill="white"/>
<path d="M114.647 81.36C115.586 81.5307 116.738 81.7013 118.103 81.872C119.468 81.9573 120.748 82 121.943 82C124.844 82 127.49 81.5733 129.879 80.72C132.354 79.8667 134.444 78.544 136.151 76.752C137.943 74.96 139.308 72.656 140.247 69.84C141.271 66.9387 141.783 63.4827 141.783 59.472C141.783 51.792 139.991 46.032 136.407 42.192C132.823 38.2667 128.044 36.304 122.071 36.304C120.876 36.304 119.639 36.3467 118.359 36.432C117.164 36.5173 115.927 36.6453 114.647 36.816V81.36ZM121.815 100.048C120.364 100.048 118.7 100.005 116.823 99.92C114.946 99.8347 112.983 99.664 110.935 99.408C108.972 99.152 106.967 98.8107 104.919 98.384C102.956 98.0427 101.122 97.5307 99.415 96.848C94.7217 95.056 92.375 91.9413 92.375 87.504V27.728C92.375 25.936 92.8443 24.5707 93.783 23.632C94.807 22.608 96.1723 21.7973 97.879 21.2C101.548 20.0053 105.431 19.2373 109.527 18.896C113.623 18.4693 117.292 18.256 120.535 18.256C127.191 18.256 133.207 19.0667 138.583 20.688C144.044 22.3093 148.695 24.8267 152.535 28.24C156.46 31.568 159.49 35.792 161.623 40.912C163.756 46.032 164.823 52.0907 164.823 59.088C164.823 65.9147 163.799 71.888 161.751 77.008C159.703 82.0427 156.759 86.3093 152.919 89.808C149.164 93.2213 144.642 95.7813 139.351 97.488C134.06 99.1947 128.215 100.048 121.815 100.048Z" fill="#48B4B9"/>
</g>
<defs>
<filter id="filter0_d_2_17" x="0" y="0.255981" width="182.823" height="117.792" filterUnits="userSpaceOnUse" color-interpolation-filters="sRGB">
<feFlood flood-opacity="0" result="BackgroundImageFix"/>
<feColorMatrix in="SourceAlpha" type="matrix" values="0 0 0 0 0 0 0 0 0 0 0 0 0 0 0 0 0 0 127 0" result="hardAlpha"/>
<feOffset/>
<feGaussianBlur stdDeviation="2"/>
<feComposite in2="hardAlpha" operator="out"/>
<feColorMatrix type="matrix" values="0 0 0 0 0 0 0 0 0 0 0 0 0 0 0 0 0 0 0.25 0"/>
<feBlend mode="normal" in2="BackgroundImageFix" result="effect1_dropShadow_2_17"/>
<feBlend mode="normal" in="SourceGraphic" in2="effect1_dropShadow_2_17" result="shape"/>
</filter>
<filter id="filter1_d_2_17" x="14" y="14.256" width="154.823" height="89.792" filterUnits="userSpaceOnUse" color-interpolation-filters="sRGB">
<feFlood flood-opacity="0" result="BackgroundImageFix"/>
<feColorMatrix in="SourceAlpha" type="matrix" values="0 0 0 0 0 0 0 0 0 0 0 0 0 0 0 0 0 0 127 0" result="hardAlpha"/>
<feOffset/>
<feGaussianBlur stdDeviation="2"/>
<feComposite in2="hardAlpha" operator="out"/>
<feColorMatrix type="matrix" values="0 0 0 0 0 0 0 0 0 0 0 0 0 0 0 0 0 0 0.25 0"/>
<feBlend mode="normal" in2="BackgroundImageFix" result="effect1_dropShadow_2_17"/>
<feBlend mode="normal" in="SourceGraphic" in2="effect1_dropShadow_2_17" result="shape"/>
</filter>
</defs>
</svg>
